<?xml version="1.0" encoding="UTF-8" standalone="no"?>
<!DOCTYPE svg PUBLIC "-//W3C//DTD SVG 1.1//EN" "http://www.w3.org/Graphics/SVG/1.1/DTD/svg11.dtd">
<svg width="100%" height="100%" viewBox="0 0 280 77" version="1.1" xmlns="http://www.w3.org/2000/svg" xmlns:xlink="http://www.w3.org/1999/xlink" xml:space="preserve" xmlns:serif="http://www.serif.com/" style="fill-rule:evenodd;clip-rule:evenodd;stroke-linecap:round;">
    <g transform="matrix(1,0,0,1,3.65345,0.896609)">
        <g id="页面-1">
            <g id="编组-9">
                <g id="编组-15" transform="matrix(1,0,0,1,0,3.27799)">
                    <g id="路径" transform="matrix(0.707107,0.707107,-0.707107,0.707107,31.181,-3.21882)">
                        <path d="M32.952,22.553L32.952,44.115C32.952,47.092 30.539,49.505 27.562,49.505L6,49.505L6,27.944C6,24.967 8.413,22.553 11.39,22.553L14.73,22.553" style="fill:none;stroke:rgb(253,169,35);stroke-width:5px;"/>
                    </g>
                    <g id="路径1" serif:id="路径" transform="matrix(-0.707107,-0.707107,0.707107,-0.707107,52.6111,93.851)">
                        <path d="M59.219,22.553L59.219,44.115C59.219,47.092 56.805,49.505 53.828,49.505L32.267,49.505L32.267,27.944C32.267,24.967 34.68,22.553 37.657,22.553L40.997,22.553" style="fill:none;stroke:rgb(253,169,35);stroke-width:5px;"/>
                    </g>
                    <path id="路径2" serif:id="路径" d="M43.743,19.058C43.743,8.533 33.424,0 20.695,0" style="fill:none;stroke:rgb(253,169,35);stroke-width:5px;"/>
                    <g id="路径3" serif:id="路径" transform="matrix(-1,0,0,1,66.0002,0)">
                        <path d="M44.524,19.058C44.524,8.533 34.205,0 21.476,0" style="fill:none;stroke:rgb(253,169,35);stroke-width:5px;"/>
                    </g>
                    <path id="路径4" serif:id="路径" d="M21.476,53.587C21.476,59.294 25.187,64.461 32.609,69.087C40.032,64.461 43.743,59.294 43.743,53.587" style="fill:none;stroke:rgb(253,169,35);stroke-width:5px;stroke-linecap:butt;"/>
                    <path id="路径-39" d="M21.476,51.819L43.743,51.819" style="fill:none;stroke:rgb(253,169,35);stroke-width:4px;stroke-linecap:butt;"/>
                    <path id="路径-391" serif:id="路径-39" d="M23.979,59.272L41.479,59.272" style="fill:none;stroke:rgb(253,169,35);stroke-width:4px;stroke-linecap:butt;"/>
                </g>
                <g id="Finance-Suits">
                </g>
            </g>
        </g>
    </g>
</svg>
