<?xml version="1.0" standalone="no"?><!DOCTYPE svg PUBLIC "-//W3C//DTD SVG 1.1//EN" "http://www.w3.org/Graphics/SVG/1.1/DTD/svg11.dtd"><svg t="1577255774899" class="icon" viewBox="0 0 1024 1024" version="1.1" xmlns="http://www.w3.org/2000/svg" p-id="2975" xmlns:xlink="http://www.w3.org/1999/xlink" width="128" height="128"><defs><style type="text/css"></style></defs><path d="M512 597.333333c-4.266667 0-12.8 0-17.066667-4.266667l-469.333333-213.333333C8.533333 371.2 0 358.4 0 341.333333s8.533333-29.866667 25.6-38.4l469.333333-213.333333c12.8-4.266667 25.6-4.266667 34.133333 0l469.333333 213.333333C1015.466667 311.466667 1024 324.266667 1024 341.333333s-8.533333 29.866667-25.6 38.4l-469.333333 213.333333C524.8 597.333333 516.266667 597.333333 512 597.333333zM145.066667 341.333333l366.933333 166.4L878.933333 341.333333 512 174.933333 145.066667 341.333333z" p-id="2976" fill="#707070"></path><path d="M512 938.666667c-4.266667 0-12.8 0-17.066667-4.266667l-469.333333-213.333333C8.533333 712.533333 0 699.733333 0 682.666667s8.533333-29.866667 25.6-38.4l187.733333-85.333333c21.333333-8.533333 46.933333 0 55.466667 21.333333 8.533333 21.333333 0 46.933333-21.333333 55.466667L145.066667 682.666667l366.933333 166.4 366.933333-166.4-102.4-46.933333c-21.333333-8.533333-29.866667-34.133333-21.333333-55.466667 8.533333-21.333333 34.133333-29.866667 55.466667-21.333333l187.733333 85.333333c17.066667 8.533333 25.6 21.333333 25.6 38.4s-8.533333 29.866667-25.6 38.4l-469.333333 213.333333C524.8 938.666667 516.266667 938.666667 512 938.666667z" p-id="2977" fill="#707070"></path><path d="M512 768c-4.266667 0-12.8 0-17.066667-4.266667l-469.333333-213.333333C8.533333 541.866667 0 529.066667 0 512s8.533333-29.866667 25.6-38.4l187.733333-85.333333c21.333333-8.533333 46.933333 0 55.466667 21.333333 8.533333 21.333333 0 46.933333-21.333333 55.466667L145.066667 512l366.933333 166.4 366.933333-166.4-102.4-46.933333c-21.333333-8.533333-29.866667-34.133333-21.333333-55.466667 8.533333-21.333333 34.133333-29.866667 55.466667-21.333333l187.733333 85.333333c17.066667 8.533333 25.6 21.333333 25.6 38.4s-8.533333 29.866667-25.6 38.4l-469.333333 213.333333C524.8 768 516.266667 768 512 768z" p-id="2978" fill="#707070"></path></svg>