<?xml version="1.0" encoding="UTF-8"?>
<svg width="12px" height="12px" viewBox="0 0 12 12" version="1.1" xmlns="http://www.w3.org/2000/svg" xmlns:xlink="http://www.w3.org/1999/xlink">
    <!-- Generator: Sketch 58 (84663) - https://sketch.com -->
    <title>plus-aquare1</title>
    <desc>Created with Sketch.</desc>
    <g id="页面-1" stroke="none" stroke-width="1" fill="none" fill-rule="evenodd">
        <g id="画板" transform="translate(-60.000000, -1582.000000)" fill="#5A6677">
            <g id="style1/folding" transform="translate(52.000000, 1463.000000)">
                <g id="plus-aquare1" transform="translate(8.000000, 119.000000)">
                    <path d="M11,0 C11.5522847,-1.01453063e-16 12,0.44771525 12,1 L12,11 C12,11.5522847 11.5522847,12 11,12 L1,12 C0.44771525,12 6.76353751e-17,11.5522847 0,11 L0,1 C-6.76353751e-17,0.44771525 0.44771525,1.01453063e-16 1,0 L11,0 Z M6,3 C5.72385763,3 5.5,3.22385763 5.5,3.5 L5.5,3.5 L5.5,5.5 L3.5,5.5 C3.22385763,5.5 3,5.72385763 3,6 C3,6.27614237 3.22385763,6.5 3.5,6.5 L3.5,6.5 L5.499,6.5 L5.5,8.5 C5.5,8.77614237 5.72385763,9 6,9 C6.27614237,9 6.5,8.77614237 6.5,8.5 L6.5,8.5 L6.499,6.5 L8.5,6.5 C8.77614237,6.5 9,6.27614237 9,6 C9,5.72385763 8.77614237,5.5 8.5,5.5 L8.5,5.5 L6.5,5.5 L6.5,3.5 C6.5,3.22385763 6.27614237,3 6,3 Z" id="形状结合"></path>
                </g>
            </g>
        </g>
    </g>
</svg>