<?xml version="1.0" encoding="UTF-8"?>
<svg width="12px" height="12px" viewBox="0 0 12 12" version="1.1" xmlns="http://www.w3.org/2000/svg" xmlns:xlink="http://www.w3.org/1999/xlink">
    <!-- Generator: Sketch 58 (84663) - https://sketch.com -->
    <title>plus-aquare2@3x</title>
    <desc>Created with Sketch.</desc>
    <g id="页面-1" stroke="none" stroke-width="1" fill="none" fill-rule="evenodd">
        <g id="画板" transform="translate(-1057.000000, -1582.000000)">
            <g id="style2/folding" transform="translate(1048.000000, 1462.000000)">
                <g id="plus-aquare2" transform="translate(9.000000, 120.000000)">
                    <rect id="矩形" stroke="#AAADBA" x="0.5" y="0.5" width="11" height="11" rx="1"></rect>
                    <path d="M6,3 C6.27614237,3 6.5,3.22385763 6.5,3.5 L6.5,5.5 L8.5,5.5 C8.77614237,5.5 9,5.72385763 9,6 C9,6.27614237 8.77614237,6.5 8.5,6.5 L6.499,6.5 L6.5,8.5 C6.5,8.77614237 6.27614237,9 6,9 C5.72385763,9 5.5,8.77614237 5.5,8.5 L5.499,6.5 L3.5,6.5 C3.22385763,6.5 3,6.27614237 3,6 C3,5.72385763 3.22385763,5.5 3.5,5.5 L5.5,5.5 L5.5,3.5 C5.5,3.22385763 5.72385763,3 6,3 Z" id="矩形-3" fill="#AAADBA"></path>
                </g>
            </g>
        </g>
    </g>
</svg>