<?xml version="1.0" encoding="UTF-8"?>
<svg width="241px" height="108px" viewBox="0 0 241 108" version="1.1" xmlns="http://www.w3.org/2000/svg" xmlns:xlink="http://www.w3.org/1999/xlink">
    <!-- Generator: Sketch 58 (84663) - https://sketch.com -->
    <title>text-input/style1</title>
    <desc>Created with Sketch.</desc>
    <g id="页面-1" stroke="none" stroke-width="1" fill="none" fill-rule="evenodd">
        <g id="text-input/style1">
            <g id="编组-20">
                <rect id="矩形备份" fill-opacity="0.01" fill="#FAFAFA" x="0" y="0" width="241" height="108"></rect>
                <rect id="矩形备份-4" stroke-opacity="0.15" stroke="#000000" fill="#FFFFFF" x="52.5" y="12.5" width="176" height="79" rx="2"></rect>
                <path d="M65.2265625,31.4824219 L64.3125,31.4824219 L64.3125,25.5410156 L70.828125,25.5410156 L70.828125,30.0996094 C70.828125,30.9433636 70.3945356,31.3691406 69.5273438,31.3769531 L68.6108905,31.3865195 C68.3502086,31.3879544 68.0658498,31.3886719 67.7578125,31.3886719 C67.7187498,31.1386706 67.6601566,30.8378924 67.5820312,30.4863281 L68.1340094,30.520767 C68.5684798,30.5446828 68.9391726,30.5566406 69.2460938,30.5566406 C69.6914085,30.5566406 69.9140625,30.3535177 69.9140625,29.9472656 L69.9140625,29.3613281 L65.2265625,29.3613281 L65.2265625,31.4824219 Z M63.28125,24.0878906 L67.0664062,24.0878906 L67.0664062,23.2792969 L64.0664062,23.2792969 L64.0664062,22.5410156 L67.0664062,22.5410156 L67.0664062,21.7558594 L63.65625,21.7558594 L63.65625,21.0175781 L67.0664062,21.0175781 L67.0664062,19.9628906 L68.015625,19.9628906 L68.015625,21.0175781 L71.5898438,21.0175781 L71.5898438,21.7558594 L68.015625,21.7558594 L68.015625,22.5410156 L71.2851562,22.5410156 L71.2851562,23.2792969 L68.015625,23.2792969 L68.015625,24.0878906 L71.8242188,24.0878906 L71.8242188,24.8261719 L63.28125,24.8261719 L63.28125,24.0878906 Z M63.8554688,28.5878906 C63.8789064,28.9785176 63.9062498,29.3183579 63.9375,29.6074219 C63.0937458,30.1699247 62.3789092,30.6777321 61.7929688,31.1308594 L61.2539062,30.3574219 C61.5195326,30.1074206 61.6523438,29.7675803 61.6523438,29.3378906 L61.6523438,24.9082031 L60.2226562,24.9082031 L60.2226562,24.0527344 L62.5429688,24.0527344 L62.5429688,29.5136719 C62.9804709,29.2167954 63.4179666,28.9082047 63.8554688,28.5878906 Z M69.9140625,26.2910156 L65.2265625,26.2910156 L65.2265625,27.0996094 L69.9140625,27.0996094 L69.9140625,26.2910156 Z M65.2265625,28.6347656 L69.9140625,28.6347656 L69.9140625,27.8261719 L65.2265625,27.8261719 L65.2265625,28.6347656 Z M61.546875,20.3613281 C62.1875032,20.9941438 62.7539038,21.5839816 63.2460938,22.1308594 L62.4257812,22.8105469 C61.8867161,22.1152309 61.3593776,21.4980496 60.84375,20.9589844 L61.546875,20.3613281 Z M73.171875,25.8457031 L74.2265625,25.8457031 L74.2265625,23.7128906 L75,23.7128906 L75,25.8457031 L76.125,25.8457031 L76.125,26.6191406 L75,26.6191406 L75,28.2246094 C75.4140646,28.1699216 75.8359354,28.1074222 76.265625,28.0371094 C76.2265623,28.3339859 76.1992188,28.6035144 76.1835938,28.8457031 L75,29.0097656 L75,29.0097656 L75,31.6230469 L74.2265625,31.6230469 L74.2265625,29.1269531 C73.5937468,29.2207036 72.9570345,29.3183589 72.3164062,29.4199219 L72.1875,28.5644531 C72.8593784,28.4941403 73.5390591,28.4160161 74.2265625,28.3300781 L74.2265625,26.6191406 L72.3515625,26.6191406 L72.3515625,25.8105469 C72.648439,24.9746052 72.9570296,23.9121158 73.2773438,22.6230469 L72.2460938,22.6230469 L72.2460938,21.8730469 L73.4648438,21.8730469 C73.5976569,21.3105441 73.7343743,20.7089876 73.875,20.0683594 L74.71875,20.2558594 L74.296875,21.8730469 L74.296875,21.8730469 L76.4179688,21.8730469 L76.4179688,22.6230469 L74.0976562,22.6230469 L73.846435,23.536379 C73.6018062,24.4138203 73.3769542,25.1835904 73.171875,25.8457031 Z M77.2734375,31.5996094 L76.5234375,31.5996094 L76.5234375,24.6972656 L79.640625,24.6972656 L79.640625,30.4628906 C79.640625,31.1503941 79.3242219,31.4941406 78.6914062,31.4941406 L77.7773438,31.4824219 L77.7773438,31.4824219 L77.6132812,30.7558594 L77.6132812,30.7558594 C77.9257828,30.779297 78.2109362,30.7910156 78.46875,30.7910156 C78.7500014,30.7910156 78.890625,30.6347672 78.890625,30.3222656 L78.890625,28.9628906 L77.2734375,28.9628906 L77.2734375,31.5996094 Z M80.6601562,20.1503906 L80.4609375,20.4082031 C81.3750046,21.78321 82.5195244,22.7675752 83.8945312,23.3613281 C83.6289049,23.6738297 83.425782,23.9433582 83.2851562,24.1699219 C82.7539036,23.8730454 82.261721,23.5371113 81.8085938,23.1621094 L81.8085938,23.7480469 L77.7421875,23.7480469 L77.7421875,23.2324219 C77.2812477,23.6152363 76.8007837,23.9667953 76.3007812,24.2871094 C76.0664051,23.9824204 75.8593759,23.7441415 75.6796875,23.5722656 C77.2343828,22.6660111 78.4882765,21.5253975 79.4414062,20.1503906 L80.6601562,20.1503906 Z M82.40625,24.4863281 L83.203125,24.4863281 L83.203125,30.1933594 C83.203125,31.0605512 82.8359412,31.4980468 82.1015625,31.5058594 C81.703123,31.5136719 81.2460963,31.5058595 80.7304688,31.4824219 C80.6914061,31.1933579 80.6367191,30.9003921 80.5664062,30.6035156 C81.0585962,30.6660159 81.480467,30.6972656 81.8320312,30.6972656 C82.2148457,30.6972656 82.40625,30.4941427 82.40625,30.0878906 L82.40625,24.4863281 Z M79.8867188,21.0175781 C79.3007783,21.7519568 78.6679721,22.4160127 77.9882812,23.0097656 L81.6210938,23.0097656 C80.9570279,22.4316377 80.3789087,21.7675819 79.8867188,21.0175781 Z M80.6132812,25.0488281 L81.3632812,25.0488281 L81.3632812,29.3144531 L80.6132812,29.3144531 L80.6132812,25.0488281 Z M77.2734375,28.3066406 L78.890625,28.3066406 L78.890625,27.1816406 L77.2734375,27.1816406 L77.2734375,28.3066406 Z M78.890625,25.4121094 L77.2734375,25.4121094 L77.2734375,26.5253906 L78.890625,26.5253906 L78.890625,25.4121094 Z M87.4335938,20.7246094 L88.2070312,20.1738281 C89.0820356,20.7128933 90.0429635,22.095692 91.0898438,24.3222656 C92.5507886,27.5175941 94.1367102,29.4667934 95.8476562,30.1699219 L95.0273438,31.2011719 C93.3876871,30.2278597 91.8664407,28.2213688 90.4635628,25.1816425 L90.0494794,24.2714846 C90.011285,24.1894535 89.9733075,24.1087244 89.9355469,24.0292969 C89.0292923,27.1347812 87.3437623,29.5488195 84.8789062,31.2714844 C84.6679677,30.9589828 84.4296888,30.666017 84.1640625,30.3925781 C86.6992314,28.7949139 88.4062456,26.2675954 89.2851562,22.8105469 C88.6718719,21.7871043 88.0546906,21.0917987 87.4335938,20.7246094 Z" id="请输入" fill="#AAADBA" fill-rule="nonzero"></path>
                <text id="样式一" font-family="MicrosoftYaHei, Microsoft YaHei" font-size="12" font-weight="normal" line-spacing="22" fill="#525A6E">
                    <tspan x="8" y="27">样式一</tspan>
                </text>
            </g>
        </g>
    </g>
</svg>