<?xml version="1.0" encoding="UTF-8"?>
<svg width="241px" height="92px" viewBox="0 0 241 92" version="1.1" xmlns="http://www.w3.org/2000/svg" xmlns:xlink="http://www.w3.org/1999/xlink">
    <!-- Generator: Sketch 58 (84663) - https://sketch.com -->
    <title>Btn-style1</title>
    <desc>Created with Sketch.</desc>
    <g id="页面-1" stroke="none" stroke-width="1" fill="none" fill-rule="evenodd">
        <g id="配置组件V10分页1" transform="translate(-224.000000, -250.000000)">
            <g id="编组-53备份" transform="translate(224.000000, 226.000000)">
                <g id="Btn-style1" transform="translate(0.000000, 24.000000)">
                    <rect id="矩形" fill="#FAFAFA" opacity="0.01" x="0" y="0" width="241" height="92"></rect>
                    <g id="style1" transform="translate(12.000000, 14.000000)" fill="#525A6E" font-family="ArialMT, Arial" font-size="12" font-weight="normal">
                        <text>
                            <tspan x="0.65234375" y="15">style1</tspan>
                        </text>
                    </g>
                    <g id="Group" transform="translate(112.000000, 12.000000)">
                        <rect id="Rectangle" fill="#3965C9" x="0" y="0" width="56" height="28" rx="2"></rect>
                        <text id="search" font-family="ArialMT, Arial" font-size="12" font-weight="normal" fill="#FFFFFF">
                            <tspan x="10" y="18">search</tspan>
                        </text>
                    </g>
                    <g id="Group备份" transform="translate(52.000000, 12.000000)">
                        <rect id="Rectangle" fill="#4F7DE7" x="0" y="0" width="56" height="28" rx="2"></rect>
                        <text id="create" font-family="ArialMT, Arial" font-size="12" font-weight="normal" fill="#FFFFFF">
                            <tspan x="19" y="18">create</tspan>
                        </text>
                        <g id="编组-9" transform="translate(3.000000, 8.000000)">
                            <rect id="矩形" fill="#D8D8D8" opacity="0.01" x="0" y="0" width="12" height="12"></rect>
                            <path d="M6,1 C6.27614237,1 6.5,1.22385763 6.5,1.5 L6.5,5.5 L10.5,5.5 C10.7761424,5.5 11,5.72385763 11,6 C11,6.27614237 10.7761424,6.5 10.5,6.5 L6.499,6.5 L6.5,10.5 C6.5,10.7761424 6.27614237,11 6,11 C5.72385763,11 5.5,10.7761424 5.5,10.5 L5.499,6.5 L1.5,6.5 C1.22385763,6.5 1,6.27614237 1,6 C1,5.72385763 1.22385763,5.5 1.5,5.5 L5.5,5.5 L5.5,1.5 C5.5,1.22385763 5.72385763,1 6,1 Z" id="矩形-3" fill="#FFFFFF"></path>
                        </g>
                    </g>
                    <g id="Group-2" transform="translate(172.000000, 12.000000)">
                        <rect id="Rectangle" stroke="#D5DAE0" fill="#FFFFFF" x="0.5" y="0.5" width="55" height="27" rx="2"></rect>
                        <text id="reset" font-family="ArialMT, Arial" font-size="12" font-weight="normal" fill="#333333">
                            <tspan x="15" y="18">reset</tspan>
                        </text>
                    </g>
                    <g id="Group" transform="translate(112.000000, 48.000000)">
                        <rect id="Rectangle" fill="#99AFE1" x="0" y="0" width="56" height="28" rx="2"></rect>
                        <text id="search" font-family="ArialMT, Arial" font-size="12" font-weight="normal" fill="#FFFFFF">
                            <tspan x="10" y="18">search</tspan>
                        </text>
                    </g>
                    <g id="Group备份" transform="translate(52.000000, 48.000000)">
                        <rect id="Rectangle" fill="#99AFE1" x="0" y="0" width="56" height="28" rx="2"></rect>
                        <text id="create" font-family="ArialMT, Arial" font-size="12" font-weight="normal" fill="#FFFFFF">
                            <tspan x="19" y="18">create</tspan>
                        </text>
                        <g id="编组-9" transform="translate(3.000000, 8.000000)">
                            <rect id="矩形" fill="#D8D8D8" opacity="0.01" x="0" y="0" width="12" height="12"></rect>
                            <path d="M6,1 C6.27614237,1 6.5,1.22385763 6.5,1.5 L6.5,5.5 L10.5,5.5 C10.7761424,5.5 11,5.72385763 11,6 C11,6.27614237 10.7761424,6.5 10.5,6.5 L6.499,6.5 L6.5,10.5 C6.5,10.7761424 6.27614237,11 6,11 C5.72385763,11 5.5,10.7761424 5.5,10.5 L5.499,6.5 L1.5,6.5 C1.22385763,6.5 1,6.27614237 1,6 C1,5.72385763 1.22385763,5.5 1.5,5.5 L5.5,5.5 L5.5,1.5 C5.5,1.22385763 5.72385763,1 6,1 Z" id="矩形-3" fill="#FFFFFF"></path>
                        </g>
                    </g>
                    <g id="点击数-copy" transform="translate(147.000000, 26.000000)">
                        <path d="M15.7642312,6.00637625 C15.3623769,6.00637625 15.0075481,6.15390129 14.6933323,6.35622132 C14.3833914,5.65231618 13.6737339,5.15705358 12.84865,5.15705358 C12.4703085,5.15705358 12.1347174,5.28982611 11.8311891,5.46896364 C11.5875115,4.64282348 10.8436536,4.02532584 9.92879378,4.02532584 C9.59747773,4.02532584 9.29822453,4.12227086 9.02248408,4.26347339 L9.02248408,1.98526542 C9.02248408,0.891472705 8.1183119,0 7.00893752,0 C5.89956313,0 4.99539098,0.891472684 4.99539098,1.98526542 L4.99539098,10.3836547 L3.43499926,8.84517933 C2.67404112,8.09490918 1.34450188,8.09701668 0.589956315,8.84517933 C0.209477234,9.22031442 0,9.71768451 0,10.2487746 C0,10.7798648 0.209477234,11.2772348 0.589956315,11.6523699 L6.21591654,17.2056336 C6.99824992,17.9980537 8.31068897,19.3236715 10.8799915,19.3236715 C15.1999252,19.3236715 17.7777778,17.1950961 17.7777778,13.6292053 L17.7777778,7.99164165 C17.7777778,6.89784894 16.8757431,6.00637625 15.7642312,6.00637625 Z" id="Shape" stroke="#4C4C4C" fill="#FFFFFF" fill-rule="nonzero"></path>
                        <rect id="Rectangle" fill="#4C4C4C" x="8.67360423" y="10.1424885" width="1.11111111" height="5.55555556" rx="0.555555556"></rect>
                        <rect id="Rectangle-Copy" fill="#4C4C4C" x="11.6244931" y="10.9330883" width="1.11111111" height="5.55555556" rx="0.555555556"></rect>
                        <rect id="Rectangle-Copy-2" fill="#4C4C4C" x="14.3960548" y="11.0005061" width="1.11111111" height="4.44444444" rx="0.555555556"></rect>
                    </g>
                    <g id="Group-2" transform="translate(172.000000, 48.000000)">
                        <rect id="Rectangle" stroke="#E7EAED" fill="#F8F8F8" x="0.5" y="0.5" width="55" height="27" rx="2"></rect>
                        <text id="reset" font-family="ArialMT, Arial" font-size="12" font-weight="normal" fill="#AAADBA">
                            <tspan x="15" y="18">reset</tspan>
                        </text>
                    </g>
                </g>
            </g>
        </g>
    </g>
</svg>