<?xml version="1.0" encoding="UTF-8"?>
<svg width="241px" height="68px" viewBox="0 0 241 68" version="1.1" xmlns="http://www.w3.org/2000/svg" xmlns:xlink="http://www.w3.org/1999/xlink">
    <!-- Generator: Sketch 58 (84663) - https://sketch.com -->
    <title>Lov/style2</title>
    <desc>Created with Sketch.</desc>
    <g id="页面-1" stroke="none" stroke-width="1" fill="none" fill-rule="evenodd">
        <g id="Lov/style2">
            <g id="编组-20">
                <rect id="矩形备份" fill-opacity="0.01" fill="#F6F6F6" x="0" y="0" width="241" height="68"></rect>
                <rect id="矩形备份-4" stroke-opacity="0.15" stroke="#000000" fill="#FFFFFF" x="8.5" y="32.5" width="224" height="27" rx="2"></rect>
                <path d="M21.2265625,51.4824219 L20.3125,51.4824219 L20.3125,45.5410156 L26.828125,45.5410156 L26.828125,50.0996094 C26.828125,50.9433636 26.3945356,51.3691406 25.5273438,51.3769531 L24.6108905,51.3865195 C24.3502086,51.3879544 24.0658498,51.3886719 23.7578125,51.3886719 C23.7187498,51.1386706 23.6601566,50.8378924 23.5820312,50.4863281 L24.1340094,50.520767 C24.5684798,50.5446828 24.9391726,50.5566406 25.2460938,50.5566406 C25.6914085,50.5566406 25.9140625,50.3535177 25.9140625,49.9472656 L25.9140625,49.3613281 L21.2265625,49.3613281 L21.2265625,51.4824219 Z M19.28125,44.0878906 L23.0664062,44.0878906 L23.0664062,43.2792969 L20.0664062,43.2792969 L20.0664062,42.5410156 L23.0664062,42.5410156 L23.0664062,41.7558594 L19.65625,41.7558594 L19.65625,41.0175781 L23.0664062,41.0175781 L23.0664062,39.9628906 L24.015625,39.9628906 L24.015625,41.0175781 L27.5898438,41.0175781 L27.5898438,41.7558594 L24.015625,41.7558594 L24.015625,42.5410156 L27.2851562,42.5410156 L27.2851562,43.2792969 L24.015625,43.2792969 L24.015625,44.0878906 L27.8242188,44.0878906 L27.8242188,44.8261719 L19.28125,44.8261719 L19.28125,44.0878906 Z M19.8554688,48.5878906 C19.8789064,48.9785176 19.9062498,49.3183579 19.9375,49.6074219 C19.0937458,50.1699247 18.3789092,50.6777321 17.7929688,51.1308594 L17.2539062,50.3574219 C17.5195326,50.1074206 17.6523438,49.7675803 17.6523438,49.3378906 L17.6523438,44.9082031 L16.2226562,44.9082031 L16.2226562,44.0527344 L18.5429688,44.0527344 L18.5429688,49.5136719 C18.9804709,49.2167954 19.4179666,48.9082047 19.8554688,48.5878906 Z M25.9140625,46.2910156 L21.2265625,46.2910156 L21.2265625,47.0996094 L25.9140625,47.0996094 L25.9140625,46.2910156 Z M21.2265625,48.6347656 L25.9140625,48.6347656 L25.9140625,47.8261719 L21.2265625,47.8261719 L21.2265625,48.6347656 Z M17.546875,40.3613281 C18.1875032,40.9941438 18.7539038,41.5839816 19.2460938,42.1308594 L18.4257812,42.8105469 C17.8867161,42.1152309 17.3593776,41.4980496 16.84375,40.9589844 L17.546875,40.3613281 Z M31.2929688,44.8378906 L35.171875,44.8378906 L35.171875,42.8808594 L33.1972656,42.8808594 C32.9628895,43.4746123 32.7187513,44.005857 32.4648438,44.4746094 C32.2617177,44.3417962 31.988283,44.2011726 31.6445312,44.0527344 C32.2539093,42.9824165 32.7070298,41.7949284 33.0039062,40.4902344 L33.9179688,40.6894531 C33.7812493,41.1777368 33.6386726,41.6386697 33.4902344,42.0722656 L35.171875,42.0722656 L35.171875,40.0332031 L36.0859375,40.0332031 L36.0859375,42.0722656 L39.1445312,42.0722656 L39.1445312,42.8808594 L36.0859375,42.8808594 L36.0859375,44.8378906 L39.7070312,44.8378906 L39.7070312,45.6464844 L36.9414062,45.6464844 L36.9414062,48.1542969 C36.9414062,48.5683614 37.1132795,48.7753906 37.4570312,48.7753906 L38.0195312,48.7753906 C38.378908,48.7753906 38.5859372,48.5878925 38.640625,48.2128906 C38.6875002,47.9082016 38.7304686,47.4472687 38.7695312,46.8300781 C39.01172,46.9394537 39.308592,47.0527338 39.6601562,47.1699219 C39.5976559,47.7089871 39.5312504,48.1621075 39.4609375,48.5292969 C39.3359369,49.2246129 38.8906288,49.5722656 38.125,49.5722656 L37.2578125,49.5722656 C36.4453084,49.5722656 36.0390625,49.1308638 36.0390625,48.2480469 L36.0390625,45.6464844 L34.4628906,45.6464844 L34.4526367,46.1503908 C34.4501953,46.2294921 34.4473877,46.3061521 34.4442139,46.3803708 L34.4335938,46.5957031 C34.3867185,48.0566479 33.5664142,49.1386684 31.9726562,49.8417969 C31.8164055,49.6152332 31.6210949,49.3535171 31.3867188,49.0566406 C32.7617256,48.4863253 33.4765622,47.666021 33.53125,46.5957031 L33.5490625,46.2750782 C33.5575,46.0950787 33.5652343,45.8855481 33.5722656,45.6464844 L31.2929688,45.6464844 L31.2929688,44.8378906 Z M33.0507812,50.3691406 L35.5,50.3925781 L39.8125,50.3105469 L39.698125,50.6442969 C39.6353127,50.823359 39.5640629,51.020702 39.484375,51.2363281 L35.4003906,51.2832031 L32.9453125,51.2480469 C31.5390555,51.2011716 30.5664089,50.7285201 30.0273438,49.8300781 C29.7070296,50.1269546 29.2382843,50.6503869 28.6210938,51.4003906 L28.140625,50.4277344 L29.640625,48.9921875 L29.640625,48.9921875 L29.640625,45.0488281 L28.2460938,45.0488281 L28.2460938,44.1816406 L30.5429688,44.1816406 L30.5429688,49.1914062 C31.0234399,49.9609413 31.859369,50.3535155 33.0507812,50.3691406 Z M28.8554688,40.7480469 L29.6054688,40.2441406 L29.8375198,40.5335264 C30.2076772,41.0053753 30.6771989,41.6471905 31.2460938,42.4589844 L30.4140625,43.0449219 L29.8751162,42.2131233 C29.4797259,41.6137487 29.1398452,41.1253925 28.8554688,40.7480469 Z M43.7617188,48.6347656 L47.40625,48.6347656 L47.40625,47.2753906 L44.4765625,47.2753906 L44.4765625,46.4316406 L47.40625,46.4316406 L47.40625,45.0957031 L48.296875,45.0957031 L48.296875,46.4316406 L51.296875,46.4316406 L51.296875,47.2753906 L48.296875,47.2753906 L48.296875,48.6347656 L51.8476562,48.6347656 L51.8476562,49.4785156 L48.296875,49.4785156 L48.296875,51.4824219 L47.40625,51.4824219 L47.40625,49.4785156 L43.7617188,49.4785156 L43.7617188,48.6347656 Z M40.28125,47.2988281 L40.1640625,46.3378906 L41.2786453,46.0800783 C41.4600686,46.0371096 41.639322,45.9941408 41.8164062,45.9511719 L41.8164062,43.1621094 L40.2695312,43.1621094 L40.2695312,42.3417969 L41.8164062,42.3417969 L41.8164062,40.0566406 L42.6953125,40.0566406 L42.6953125,42.3417969 L44.1953125,42.3417969 L44.1953125,43.1621094 L42.6953125,43.1621094 L42.6953125,45.7285156 C43.1210959,45.6191401 43.531248,45.5097662 43.9257812,45.4003906 C43.9414063,45.7441423 43.9687498,46.033202 44.0078125,46.2675781 L43.1197921,46.5071613 C42.9761291,46.5466578 42.8346361,46.5859373 42.6953125,46.625 L42.6953125,50.1230469 C42.6953125,50.9902387 42.3007852,51.4238281 41.5117188,51.4238281 L40.7866221,51.4106446 C40.6723642,51.4077149 40.5468757,51.4042969 40.4101562,51.4003906 C40.3789061,51.0800765 40.3281254,50.7636734 40.2578125,50.4511719 L40.6705736,50.5032553 C40.9240456,50.5310331 41.1341138,50.5449219 41.3007812,50.5449219 C41.644533,50.5449219 41.8164062,50.3378927 41.8164062,49.9238281 L41.8164062,46.8652344 L40.28125,47.2988281 L40.28125,47.2988281 Z" id="请选择" fill="#AAADBA" fill-rule="nonzero"></path>
                <path d="M51.0507812,40.6074219 L51.0507812,41.3925781 C50.5468725,42.3105515 49.7851613,43.1113247 48.765625,43.7949219 C49.6289106,44.1503924 50.656244,44.4042961 51.8476562,44.5566406 L51.5781249,45.051758 C51.4960938,45.2060545 51.4218753,45.3496087 51.3554688,45.4824219 C49.9882744,45.2167955 48.8281298,44.8300807 47.875,44.3222656 C46.8867138,44.8417995 45.7148505,45.2753889 44.359375,45.6230469 C44.2656245,45.349608 44.1328134,45.0605484 43.9609375,44.7558594 C45.1289121,44.4863268 46.1425738,44.1621113 47.0019531,43.7832031 C46.0996049,43.1386687 45.4453145,42.349614 45.0390625,41.4160156 L44.359375,41.4160156 L44.359375,40.6074219 L51.0507812,40.6074219 Z M50.0078125,41.4160156 L45.9238281,41.4160156 C46.3457052,42.2011758 46.9941362,42.8476537 47.8691406,43.3554688 C48.8496143,42.8046847 49.5624978,42.1582068 50.0078125,41.4160156 L50.0078125,41.4160156 Z" id="形状结合" fill="#AAADBA" fill-rule="nonzero"></path>
                <g id="编组-19" transform="translate(213.000000, 40.000000)">
                    <rect id="矩形" fill="#D8D8D8" opacity="0.01" x="0" y="0" width="12" height="12"></rect>
                    <g id="编组-13" stroke="#AAADBA">
                        <circle id="椭圆形" cx="5" cy="5" r="4.5"></circle>
                        <rect id="矩形" fill="#D8D8D8" transform="translate(9.596194, 9.596194) rotate(-45.000000) translate(-9.596194, -9.596194) " x="9.59619408" y="7.59619408" width="1" height="4" rx="0.5"></rect>
                    </g>
                </g>
                <text id="样式二" font-family="MicrosoftYaHei, Microsoft YaHei" font-size="12" font-weight="normal" line-spacing="22" fill="#525A6E">
                    <tspan x="8" y="19">样式二</tspan>
                </text>
            </g>
        </g>
    </g>
</svg>