<?xml version="1.0" encoding="UTF-8"?>
<svg width="241px" height="52px" viewBox="0 0 241 52" version="1.1" xmlns="http://www.w3.org/2000/svg" xmlns:xlink="http://www.w3.org/1999/xlink">
    <!-- Generator: Sketch 58 (84663) - https://sketch.com -->
    <title>badge/style2</title>
    <desc>Created with Sketch.</desc>
    <g id="页面-1" stroke="none" stroke-width="1" fill="none" fill-rule="evenodd">
        <g id="badge/style2">
            <rect id="矩形" fill-opacity="0.01" fill="#FFFFFF" x="0" y="0" width="241" height="52"></rect>
            <g id="Group-49备份-2" transform="translate(64.000000, 19.000000)">
                <rect id="Rectangle" stroke="#F13131" fill="#FFFFFF" x="0.5" y="0.5" width="11" height="11" rx="5.5"></rect>
                <path d="M6.11,2.36 C6.8,2.36 7.37,2.56 7.82,2.96 C8.26,3.36 8.48,3.87 8.48,4.51 C8.48,5.13 8.24,5.69 7.78,6.2 C7.5,6.5 7,6.88 6.3,7.35 C5.57,7.83 5.13,8.25 4.97,8.61 L8.49,8.61 L8.49,9.64 L3.51,9.64 C3.51,8.91 3.74,8.28 4.22,7.74 C4.48,7.44 5.03,7 5.86,6.43 C6.32,6.11 6.64,5.84 6.84,5.63 C7.15,5.28 7.31,4.9 7.31,4.5 C7.31,4.11 7.2,3.82 7,3.63 C6.79,3.44 6.48,3.35 6.07,3.35 C5.63,3.35 5.3,3.5 5.08,3.8 C4.86,4.08 4.74,4.51 4.72,5.07 L3.55,5.07 C3.56,4.27 3.79,3.63 4.25,3.14 C4.72,2.62 5.34,2.36 6.11,2.36 Z" id="2" fill="#F13131" fill-rule="nonzero"></path>
            </g>
            <rect id="Rectangle" stroke="#F13131" x="120.5" y="22.5" width="5" height="5" rx="2.5"></rect>
            <g id="Group-49备份-3" transform="translate(88.000000, 19.000000)">
                <rect id="Rectangle" stroke="#F13131" fill="#FFFFFF" x="0.5" y="0.5" width="16" height="11" rx="5.5"></rect>
                <path d="M5.825,2.5 C5.585,2.75 5.285,2.98 4.925,3.2 C4.565,3.4 4.225,3.54 3.905,3.62 L3.905,4.78 C4.565,4.59 5.105,4.3 5.535,3.91 L5.535,9.64 L6.705,9.64 L6.705,2.5 L5.825,2.5 Z M10.715,2.36 C11.405,2.36 11.975,2.56 12.425,2.96 C12.865,3.36 13.085,3.87 13.085,4.51 C13.085,5.13 12.845,5.69 12.385,6.2 C12.105,6.5 11.605,6.88 10.905,7.35 C10.175,7.83 9.735,8.25 9.575,8.61 L13.095,8.61 L13.095,9.64 L8.115,9.64 C8.115,8.91 8.345,8.28 8.825,7.74 C9.085,7.44 9.635,7 10.465,6.43 C10.925,6.11 11.245,5.84 11.445,5.63 C11.755,5.28 11.915,4.9 11.915,4.5 C11.915,4.11 11.805,3.82 11.605,3.63 C11.395,3.44 11.085,3.35 10.675,3.35 C10.235,3.35 9.905,3.5 9.685,3.8 C9.465,4.08 9.345,4.51 9.325,5.07 L8.155,5.07 C8.165,4.27 8.395,3.63 8.855,3.14 C9.325,2.62 9.945,2.36 10.715,2.36 Z" id="12" fill="#F13131" fill-rule="nonzero"></path>
            </g>
            <text id="样式二" font-family="MicrosoftYaHei, Microsoft YaHei" font-size="12" font-weight="normal" line-spacing="22" fill="#525A6E">
                <tspan x="8" y="27">样式二</tspan>
            </text>
        </g>
    </g>
</svg>