<?xml version="1.0" encoding="UTF-8"?>
<svg width="241px" height="68px" viewBox="0 0 241 68" version="1.1" xmlns="http://www.w3.org/2000/svg" xmlns:xlink="http://www.w3.org/1999/xlink">
    <!-- Generator: Sketch 58 (84663) - https://sketch.com -->
    <title>number-input/style3</title>
    <desc>Created with Sketch.</desc>
    <g id="页面-1" stroke="none" stroke-width="1" fill="none" fill-rule="evenodd">
        <g id="number-input/style3">
            <rect id="矩形" fill-opacity="0.01" fill="#F6F6F6" x="0" y="0" width="241" height="68"></rect>
            <g id="编组-11" transform="translate(52.000000, 26.000000)">
                <path d="M118.9375,12.3242188 L118.251953,12.3242188 L118.251953,11 C117.361324,11 116.62305,10.8164081 116.037109,10.4492188 L116.037109,9.27148438 C116.62305,9.75195553 117.361324,10.0097654 118.251953,10.0449219 L118.251953,6.91015625 C117.310542,6.46874779 116.69922,6.05664254 116.417969,5.67382812 C116.136717,5.29101371 115.996094,4.83789324 115.996094,4.31445312 C115.996094,3.70507508 116.206053,3.17480694 116.625977,2.72363281 C117.045901,2.27245868 117.587887,2.00195357 118.251953,1.91210938 L118.251953,0.76953125 L118.9375,0.76953125 L118.9375,1.88867188 C119.792973,1.91992203 120.374998,2.04101457 120.683594,2.25195312 L120.683594,3.40039062 C120.234373,3.05663891 119.652347,2.87109389 118.9375,2.84375 L118.9375,6.078125 C119.820317,6.48047076 120.427733,6.88183394 120.759766,7.28222656 C121.091799,7.68261919 121.257812,8.13281 121.257812,8.6328125 C121.257812,9.26172189 121.04883,9.77831829 120.630859,10.1826172 C120.212889,10.5869161 119.648441,10.8417963 118.9375,10.9472656 L118.9375,12.3242188 Z M118.251953,2.87890625 C117.501949,3.04296957 117.126953,3.47851209 117.126953,4.18554688 C117.126953,4.52539232 117.20703,4.80663951 117.367188,5.02929688 C117.527345,5.25195424 117.822263,5.48242068 118.251953,5.72070312 L118.251953,2.87890625 Z M118.9375,9.99804688 C119.730473,9.82617102 120.126953,9.40234713 120.126953,8.7265625 C120.126953,8.16015342 119.730473,7.66601773 118.9375,7.24414062 L118.9375,9.99804688 Z M128.347656,11 L123.144531,11 L123.144531,10.0097656 L125.177734,10.0097656 L125.177734,3.11914062 L123.091797,3.72265625 L123.091797,2.66796875 L126.320312,1.73046875 L126.320312,10.0097656 L128.347656,10.0097656 L128.347656,11 Z M135.214844,11 L129.695312,11 L129.695312,10.0039062 L132.332031,7.37304688 L132.739142,6.95527225 C133.243518,6.42245929 133.59414,5.98652513 133.791016,5.64746094 C134.037111,5.22363069 134.160156,4.78515852 134.160156,4.33203125 C134.160156,3.81640367 134.015626,3.42089981 133.726562,3.14550781 C133.437499,2.87011581 133.019534,2.73242188 132.472656,2.73242188 C131.664058,2.73242188 130.892582,3.07616844 130.158203,3.76367188 L130.158203,2.59765625 C130.87305,2.04687225 131.705073,1.77148438 132.654297,1.77148438 C133.470707,1.77148438 134.115232,1.99218529 134.587891,2.43359375 C135.060549,2.87500221 135.296875,3.46874627 135.296875,4.21484375 C135.296875,4.77734656 135.145509,5.32909886 134.842773,5.87011719 C134.540038,6.41113552 133.966801,7.0996052 133.123047,7.93554688 L131.054688,9.95703125 L131.054688,9.98046875 L135.214844,9.98046875 L135.214844,11 Z M138.191406,9.54101562 L137.189453,12.6640625 L136.357422,12.6640625 L137.083984,9.54101562 L138.191406,9.54101562 Z M139.533203,6.640625 C139.533203,5.03905449 139.798825,3.82715255 140.330078,3.00488281 C140.861331,2.18261308 141.630854,1.77148438 142.638672,1.77148438 C144.560556,1.77148438 145.521484,3.32225012 145.521484,6.42382812 C145.521484,7.95508578 145.250979,9.12597251 144.709961,9.93652344 C144.168943,10.7470744 143.410161,11.1523438 142.433594,11.1523438 C141.511714,11.1523438 140.797854,10.767582 140.291992,9.99804688 C139.78613,9.22851178 139.533203,8.10938234 139.533203,6.640625 Z M140.705078,6.58789062 C140.705078,8.99805893 141.3164,10.203125 142.539062,10.203125 C143.742194,10.203125 144.34375,8.97852787 144.34375,6.52929688 C144.34375,3.99412795 143.753912,2.7265625 142.574219,2.7265625 C141.328119,2.7265625 140.705078,4.013659 140.705078,6.58789062 Z M146.570312,6.640625 C146.570312,5.03905449 146.835935,3.82715255 147.367188,3.00488281 C147.89844,2.18261308 148.667964,1.77148438 149.675781,1.77148438 C151.597666,1.77148438 152.558594,3.32225012 152.558594,6.42382812 C152.558594,7.95508578 152.288089,9.12597251 151.74707,9.93652344 C151.206052,10.7470744 150.447271,11.1523438 149.470703,11.1523438 C148.548824,11.1523438 147.834963,10.767582 147.329102,9.99804688 C146.82324,9.22851178 146.570312,8.10938234 146.570312,6.640625 Z M147.742188,6.58789062 C147.742188,8.99805893 148.35351,10.203125 149.576172,10.203125 C150.779303,10.203125 151.380859,8.97852787 151.380859,6.52929688 C151.380859,3.99412795 150.791022,2.7265625 149.611328,2.7265625 C148.365228,2.7265625 147.742188,4.013659 147.742188,6.58789062 Z M153.607422,6.640625 C153.607422,5.03905449 153.873044,3.82715255 154.404297,3.00488281 C154.93555,2.18261308 155.705073,1.77148438 156.712891,1.77148438 C158.634775,1.77148438 159.595703,3.32225012 159.595703,6.42382812 C159.595703,7.95508578 159.325198,9.12597251 158.78418,9.93652344 C158.243161,10.7470744 157.48438,11.1523438 156.507812,11.1523438 C155.585933,11.1523438 154.872073,10.767582 154.366211,9.99804688 C153.860349,9.22851178 153.607422,8.10938234 153.607422,6.640625 Z M154.779297,6.58789062 C154.779297,8.99805893 155.390619,10.203125 156.613281,10.203125 C157.816412,10.203125 158.417969,8.97852787 158.417969,6.52929688 C158.417969,3.99412795 157.828131,2.7265625 156.648438,2.7265625 C155.402338,2.7265625 154.779297,4.013659 154.779297,6.58789062 Z M160.808594,10.3964844 C160.808594,10.1855458 160.880859,10.0078132 161.025391,9.86328125 C161.169923,9.71874928 161.349608,9.64648438 161.564453,9.64648438 C161.783204,9.64648438 161.964843,9.71972583 162.109375,9.86621094 C162.253907,10.012696 162.326172,10.1894521 162.326172,10.3964844 C162.326172,10.5996104 162.253907,10.7744133 162.109375,10.9208984 C161.964843,11.0673835 161.781251,11.140625 161.558594,11.140625 C161.343749,11.140625 161.16504,11.0673835 161.022461,10.9208984 C160.879882,10.7744133 160.808594,10.5996104 160.808594,10.3964844 Z M163.533203,6.640625 C163.533203,5.03905449 163.798825,3.82715255 164.330078,3.00488281 C164.861331,2.18261308 165.630854,1.77148438 166.638672,1.77148438 C168.560556,1.77148438 169.521484,3.32225012 169.521484,6.42382812 C169.521484,7.95508578 169.250979,9.12597251 168.709961,9.93652344 C168.168943,10.7470744 167.410161,11.1523438 166.433594,11.1523438 C165.511714,11.1523438 164.797854,10.767582 164.291992,9.99804688 C163.78613,9.22851178 163.533203,8.10938234 163.533203,6.640625 Z M164.705078,6.58789062 C164.705078,8.99805893 165.3164,10.203125 166.539062,10.203125 C167.742194,10.203125 168.34375,8.97852787 168.34375,6.52929688 C168.34375,3.99412795 167.753912,2.7265625 166.574219,2.7265625 C165.328119,2.7265625 164.705078,4.013659 164.705078,6.58789062 Z M173.675781,1.77148438 C175.597666,1.77148438 176.558594,3.32225012 176.558594,6.42382812 C176.558594,7.95508578 176.288089,9.12597251 175.74707,9.93652344 C175.206052,10.7470744 174.447271,11.1523438 173.470703,11.1523438 C172.548824,11.1523438 171.834963,10.767582 171.329102,9.99804688 C170.82324,9.22851178 170.570312,8.10938234 170.570312,6.640625 C170.570312,5.03905449 170.835935,3.82715255 171.367188,3.00488281 C171.89844,2.18261308 172.667964,1.77148438 173.675781,1.77148438 Z M173.611328,2.7265625 C172.365228,2.7265625 171.742188,4.013659 171.742188,6.58789062 C171.742188,8.99805893 172.35351,10.203125 173.576172,10.203125 C174.779303,10.203125 175.380859,8.97852787 175.380859,6.52929688 C175.380859,3.99412795 174.791022,2.7265625 173.611328,2.7265625 Z" id="$12,000.00" fill="#333333" fill-rule="nonzero"></path>
                <polygon id="Rectangle-26-Copy-23备份-6" fill="#D9D9D9" transform="translate(88.500000, 20.500000) scale(1, -1) translate(-88.500000, -20.500000) " points="0 20 177 20 177 21 0 21"></polygon>
            </g>
            <text id="样式三" font-family="MicrosoftYaHei, Microsoft YaHei" font-size="12" font-weight="normal" line-spacing="22" fill="#525A6E">
                <tspan x="8" y="34">样式三</tspan>
            </text>
        </g>
    </g>
</svg>