<?xml version="1.0" encoding="UTF-8"?>
<svg width="494px" height="131px" viewBox="0 0 494 131" version="1.1" xmlns="http://www.w3.org/2000/svg" xmlns:xlink="http://www.w3.org/1999/xlink">
    <!-- Generator: Sketch 58 (84663) - https://sketch.com -->
    <title>ring/style2</title>
    <desc>Created with Sketch.</desc>
    <defs>
        <linearGradient x1="40.1890834%" y1="100%" x2="11.9951114%" y2="42.9909987%" id="linearGradient-1">
            <stop stop-color="#4F7DE7" stop-opacity="0.2" offset="0%"></stop>
            <stop stop-color="#4F7DE7" offset="100%"></stop>
        </linearGradient>
        <linearGradient x1="36.337915%" y1="94.3800841%" x2="19.4841611%" y2="39.8572596%" id="linearGradient-2">
            <stop stop-color="#FF4141" stop-opacity="0.2" offset="0%"></stop>
            <stop stop-color="#FF4141" offset="100%"></stop>
        </linearGradient>
        <linearGradient x1="103.041918%" y1="72.9223291%" x2="-1.65876192%" y2="72.9223291%" id="linearGradient-3">
            <stop stop-color="#44CE6E" stop-opacity="0.2" offset="0%"></stop>
            <stop stop-color="#44CE6E" offset="100%"></stop>
        </linearGradient>
    </defs>
    <g id="页面-1" stroke="none" stroke-width="1" fill="none" fill-rule="evenodd">
        <g id="配置组件V10分页4" transform="translate(-730.000000, -2890.000000)">
            <g id="编组-43" transform="translate(224.000000, 2646.000000)">
                <g id="ring/style2" transform="translate(506.000000, 244.000000)">
                    <rect id="矩形" fill-opacity="0.01" fill="#FAFAFA" x="0" y="0" width="494" height="131"></rect>
                    <g id="编组-25" transform="translate(78.000000, 15.000000)">
                        <path d="M95.6579495,70.4106057 C98.4482761,64.1782425 100,57.2703335 100,50 C100,22.3857625 77.6142375,0 50,0 C22.3857625,0 0,22.3857625 0,50 C0,57.0610276 1.46366469,63.780198 4.10414519,69.8706622" id="路径" stroke="#F0F0F0" stroke-width="6" stroke-linecap="round"></path>
                        <text id="75%" font-family="ArialMT, Arial" font-size="20" font-weight="normal" fill="#4F7DE7">
                            <tspan x="30" y="58">75%</tspan>
                        </text>
                        <path d="M95.8257689,70.031542 C98.510423,63.898604 100,57.1232567 100,50 C100,22.3857625 77.6142375,0 50,0" id="路径" stroke="url(#linearGradient-1)" stroke-width="6" stroke-linecap="round"></path>
                    </g>
                    <g id="编组-26" transform="translate(202.000000, 15.000000)">
                        <circle id="椭圆形" stroke-opacity="0.2" stroke="#FF4141" fill="#FFFFFF" cx="50" cy="50" r="19.5"></circle>
                        <path d="M95.6579495,70.4106057 C98.4482761,64.1782425 100,57.2703335 100,50 C100,22.3857625 77.6142375,0 50,0 C22.3857625,0 0,22.3857625 0,50 C0,57.0610276 1.46366469,63.780198 4.10414519,69.8706622" id="路径" stroke="#F0F0F0" stroke-width="6" stroke-linecap="round"></path>
                        <path d="M95.8257689,70.031542 C98.510423,63.898604 100,57.1232567 100,50 C100,22.3857625 77.6142375,-3.7658765e-13 50,-3.7658765e-13" id="路径" stroke="url(#linearGradient-2)" stroke-width="6" stroke-linecap="round"></path>
                        <path d="M50,43 C50.5522847,43 51,43.4477153 51,44 L51,50 L57,50 C57.5522847,50 58,50.4477153 58,51 C58,51.5522847 57.5522847,52 57,52 L51,52 L51,58 C51,58.5522847 50.5522847,59 50,59 C49.4477153,59 49,58.5522847 49,58 L49,52 L43,52 C42.4477153,52 42,51.5522847 42,51 C42,50.4477153 42.4477153,50 43,50 L49,49.999 L49,44 C49,43.4477153 49.4477153,43 50,43 Z" id="矩形-8" fill="#FF4141" transform="translate(50.000000, 51.000000) rotate(-315.000000) translate(-50.000000, -51.000000) "></path>
                    </g>
                    <g id="编组-27" transform="translate(326.000000, 15.000000)">
                        <circle id="椭圆形" stroke-opacity="0.2" stroke="#44CE6E" fill="#FFFFFF" cx="50" cy="50" r="19.5"></circle>
                        <path d="M95.6579495,70.4106057 C98.4482761,64.1782425 100,57.2703335 100,50 C100,22.3857625 77.6142375,0 50,0 C22.3857625,0 0,22.3857625 0,50 C0,57.0610276 1.46366469,63.780198 4.10414519,69.8706622" id="路径" stroke="url(#linearGradient-3)" stroke-width="6" stroke-linecap="round"></path>
                        <path d="M43.1710353,43.4038605 C43.72332,43.4038605 44.1710353,43.8515757 44.1710353,44.4038605 L44.1710353,51.4038605 L57.1710353,51.4038605 C57.72332,51.4038605 58.1710353,51.8515757 58.1710353,52.4038605 C58.1710353,52.9561452 57.72332,53.4038605 57.1710353,53.4038605 L43.1710353,53.4038605 L43.1710353,53.4038605 C42.6187505,53.4038605 42.1710353,52.9561452 42.1710353,52.4038605 L42.1710353,44.4038605 C42.1710353,43.8515757 42.6187505,43.4038605 43.1710353,43.4038605 Z" id="矩形-9" fill="#44CE6E" transform="translate(50.171035, 48.403860) rotate(-45.000000) translate(-50.171035, -48.403860) "></path>
                    </g>
                    <g id="style2" transform="translate(12.000000, 14.000000)" fill="#525A6E" font-family="ArialMT, Arial" font-size="12" font-weight="normal">
                        <text>
                            <tspan x="0.65234375" y="15">style2</tspan>
                        </text>
                    </g>
                </g>
            </g>
        </g>
    </g>
</svg>