<?xml version="1.0" encoding="UTF-8"?>
<svg width="241px" height="68px" viewBox="0 0 241 68" version="1.1" xmlns="http://www.w3.org/2000/svg" xmlns:xlink="http://www.w3.org/1999/xlink">
    <!-- Generator: Sketch 58 (84663) - https://sketch.com -->
    <title>Lov/style1</title>
    <desc>Created with Sketch.</desc>
    <g id="页面-1" stroke="none" stroke-width="1" fill="none" fill-rule="evenodd">
        <g id="Lov/style1">
            <g id="编组-20">
                <rect id="矩形备份" fill-opacity="0.01" fill="#FAFAFA" x="0" y="0" width="241" height="68"></rect>
                <rect id="矩形备份-4" stroke="#D9D9D9" fill="#FFFFFF" x="52.5" y="20.5" width="176" height="27" rx="2"></rect>
                <path d="M65.2265625,39.4824219 L64.3125,39.4824219 L64.3125,33.5410156 L70.828125,33.5410156 L70.828125,38.0996094 C70.828125,38.9433636 70.3945356,39.3691406 69.5273438,39.3769531 L68.6108905,39.3865195 C68.3502086,39.3879544 68.0658498,39.3886719 67.7578125,39.3886719 C67.7187498,39.1386706 67.6601566,38.8378924 67.5820312,38.4863281 L68.1340094,38.520767 C68.5684798,38.5446828 68.9391726,38.5566406 69.2460938,38.5566406 C69.6914085,38.5566406 69.9140625,38.3535177 69.9140625,37.9472656 L69.9140625,37.3613281 L65.2265625,37.3613281 L65.2265625,39.4824219 Z M63.28125,32.0878906 L67.0664062,32.0878906 L67.0664062,31.2792969 L64.0664062,31.2792969 L64.0664062,30.5410156 L67.0664062,30.5410156 L67.0664062,29.7558594 L63.65625,29.7558594 L63.65625,29.0175781 L67.0664062,29.0175781 L67.0664062,27.9628906 L68.015625,27.9628906 L68.015625,29.0175781 L71.5898438,29.0175781 L71.5898438,29.7558594 L68.015625,29.7558594 L68.015625,30.5410156 L71.2851562,30.5410156 L71.2851562,31.2792969 L68.015625,31.2792969 L68.015625,32.0878906 L71.8242188,32.0878906 L71.8242188,32.8261719 L63.28125,32.8261719 L63.28125,32.0878906 Z M63.8554688,36.5878906 C63.8789064,36.9785176 63.9062498,37.3183579 63.9375,37.6074219 C63.0937458,38.1699247 62.3789092,38.6777321 61.7929688,39.1308594 L61.2539062,38.3574219 C61.5195326,38.1074206 61.6523438,37.7675803 61.6523438,37.3378906 L61.6523438,32.9082031 L60.2226562,32.9082031 L60.2226562,32.0527344 L62.5429688,32.0527344 L62.5429688,37.5136719 C62.9804709,37.2167954 63.4179666,36.9082047 63.8554688,36.5878906 Z M69.9140625,34.2910156 L65.2265625,34.2910156 L65.2265625,35.0996094 L69.9140625,35.0996094 L69.9140625,34.2910156 Z M65.2265625,36.6347656 L69.9140625,36.6347656 L69.9140625,35.8261719 L65.2265625,35.8261719 L65.2265625,36.6347656 Z M61.546875,28.3613281 C62.1875032,28.9941438 62.7539038,29.5839816 63.2460938,30.1308594 L62.4257812,30.8105469 C61.8867161,30.1152309 61.3593776,29.4980496 60.84375,28.9589844 L61.546875,28.3613281 Z M75.2929688,32.8378906 L79.171875,32.8378906 L79.171875,30.8808594 L77.1972656,30.8808594 C76.9628895,31.4746123 76.7187513,32.005857 76.4648438,32.4746094 C76.2617177,32.3417962 75.988283,32.2011726 75.6445312,32.0527344 C76.2539093,30.9824165 76.7070298,29.7949284 77.0039062,28.4902344 L77.9179688,28.6894531 C77.7812493,29.1777368 77.6386726,29.6386697 77.4902344,30.0722656 L79.171875,30.0722656 L79.171875,28.0332031 L80.0859375,28.0332031 L80.0859375,30.0722656 L83.1445312,30.0722656 L83.1445312,30.8808594 L80.0859375,30.8808594 L80.0859375,32.8378906 L83.7070312,32.8378906 L83.7070312,33.6464844 L80.9414062,33.6464844 L80.9414062,36.1542969 C80.9414062,36.5683614 81.1132795,36.7753906 81.4570312,36.7753906 L82.0195312,36.7753906 C82.378908,36.7753906 82.5859372,36.5878925 82.640625,36.2128906 C82.6875002,35.9082016 82.7304686,35.4472687 82.7695312,34.8300781 C83.01172,34.9394537 83.308592,35.0527338 83.6601562,35.1699219 C83.5976559,35.7089871 83.5312504,36.1621075 83.4609375,36.5292969 C83.3359369,37.2246129 82.8906288,37.5722656 82.125,37.5722656 L81.2578125,37.5722656 C80.4453084,37.5722656 80.0390625,37.1308638 80.0390625,36.2480469 L80.0390625,33.6464844 L78.4628906,33.6464844 L78.4526367,34.1503908 C78.4501953,34.2294921 78.4473877,34.3061521 78.4442139,34.3803708 L78.4335938,34.5957031 C78.3867185,36.0566479 77.5664142,37.1386684 75.9726562,37.8417969 C75.8164055,37.6152332 75.6210949,37.3535171 75.3867188,37.0566406 C76.7617256,36.4863253 77.4765622,35.666021 77.53125,34.5957031 L77.5490625,34.2750782 C77.5575,34.0950787 77.5652343,33.8855481 77.5722656,33.6464844 L75.2929688,33.6464844 L75.2929688,32.8378906 Z M77.0507812,38.3691406 L79.5,38.3925781 L83.8125,38.3105469 L83.698125,38.6442969 C83.6353127,38.823359 83.5640629,39.020702 83.484375,39.2363281 L79.4003906,39.2832031 L76.9453125,39.2480469 C75.5390555,39.2011716 74.5664089,38.7285201 74.0273438,37.8300781 C73.7070296,38.1269546 73.2382843,38.6503869 72.6210938,39.4003906 L72.140625,38.4277344 L73.640625,36.9921875 L73.640625,36.9921875 L73.640625,33.0488281 L72.2460938,33.0488281 L72.2460938,32.1816406 L74.5429688,32.1816406 L74.5429688,37.1914062 C75.0234399,37.9609413 75.859369,38.3535155 77.0507812,38.3691406 Z M72.8554688,28.7480469 L73.6054688,28.2441406 L73.8375198,28.5335264 C74.2076772,29.0053753 74.6771989,29.6471905 75.2460938,30.4589844 L74.4140625,31.0449219 L73.8751162,30.2131233 C73.4797259,29.6137487 73.1398452,29.1253925 72.8554688,28.7480469 Z M87.7617188,36.6347656 L91.40625,36.6347656 L91.40625,35.2753906 L88.4765625,35.2753906 L88.4765625,34.4316406 L91.40625,34.4316406 L91.40625,33.0957031 L92.296875,33.0957031 L92.296875,34.4316406 L95.296875,34.4316406 L95.296875,35.2753906 L92.296875,35.2753906 L92.296875,36.6347656 L95.8476562,36.6347656 L95.8476562,37.4785156 L92.296875,37.4785156 L92.296875,39.4824219 L91.40625,39.4824219 L91.40625,37.4785156 L87.7617188,37.4785156 L87.7617188,36.6347656 Z M84.28125,35.2988281 L84.1640625,34.3378906 L85.2786453,34.0800783 C85.4600686,34.0371096 85.639322,33.9941408 85.8164062,33.9511719 L85.8164062,31.1621094 L84.2695312,31.1621094 L84.2695312,30.3417969 L85.8164062,30.3417969 L85.8164062,28.0566406 L86.6953125,28.0566406 L86.6953125,30.3417969 L88.1953125,30.3417969 L88.1953125,31.1621094 L86.6953125,31.1621094 L86.6953125,33.7285156 C87.1210959,33.6191401 87.531248,33.5097662 87.9257812,33.4003906 C87.9414063,33.7441423 87.9687498,34.033202 88.0078125,34.2675781 L87.1197921,34.5071613 C86.9761291,34.5466578 86.8346361,34.5859373 86.6953125,34.625 L86.6953125,38.1230469 C86.6953125,38.9902387 86.3007852,39.4238281 85.5117188,39.4238281 L84.7866221,39.4106446 C84.6723642,39.4077149 84.5468757,39.4042969 84.4101562,39.4003906 C84.3789061,39.0800765 84.3281254,38.7636734 84.2578125,38.4511719 L84.6705736,38.5032553 C84.9240456,38.5310331 85.1341138,38.5449219 85.3007812,38.5449219 C85.644533,38.5449219 85.8164062,38.3378927 85.8164062,37.9238281 L85.8164062,34.8652344 L84.28125,35.2988281 L84.28125,35.2988281 Z" id="请选择" fill="#AAADBA" fill-rule="nonzero"></path>
                <path d="M95.0507812,28.6074219 L95.0507812,29.3925781 C94.5468725,30.3105515 93.7851613,31.1113247 92.765625,31.7949219 C93.6289106,32.1503924 94.656244,32.4042961 95.8476562,32.5566406 L95.5781249,33.051758 C95.4960938,33.2060545 95.4218753,33.3496087 95.3554688,33.4824219 C93.9882744,33.2167955 92.8281298,32.8300807 91.875,32.3222656 C90.8867138,32.8417995 89.7148505,33.2753889 88.359375,33.6230469 C88.2656245,33.349608 88.1328134,33.0605484 87.9609375,32.7558594 C89.1289121,32.4863268 90.1425738,32.1621113 91.0019531,31.7832031 C90.0996049,31.1386687 89.4453145,30.349614 89.0390625,29.4160156 L88.359375,29.4160156 L88.359375,28.6074219 L95.0507812,28.6074219 Z M94.0078125,29.4160156 L89.9238281,29.4160156 C90.3457052,30.2011758 90.9941362,30.8476537 91.8691406,31.3554688 C92.8496143,30.8046847 93.5624978,30.1582068 94.0078125,29.4160156 L94.0078125,29.4160156 Z" id="形状结合" fill="#AAADBA" fill-rule="nonzero"></path>
                <g id="search" transform="translate(209.000000, 28.000000)">
                    <rect id="矩形" fill="#D8D8D8" opacity="0.01" x="0" y="0" width="12" height="12"></rect>
                    <g id="编组-13" stroke="#AAADBA">
                        <circle id="椭圆形" cx="5" cy="5" r="4.5"></circle>
                        <rect id="矩形" fill="#D8D8D8" transform="translate(9.596194, 9.596194) rotate(-45.000000) translate(-9.596194, -9.596194) " x="9.59619408" y="7.59619408" width="1" height="4" rx="0.5"></rect>
                    </g>
                </g>
                <text id="样式一" font-family="MicrosoftYaHei, Microsoft YaHei" font-size="12" font-weight="normal" line-spacing="22" fill="#525A6E">
                    <tspan x="8" y="35">样式一</tspan>
                </text>
            </g>
        </g>
    </g>
</svg>