<?xml version="1.0" encoding="UTF-8"?>
<svg width="494px" height="174px" viewBox="0 0 494 174" version="1.1" xmlns="http://www.w3.org/2000/svg" xmlns:xlink="http://www.w3.org/1999/xlink">
    <!-- Generator: Sketch 59 (86127) - https://sketch.com -->
    <title>11-List-style3</title>
    <desc>Created with Sketch.</desc>
    <g id="页面-1" stroke="none" stroke-width="1" fill="none" fill-rule="evenodd">
        <g id="一诺合同-配置组件备份-2" transform="translate(-224.000000, -4733.000000)">
            <rect fill="#F6F6F6" x="0" y="0" width="1440" height="9290"></rect>
            <path d="M210,149 L1430,149 C1431.10457,149 1432,149.895431 1432,151 L1432,8635.15678 L1432,8635.15678 L1432,9272 C1432,9273.10457 1431.10457,9274 1430,9274 L210,9274 C208.895431,9274 208,9273.10457 208,9272 L208,151 C208,149.895431 208.895431,149 210,149 Z" id="Rectangle" fill="#FFFFFF"></path>
            <g id="list-double/style1" transform="translate(224.000000, 4733.000000)">
                <g id="编组-20">
                    <rect id="矩形备份" fill-opacity="0.01" fill="#FAFAFA" x="0" y="0" width="494" height="174"></rect>
                    <rect id="矩形备份-3" fill="#FFFFFF" transform="translate(257.000000, 73.000000) scale(1, -1) translate(-257.000000, -73.000000) " x="52" y="46" width="410" height="54"></rect>
                    <rect id="矩形备份-6" fill="#F8FBFF" transform="translate(257.000000, 127.000000) scale(1, -1) translate(-257.000000, -127.000000) " x="52" y="100" width="410" height="54"></rect>
                    <g id="编组-2" transform="translate(64.000000, 20.000000)" font-family="PingFangSC-Regular, PingFang SC" font-weight="normal">
                        <text id="标题文案" font-size="14" fill="#333333">
                            <tspan x="0" y="15">标题文案</tspan>
                        </text>
                        <text id="列表文案列表文案" font-size="12" line-spacing="16" fill="#5A6677">
                            <tspan x="0" y="47">列表文案列表文案</tspan>
                        </text>
                        <text id="描述文案描述文案描述文案..." font-size="12" line-spacing="16" fill="#AAADBA">
                            <tspan x="0" y="69">描述文案描述文案描述文案...</tspan>
                        </text>
                        <text id="列表文案列表文案备份" font-size="12" line-spacing="16" fill="#5A6677">
                            <tspan x="0" y="101">列表文案列表文案</tspan>
                        </text>
                        <text id="描述文案描述文案描述文案...备份" font-size="12" line-spacing="16" fill="#AAADBA">
                            <tspan x="0" y="123">描述文案描述文案描述文案...</tspan>
                        </text>
                    </g>
                    <text id="样式" font-family="MicrosoftYaHei, Microsoft YaHei" font-size="12" font-weight="normal" line-spacing="22" fill="#525A6E">
                        <tspan x="8" y="27">样式</tspan>
                    </text>
                </g>
            </g>
        </g>
    </g>
</svg>