<?xml version="1.0" encoding="UTF-8"?>
<svg width="241px" height="216px" viewBox="0 0 241 216" version="1.1" xmlns="http://www.w3.org/2000/svg" xmlns:xlink="http://www.w3.org/1999/xlink">
    <!-- Generator: Sketch 59 (86127) - https://sketch.com -->
    <title>14-Anchor-style1</title>
    <desc>Created with Sketch.</desc>
    <g id="页面-1" stroke="none" stroke-width="1" fill="none" fill-rule="evenodd">
        <g id="一诺合同-配置组件2" transform="translate(-224.000000, -6415.000000)">
            <rect fill="#F6F6F6" x="0" y="0" width="1440" height="9290"></rect>
            <path d="M210,149 L1430,149 C1431.10457,149 1432,149.895431 1432,151 L1432,8635.15678 L1432,8635.15678 L1432,9272 C1432,9273.10457 1431.10457,9274 1430,9274 L210,9274 C208.895431,9274 208,9273.10457 208,9272 L208,151 C208,149.895431 208.895431,149 210,149 Z" id="Rectangle" fill="#FFFFFF"></path>
            <g id="style1备份" transform="translate(224.000000, 6415.000000)">
                <rect id="矩形备份" fill-opacity="0.01" fill="#FAFAFA" x="0" y="0" width="241" height="216"></rect>
                <g id="编组-10" transform="translate(66.000000, 19.000000)">
                    <text id="内容文案2" font-family="PingFangSC-Regular, PingFang SC" font-size="12" font-weight="normal" fill="#AAADBA">
                        <tspan x="16" y="45">内容文案2</tspan>
                    </text>
                    <circle id="椭圆形" fill="#AAADBA" cx="4" cy="41" r="4"></circle>
                    <rect id="矩形" fill="#D9D9D9" x="4" y="51" width="1" height="12"></rect>
                    <text id="内容文案3" font-family="PingFangSC-Regular, PingFang SC" font-size="12" font-weight="normal" fill="#AAADBA">
                        <tspan x="16" y="77">内容文案3</tspan>
                    </text>
                    <circle id="椭圆形" fill="#AAADBA" cx="4" cy="73" r="4"></circle>
                    <rect id="矩形" fill="#D9D9D9" x="4" y="83" width="1" height="12"></rect>
                    <text id="内容文案3" font-family="PingFangSC-Regular, PingFang SC" font-size="12" font-weight="normal" fill="#AAADBA">
                        <tspan x="16" y="109">内容文案3</tspan>
                    </text>
                    <circle id="椭圆形" fill="#AAADBA" cx="4" cy="105" r="4"></circle>
                    <rect id="矩形" fill="#D9D9D9" x="4" y="115" width="1" height="12"></rect>
                    <text id="内容文案3" font-family="PingFangSC-Regular, PingFang SC" font-size="12" font-weight="normal" fill="#AAADBA">
                        <tspan x="16" y="141">内容文案3</tspan>
                    </text>
                    <circle id="椭圆形" fill="#AAADBA" cx="4" cy="137" r="4"></circle>
                    <rect id="矩形" fill="#D9D9D9" x="4" y="147" width="1" height="12"></rect>
                    <text id="内容文案3" font-family="PingFangSC-Regular, PingFang SC" font-size="12" font-weight="normal" fill="#AAADBA">
                        <tspan x="16" y="173">内容文案3</tspan>
                    </text>
                    <circle id="椭圆形" fill="#AAADBA" cx="4" cy="169" r="4"></circle>
                    <text id="内容文案1" font-family="PingFangSC-Regular, PingFang SC" font-size="12" font-weight="normal" fill="#3889FF">
                        <tspan x="16" y="13">内容文案1</tspan>
                    </text>
                    <circle id="椭圆形" fill="#3889FF" cx="4" cy="9" r="4"></circle>
                    <rect id="矩形" fill="#D9D9D9" x="4" y="19" width="1" height="12"></rect>
                </g>
                <text id="样式" font-family="MicrosoftYaHei, Microsoft YaHei" font-size="12" font-weight="normal" line-spacing="22" fill="#525A6E">
                    <tspan x="8" y="27">样式</tspan>
                </text>
            </g>
        </g>
    </g>
</svg>