<?xml version="1.0" encoding="UTF-8"?>
<svg width="494px" height="106px" viewBox="0 0 494 106" version="1.1" xmlns="http://www.w3.org/2000/svg" xmlns:xlink="http://www.w3.org/1999/xlink">
    <!-- Generator: Sketch 59 (86127) - https://sketch.com -->
    <title>19-Step--style2</title>
    <desc>Created with Sketch.</desc>
    <g id="页面-1" stroke="none" stroke-width="1" fill="none" fill-rule="evenodd">
        <g id="一诺合同-配置组件2" transform="translate(-224.000000, -9106.000000)">
            <rect fill="#F6F6F6" x="0" y="0" width="1440" height="9444"></rect>
            <path d="M210,149 L1430,149 C1431.10457,149 1432,149.895431 1432,151 L1432,8780.23518 L1432,8780.23518 L1432,9428 C1432,9429.10457 1431.10457,9430 1430,9430 L210,9430 C208.895431,9430 208,9429.10457 208,9428 L208,151 C208,149.895431 208.895431,149 210,149 Z" id="Rectangle" fill="#FFFFFF"></path>
            <g id="编组-33" transform="translate(224.000000, 8892.000000)">
                <g id="编组-31" transform="translate(0.000000, 214.000000)">
                    <rect id="矩形" fill="#FFFFFF" x="0" y="0" width="494" height="106"></rect>
                    <g id="编组-7" transform="translate(52.000000, 20.000000)">
                        <path d="M0,22 L243,22 C255.150264,22 265,31.8497355 265,44 C265,56.1502645 255.150264,66 243,66 L22,66 C9.8497355,66 1.48797825e-15,56.1502645 0,44 L0,22 L0,22 Z" id="矩形" stroke="#E3EFFF" fill="#F0F6FF"></path>
                        <g id="编组-8">
                            <path d="M8,0 L56,0 L56,0 L56,12 C56,16.418278 52.418278,20 48,20 L0,20 L0,20 L0,8 C-5.41083001e-16,3.581722 3.581722,8.11624501e-16 8,0 Z" id="矩形" fill="#3889FF"></path>
                            <text id="必填项" font-family="PingFangSC-Regular, PingFang SC" font-size="10" font-weight="normal" fill="#FFFFFF">
                                <tspan x="20" y="14">必填项</tspan>
                            </text>
                            <g id="必填" transform="translate(6.000000, 5.000000)" fill="#FFFFFF">
                                <rect id="矩形" fill-opacity="0.01" x="0" y="0" width="10" height="10"></rect>
                                <path d="M8.78448302,0.00513045623 L1.33448302,0.00513045623 C1.24891247,0.00495081518 1.16678576,0.0388214661 1.10622023,0.0992711934 C1.0456547,0.159720921 1.01164351,0.241782647 1.01164351,0.327353395 L1.01164351,9.55883488 C1.01164351,9.73722994 1.13584105,10.0992052 1.62337191,9.88161265 L5.05923611,8.34827932 C5.05923611,8.34827932 7.96343364,9.66537809 8.48201389,9.88161265 C8.99010031,10.0935262 9.10670525,9.73716821 9.10670525,9.55883488 L9.10670525,0.327353395 C9.10670525,0.148958333 8.96232253,0.00513045623 8.78448302,0.00513045623 Z M6.49238426,6.43284722 L5.04664352,5.72031636 L3.62602623,6.43247685 L3.79744599,4.87630401 L2.73040895,3.60241512 L4.16176698,3.31926698 L5.05923611,1.86784722 L5.87905093,3.31926698 L7.38806327,3.60241512 L6.32102623,4.87630401 L6.49238426,6.43284722 L6.49238426,6.43284722 Z" id="形状" fill-rule="nonzero"></path>
                            </g>
                        </g>
                        <g id="编组" transform="translate(290.000000, 0.000000)">
                            <g id="编组-8备份" fill="#7289A9">
                                <path d="M8,0 L56,0 L56,0 L56,12 C56,16.418278 52.418278,20 48,20 L0,20 L0,20 L0,8 C-5.41083001e-16,3.581722 3.581722,8.11624501e-16 8,0 Z" id="矩形"></path>
                            </g>
                            <text id="选填项" font-family="PingFangSC-Regular, PingFang SC" font-size="10" font-weight="normal" fill="#FFFFFF">
                                <tspan x="20" y="14">选填项</tspan>
                            </text>
                            <path d="M15.5000008,7 C15.7761432,7 16.0000008,7.22385763 16.0000008,7.5 L16.0000008,14.5 C16.0000008,14.7761424 15.7761432,15 15.5000008,15 L8.50000083,15 C8.22385846,15 8.00000083,14.7761424 8.00000083,14.5 L8.00000083,7.5 C8.00000083,7.22385763 8.22385846,7 8.50000083,7 L15.5000008,7 Z M13.9415157,8.84611699 L11.5644364,11.7709395 L10.0310615,10.181475 C9.80099259,9.94299031 9.4211549,9.93616802 9.18267028,10.1662369 C8.94418565,10.3963059 8.93736336,10.7761436 9.16743226,11.0146283 L11.0143091,12.9290624 C11.3210676,13.247042 11.8275178,13.2561383 12.1454974,12.9493798 L12.2108843,12.8781855 L14.8727494,9.60295495 C15.0817444,9.34580185 15.0427046,8.96791412 14.7855515,8.75891909 C14.5283984,8.54992406 14.1505107,8.58896389 13.9415157,8.84611699 Z M7.09962507,5 L13.4141672,5.00513063 C13.7455379,5.00538014 14.0139647,5.27421148 14.0137153,5.60558223 C14.0134656,5.93695299 13.7446343,6.2053798 13.4132636,6.20513029 L13.4132636,6.20513029 L7.2000014,6.20045195 L7.2000014,12.4363166 C7.2000014,12.7676874 6.93137228,13.0363166 6.60000146,13.0363166 C6.26863065,13.0363166 6.00000104,12.7676874 6.00000104,12.4363166 L6.00000104,12.4363166 L6.00000104,6.1008177 C5.99917363,5.49293024 6.49184754,5 7.09962507,5 L7.09962507,5 Z" id="选填" fill="#FFFFFF"></path>
                        </g>
                        <text id="标题名称" font-family="PingFangSC-Regular, PingFang SC" font-size="12" font-weight="normal" fill="#5A6677">
                            <tspan x="42" y="49">标题名称</tspan>
                        </text>
                        <text id="标题名称" font-family="PingFangSC-Regular, PingFang SC" font-size="12" font-weight="normal" fill="#5A6677">
                            <tspan x="182" y="49">标题名称</tspan>
                        </text>
                        <rect id="矩形" fill="#D0E5FF" x="120" y="44" width="20" height="1"></rect>
                        <g id="完成" transform="translate(10.000000, 32.000000)" fill="#3889FF">
                            <path d="M12,0 C5.4,0 0,5.4 0,12 C0,18.6 5.4,24 12,24 C18.6,24 24,18.6 24,12 C24,5.4 18.6,0 12,0 Z M12,23.05 C5.89999999,23.05 0.949999992,18.1 0.949999992,12 C0.949999992,5.89999999 5.89999999,0.949999992 12,0.949999992 C18.1,0.949999992 23.05,5.89999999 23.05,12 C23.05,18.1 18.1,23.05 12,23.05 Z" id="形状" fill-rule="nonzero"></path>
                            <path d="M15.9,8.7 L10.6,14 L8.14999999,11.55 C7.95,11.35 7.65,11.35 7.45000001,11.55 C7.25000002,11.75 7.25000002,12.05 7.45000001,12.25 L10.65,15.45 L16.65,9.45 C16.85,9.25000001 16.85,8.95000001 16.65,8.74999999 C16.4,8.49999998 16.1,8.49999998 15.9,8.7 Z" id="路径"></path>
                        </g>
                        <g id="完成备份" transform="translate(150.000000, 32.000000)" fill="#3889FF">
                            <path d="M12,0 C5.4,0 0,5.4 0,12 C0,18.6 5.4,24 12,24 C18.6,24 24,18.6 24,12 C24,5.4 18.6,0 12,0 Z M12,23.05 C5.89999999,23.05 0.949999992,18.1 0.949999992,12 C0.949999992,5.89999999 5.89999999,0.949999992 12,0.949999992 C18.1,0.949999992 23.05,5.89999999 23.05,12 C23.05,18.1 18.1,23.05 12,23.05 Z" id="形状" fill-rule="nonzero"></path>
                            <path d="M15.9,8.7 L10.6,14 L8.14999999,11.55 C7.95,11.35 7.65,11.35 7.45000001,11.55 C7.25000002,11.75 7.25000002,12.05 7.45000001,12.25 L10.65,15.45 L16.65,9.45 C16.85,9.25000001 16.85,8.95000001 16.65,8.74999999 C16.4,8.49999998 16.1,8.49999998 15.9,8.7 Z" id="路径"></path>
                        </g>
                        <g id="分组-5-copy-2备份-7" transform="translate(150.000000, 32.000000)">
                            <circle id="椭圆形" fill="#3889FF" cx="12" cy="12" r="12"></circle>
                            <text id="2" font-family="PingFangSC-Regular, PingFang SC" font-size="10" font-weight="normal" line-spacing="14" fill="#FFFFFF">
                                <tspan x="9" y="16">2</tspan>
                            </text>
                        </g>
                        <g id="编组-2" transform="translate(258.000000, 22.000000)">
                            <path d="M140,0 C152.150264,0 162,9.8497355 162,22 C162,34.1502645 152.150264,44 140,44 L44,44 C31.8497355,44 22,34.1502645 22,22 L22,22 L22,22 C22,14.3050906 18.0494267,7.532887 12.0658651,3.60097436 C10.5245155,2.58812411 8.2205827,1.71662744 5.15406664,0.986484375 C4.88537098,0.92259173 4.71942539,0.652926373 4.78339779,0.384249703 C4.83703487,0.158980198 5.03831292,4.25381721e-17 5.26987994,0 L140,0 L140,0 Z" id="路径" stroke="#F0F0F0" fill="#F7F7F7"></path>
                            <text id="标题名称" font-family="PingFangSC-Regular, PingFang SC" font-size="12" font-weight="normal" fill="#5A6677">
                                <tspan x="64" y="27">标题名称</tspan>
                            </text>
                            <g id="分组-5-copy-2备份" transform="translate(32.000000, 10.000000)">
                                <circle id="椭圆形" stroke="#999999" cx="12" cy="12" r="11.5"></circle>
                                <text id="3" font-family="PingFangSC-Regular, PingFang SC" font-size="10" font-weight="normal" line-spacing="14" fill="#999999">
                                    <tspan x="9" y="16">3</tspan>
                                </text>
                            </g>
                        </g>
                    </g>
                    <text id="样式" font-family="MicrosoftYaHei, Microsoft YaHei" font-size="12" font-weight="normal" line-spacing="22" fill="#525A6E">
                        <tspan x="8" y="55">样式</tspan>
                    </text>
                </g>
            </g>
        </g>
    </g>
</svg>