<?xml version="1.0" encoding="UTF-8"?>
<svg width="241px" height="86px" viewBox="0 0 241 86" version="1.1" xmlns="http://www.w3.org/2000/svg" xmlns:xlink="http://www.w3.org/1999/xlink">
    <!-- Generator: Sketch 59 (86127) - https://sketch.com -->
    <title>2-input2-style6</title>
    <desc>Created with Sketch.</desc>
    <g id="页面-1" stroke="none" stroke-width="1" fill="none" fill-rule="evenodd">
        <g id="一诺合同-配置组件2" transform="translate(-477.000000, -1333.000000)">
            <rect fill="#F6F6F6" x="0" y="0" width="1440" height="9873"></rect>
            <path d="M210,145 L1430,145 C1431.10457,145 1432,145.895431 1432,147 L1432,9184.5007 L1432,9184.5007 L1432,9863 C1432,9864.10457 1431.10457,9865 1430,9865 L210,9865 C208.895431,9865 208,9864.10457 208,9863 L208,147 C208,145.895431 208.895431,145 210,145 Z" id="Rectangle" fill="#FFFFFF"></path>
            <g id="编组-55" transform="translate(477.000000, 1333.000000)">
                <rect id="矩形" fill-opacity="0.01" fill="#FAFAFA" x="0" y="0" width="241" height="86"></rect>
                <g id="编组-10备份-33" transform="translate(8.000000, 38.000000)">
                    <rect id="矩形备份-4" stroke="#B8D7FF" fill="#EFF6FF" x="48.5" y="0.5" width="176" height="25" rx="2"></rect>
                    <text id="请填写" font-family="PingFangSC-Regular, PingFang SC" font-size="12" font-weight="normal" fill="#BFC3D0">
                        <tspan x="56" y="18">请填写</tspan>
                    </text>
                    <text id="样式二：" font-family="PingFangSC-Regular, PingFang SC" font-size="12" font-weight="normal" fill="#4A5C90">
                        <tspan x="0" y="18">样式二：</tspan>
                    </text>
                </g>
            </g>
        </g>
    </g>
</svg>