<?xml version="1.0" encoding="UTF-8"?>
<svg width="241px" height="320px" viewBox="0 0 241 320" version="1.1" xmlns="http://www.w3.org/2000/svg" xmlns:xlink="http://www.w3.org/1999/xlink">
    <!-- Generator: Sketch 59 (86127) - https://sketch.com -->
    <title>2-input1-style1</title>
    <desc>Created with Sketch.</desc>
    <defs>
        <polygon id="path-1" points="4.30251387 15.5021376 2.99218577 0.502137574 15.9921858 9.03637537 8.49919044 9.03637537"></polygon>
        <filter x="-19.9%" y="-13.2%" width="148.2%" height="143.2%" filterUnits="objectBoundingBox" id="filter-2">
            <feMorphology radius="0.5" operator="dilate" in="SourceAlpha" result="shadowSpreadOuter1"></feMorphology>
            <feOffset dx="0" dy="1" in="shadowSpreadOuter1" result="shadowOffsetOuter1"></feOffset>
            <feGaussianBlur stdDeviation="0.5" in="shadowOffsetOuter1" result="shadowBlurOuter1"></feGaussianBlur>
            <feComposite in="shadowBlurOuter1" in2="SourceAlpha" operator="out" result="shadowBlurOuter1"></feComposite>
            <feColorMatrix values="0 0 0 0 0   0 0 0 0 0   0 0 0 0 0  0 0 0 0.5 0" type="matrix" in="shadowBlurOuter1"></feColorMatrix>
        </filter>
        <linearGradient x1="50%" y1="0%" x2="50%" y2="100%" id="linearGradient-3">
            <stop stop-color="#FFFFFF" offset="0%"></stop>
            <stop stop-color="#EEEEEE" offset="100%"></stop>
        </linearGradient>
        <path d="M14.4165577,11.6253645 C19.9394052,11.6253645 24.4165577,16.102517 24.4165577,21.6253645 C24.4165577,27.148212 19.9394052,31.6253645 14.4165577,31.6253645 C8.89371023,31.6253645 4.41655772,27.148212 4.41655772,21.6253645 C4.41655772,16.102517 8.89371023,11.6253645 14.4165577,11.6253645 Z M13.4166064,13.6872522 C9.47027128,14.1793286 6.41655772,17.5457301 6.41655772,21.6253645 C6.41655772,25.704999 9.47027128,29.0714004 13.4166064,29.5634768 Z M15.4175128,13.6873774 L15.4175128,29.5633516 C19.363362,29.0708295 22.4165577,25.704653 22.4165577,21.6253645 C22.4165577,17.546076 19.363362,14.1798995 15.4175128,13.6873774 Z" id="path-4"></path>
        <filter x="-10.0%" y="-5.0%" width="120.0%" height="120.0%" filterUnits="objectBoundingBox" id="filter-5">
            <feOffset dx="0" dy="1" in="SourceAlpha" result="shadowOffsetOuter1"></feOffset>
            <feGaussianBlur stdDeviation="0.5" in="shadowOffsetOuter1" result="shadowBlurOuter1"></feGaussianBlur>
            <feColorMatrix values="0 0 0 0 0   0 0 0 0 0   0 0 0 0 0  0 0 0 0.5 0" type="matrix" in="shadowBlurOuter1"></feColorMatrix>
        </filter>
    </defs>
    <g id="页面-1" stroke="none" stroke-width="1" fill="none" fill-rule="evenodd">
        <g id="一诺合同-配置组件-英文" transform="translate(-224.000000, -446.000000)">
            <rect fill="#F6F6F6" x="0" y="0" width="1440" height="9873"></rect>
            <path d="M210,149 L1430,149 C1431.10457,149 1432,149.895431 1432,151 L1432,9188.5007 L1432,9188.5007 L1432,9867 C1432,9868.10457 1431.10457,9869 1430,9869 L210,9869 C208.895431,9869 208,9868.10457 208,9867 L208,151 C208,149.895431 208.895431,149 210,149 Z" id="Rectangle" fill="#FFFFFF"></path>
            <g id="input-style1" transform="translate(224.000000, 446.000000)">
                <rect id="矩形备份" fill="#FAFAFA" opacity="0.01" x="0" y="0" width="241" height="320"></rect>
                <g id="编组-21" transform="translate(32.000000, 150.000000)">
                    <g id="编组-10备份-18">
                        <rect id="矩形备份-4" stroke="#FD6868" fill="#FFF2F2" x="0.5" y="0.5" width="176" height="25" rx="2"></rect>
                        <text id="Error-text" font-family="PingFangSC-Regular, PingFang SC" font-size="12" font-weight="normal" fill="#BFC3D0">
                            <tspan x="8" y="18">Error text</tspan>
                        </text>
                    </g>
                    <text id="Error-waring-text" font-family="PingFangSC-Regular, PingFang SC" font-size="12" font-weight="normal" fill="#FD6868">
                        <tspan x="0" y="41">Error waring text</tspan>
                    </text>
                </g>
                <g id="编组-10备份-16" transform="translate(32.000000, 90.000000)">
                    <rect id="矩形备份-4" stroke="#B8D7FF" fill="#EFF6FF" x="0.5" y="0.5" width="176" height="25" rx="2"></rect>
                    <text id="Enter-something" font-family="PingFangSC-Medium, PingFang SC" font-size="12" font-weight="400" fill="#333333">
                        <tspan x="8" y="18">Enter something</tspan>
                    </text>
                </g>
                <g id="编组-10备份-29" transform="translate(32.000000, 60.000000)">
                    <rect id="矩形备份-4" stroke-opacity="0.15" stroke="#000000" fill="#FFFFFF" x="0.5" y="0.5" width="176" height="25" rx="2"></rect>
                    <text id="Error-text" font-family="PingFangSC-Regular, PingFang SC" font-size="12" font-weight="normal" fill="#BFC3D0">
                        <tspan x="8" y="18">Error text</tspan>
                    </text>
                </g>
                <g id="编组-10备份-13" transform="translate(32.000000, 120.000000)">
                    <rect id="矩形备份-4" stroke="#E7EAED" fill="#F8F8F8" x="0.5" y="0.5" width="176" height="25" rx="2"></rect>
                    <text id="Enter-something" font-family="PingFangSC-Regular, PingFang SC" font-size="12" font-weight="normal" fill="#8790A6">
                        <tspan x="8" y="18">Enter something</tspan>
                    </text>
                </g>
                <g id="编组-51备份" transform="translate(113.000000, 127.000000)">
                    <g id="路径-5" transform="translate(9.492186, 8.002138) rotate(4.000000) translate(-9.492186, -8.002138) ">
                        <use fill="black" fill-opacity="1" filter="url(#filter-2)" xlink:href="#path-1"></use>
                        <use stroke="#FFFFFF" stroke-width="1" fill="#000000" fill-rule="evenodd" xlink:href="#path-1"></use>
                    </g>
                    <g id="椭圆形" fill-rule="nonzero" transform="translate(14.416558, 21.625365) rotate(-45.000000) translate(-14.416558, -21.625365) ">
                        <use fill="black" fill-opacity="1" filter="url(#filter-5)" xlink:href="#path-4"></use>
                        <use fill="url(#linearGradient-3)" xlink:href="#path-4"></use>
                    </g>
                </g>
                <text id="Title" font-family="PingFangSC-Regular, PingFang SC" font-size="12" font-weight="normal" fill="#4A5C90">
                    <tspan x="32" y="52">Title</tspan>
                </text>
                <text id="style-1" font-family="PingFangSC-Medium, PingFang SC" font-size="12" font-weight="400" fill="#6A6A6A">
                    <tspan x="12" y="25">style 1</tspan>
                </text>
                <text id="style-1" font-family="PingFangSC-Medium, PingFang SC" font-size="12" font-weight="400" fill="#6A6A6A">
                    <tspan x="12" y="239">style 1</tspan>
                </text>
                <rect id="矩形" fill="#F1F1F1" x="20" y="215" width="201" height="1"></rect>
                <text id="Title" font-family="PingFangSC-Regular, PingFang SC" font-size="12" font-weight="normal" fill="#4A5C90">
                    <tspan x="32" y="272">Title</tspan>
                </text>
                <text id="Enter-something" font-family="PingFangSC-Medium, PingFang SC" font-size="12" font-weight="400" fill="#333333">
                    <tspan x="32" y="295">Enter something</tspan>
                </text>
            </g>
        </g>
    </g>
</svg>