<?xml version="1.0" encoding="UTF-8"?>
<svg width="494px" height="77px" viewBox="0 0 494 77" version="1.1" xmlns="http://www.w3.org/2000/svg" xmlns:xlink="http://www.w3.org/1999/xlink">
    <!-- Generator: Sketch 59 (86127) - https://sketch.com -->
    <title>7-checkbox</title>
    <desc>Created with Sketch.</desc>
    <g id="页面-1" stroke="none" stroke-width="1" fill="none" fill-rule="evenodd">
        <g id="一诺合同-配置组件-英文" transform="translate(-224.000000, -3056.000000)">
            <rect fill="#F6F6F6" x="0" y="0" width="1440" height="9290"></rect>
            <path d="M210,149 L1430,149 C1431.10457,149 1432,149.895431 1432,151 L1432,8635.15678 L1432,8635.15678 L1432,9272 C1432,9273.10457 1431.10457,9274 1430,9274 L210,9274 C208.895431,9274 208,9273.10457 208,9272 L208,151 C208,149.895431 208.895431,149 210,149 Z" id="Rectangle" fill="#FFFFFF"></path>
            <g id="编组-5备份" transform="translate(224.000000, 3056.000000)">
                <rect id="矩形" fill-opacity="0.01" fill="#FAFAFA" x="0" y="0" width="494" height="77"></rect>
                <g id="编组-19" transform="translate(52.000000, 17.000000)">
                    <text id="Title" font-family="PingFangSC-Regular, PingFang SC" font-size="12" font-weight="normal" fill="#525A6E">
                        <tspan x="0" y="13">Title</tspan>
                    </text>
                    <text id="checked" font-family="PingFangSC-Regular, PingFang SC" font-size="12" font-weight="normal" fill="#525A6E">
                        <tspan x="20" y="39">checked</tspan>
                    </text>
                    <g id="checked-" transform="translate(0.000000, 28.000000)">
                        <g id="icon/z/checkboxChecked-Copy备份" fill="#3889FF" fill-rule="nonzero">
                            <rect id="box" x="0" y="0" width="14" height="14" rx="2"></rect>
                        </g>
                        <g id="check备份" transform="translate(2.625000, 2.625000)">
                            <rect id="Rectangle" fill="#618FE8" opacity="0" x="0" y="0" width="8.75" height="8.75"></rect>
                            <path d="M8.28125,1.23046875 L7.59863281,1.23046875 C7.50292969,1.23046875 7.41210938,1.27441406 7.35351563,1.34960938 L3.32714844,6.45019531 L1.39648438,4.00390625 C1.33691406,3.92871094 1.24707031,3.88476562 1.15136719,3.88476562 L0.46875,3.88476562 C0.403320313,3.88476562 0.3671875,3.95996094 0.407226563,4.01074219 L3.08203125,7.39941406 C3.20703125,7.55761719 3.44726563,7.55761719 3.57324219,7.39941406 L8.34277344,1.35546875 C8.3828125,1.30566406 8.34667969,1.23046875 8.28125,1.23046875 Z" id="Path" stroke="#FFFFFF" stroke-width="0.833333333" fill="#FFFFFF"></path>
                        </g>
                    </g>
                    <rect id="outline备份" stroke="#DBDFE6" fill="#FFFFFF" fill-rule="nonzero" x="83.5" y="28.5" width="13" height="13" rx="2"></rect>
                    <text id="disabled" font-family="PingFangSC-Regular, PingFang SC" font-size="12" font-weight="normal" fill="#AAADBA">
                        <tspan x="199" y="39">disabled</tspan>
                    </text>
                    <rect id="Not-selectable" stroke="#E7EAED" fill="#F8F8F8" x="179.5" y="28.5" width="13" height="13" rx="2"></rect>
                    <text id="unchecked" font-family="PingFangSC-Regular, PingFang SC" font-size="12" font-weight="normal" fill="#525A6E">
                        <tspan x="103" y="39">unchecked</tspan>
                    </text>
                </g>
                <text id="style" font-family="MicrosoftYaHei, Microsoft YaHei" font-size="12" font-weight="normal" line-spacing="22" fill="#525A6E">
                    <tspan x="8" y="41">style</tspan>
                </text>
            </g>
        </g>
    </g>
</svg>