<?xml version="1.0" encoding="UTF-8"?>
<svg width="494px" height="68px" viewBox="0 0 494 68" version="1.1" xmlns="http://www.w3.org/2000/svg" xmlns:xlink="http://www.w3.org/1999/xlink">
    <!-- Generator: Sketch 58 (84663) - https://sketch.com -->
    <title>date-selection/style2</title>
    <desc>Created with Sketch.</desc>
    <g id="页面-1" stroke="none" stroke-width="1" fill="none" fill-rule="evenodd">
        <g id="date-selection/style2">
            <rect id="矩形" fill-opacity="0.01" fill="#F6F6F6" x="0" y="0" width="494" height="68"></rect>
            <g id="编组-30" transform="translate(8.000000, 32.000000)">
                <rect id="矩形" stroke-opacity="0.15" stroke="#000000" fill="#FFFFFF" x="0.5" y="0.5" width="275" height="27" rx="2"></rect>
                <g id="编组-2" transform="translate(256.000000, 9.000000)" stroke="#333333">
                    <rect id="矩形" x="0.5" y="1.5" width="9" height="8" rx="1"></rect>
                    <rect id="矩形" fill="#D8D8D8" x="3.5" y="0.5" width="1" height="2" rx="0.5"></rect>
                    <rect id="矩形" fill="#D8D8D8" x="6.5" y="0.5" width="1" height="2" rx="0.5"></rect>
                    <rect id="矩形" fill="#D8D8D8" x="0.5" y="4.5" width="9" height="1"></rect>
                    <rect id="矩形" fill="#D8D8D8" x="2.5" y="6.5" width="1" height="1" rx="0.5"></rect>
                    <rect id="矩形" fill="#D8D8D8" x="6.5" y="7.5" width="1" height="1" rx="0.5"></rect>
                </g>
                <path d="M14.3105469,19 L9.10742188,19 L9.10742188,18.0097656 L11.140625,18.0097656 L11.140625,11.1191406 L9.0546875,11.7226562 L9.0546875,10.6679688 L12.2832031,9.73046875 L12.2832031,18.0097656 L14.3105469,18.0097656 L14.3105469,19 Z M21.1777344,19 L15.6582031,19 L15.6582031,18.0039062 L18.2949219,15.3730469 C19.021488,14.6464807 19.5078113,14.0712912 19.7539062,13.6474609 C20.0000012,13.2236307 20.1230469,12.7851585 20.1230469,12.3320312 C20.1230469,11.8164037 19.9785171,11.4208998 19.6894531,11.1455078 C19.4003892,10.8701158 18.9824246,10.7324219 18.4355469,10.7324219 C17.6269491,10.7324219 16.8554724,11.0761684 16.1210938,11.7636719 L16.1210938,10.5976562 C16.8359411,10.0468722 17.667964,9.77148438 18.6171875,9.77148438 C19.4335978,9.77148438 20.0781226,9.99218529 20.5507812,10.4335938 C21.0234399,10.8750022 21.2597656,11.4687463 21.2597656,12.2148438 C21.2597656,12.7773466 21.1084,13.3290989 20.8056641,13.8701172 C20.5029282,14.4111355 19.9296917,15.0996052 19.0859375,15.9355469 L17.0175781,17.9570312 L17.0175781,17.9804688 L21.1777344,17.9804688 L21.1777344,19 Z M22.7714844,13.1230469 C22.7714844,12.9121083 22.8457024,12.7363288 22.9941406,12.5957031 C23.1425789,12.4550774 23.3203115,12.3847656 23.5273438,12.3847656 C23.7382823,12.3847656 23.917968,12.456054 24.0664062,12.5986328 C24.2148445,12.7412117 24.2890625,12.9160146 24.2890625,13.1230469 C24.2890625,13.3300792 24.2167976,13.5058587 24.0722656,13.6503906 C23.9277337,13.7949226 23.7441417,13.8671875 23.5214844,13.8671875 C23.3105458,13.8671875 23.1328132,13.7949226 22.9882812,13.6503906 C22.8437493,13.5058587 22.7714844,13.3300792 22.7714844,13.1230469 Z M22.7714844,18.3964844 C22.7714844,18.1855458 22.8437493,18.0078132 22.9882812,17.8632812 C23.1328132,17.7187493 23.3124989,17.6464844 23.5273438,17.6464844 C23.7460948,17.6464844 23.9277337,17.7197258 24.0722656,17.8662109 C24.2167976,18.012696 24.2890625,18.1894521 24.2890625,18.3964844 C24.2890625,18.5996104 24.2167976,18.7744133 24.0722656,18.9208984 C23.9277337,19.0673835 23.7441417,19.140625 23.5214844,19.140625 C23.3066396,19.140625 23.1279304,19.0673835 22.9853516,18.9208984 C22.8427727,18.7744133 22.7714844,18.5996104 22.7714844,18.3964844 Z M31.1035156,19 L25.5839844,19 L25.5839844,18.0039062 L28.2207031,15.3730469 C28.9472693,14.6464807 29.4335925,14.0712912 29.6796875,13.6474609 C29.9257825,13.2236307 30.0488281,12.7851585 30.0488281,12.3320312 C30.0488281,11.8164037 29.9042983,11.4208998 29.6152344,11.1455078 C29.3261704,10.8701158 28.9082059,10.7324219 28.3613281,10.7324219 C27.5527303,10.7324219 26.7812537,11.0761684 26.046875,11.7636719 L26.046875,10.5976562 C26.7617223,10.0468722 27.5937453,9.77148438 28.5429688,9.77148438 C29.3593791,9.77148438 30.0039039,9.99218529 30.4765625,10.4335938 C30.9492211,10.8750022 31.1855469,11.4687463 31.1855469,12.2148438 C31.1855469,12.7773466 31.0341812,13.3290989 30.7314453,13.8701172 C30.4287094,14.4111355 29.855473,15.0996052 29.0117188,15.9355469 L26.9433594,17.9570312 L26.9433594,17.9804688 L31.1035156,17.9804688 L31.1035156,19 Z M32.8378906,17.4824219 C33.4589875,17.962893 34.1601523,18.203125 34.9414062,18.203125 C35.5664094,18.203125 36.0615216,18.0498062 36.4267578,17.7431641 C36.791994,17.4365219 36.9746094,17.0253932 36.9746094,16.5097656 C36.9746094,15.3613224 36.152352,14.7871094 34.5078125,14.7871094 L33.7519531,14.7871094 L33.7519531,13.8378906 L34.4726562,13.8378906 C35.9296948,13.8378906 36.6582031,13.2988335 36.6582031,12.2207031 C36.6582031,11.2246044 36.1015681,10.7265625 34.9882812,10.7265625 C34.3515593,10.7265625 33.7519559,10.9414041 33.1894531,11.3710938 L33.1894531,10.2871094 C33.7832061,9.94335766 34.4765585,9.77148438 35.2695312,9.77148438 C36.0429726,9.77148438 36.6640602,9.97363079 37.1328125,10.3779297 C37.6015648,10.7822286 37.8359375,11.3066374 37.8359375,11.9511719 C37.8359375,13.1386778 37.2304748,13.9023421 36.0195312,14.2421875 L36.0195312,14.265625 C36.6757845,14.3359379 37.194334,14.5673808 37.5751953,14.9599609 C37.9560566,15.352541 38.1464844,15.8417939 38.1464844,16.4277344 C38.1464844,17.2441447 37.852542,17.9023412 37.2646484,18.4023438 C36.6767549,18.9023463 35.8945361,19.1523438 34.9179688,19.1523438 C34.0585895,19.1523438 33.365237,18.9921891 32.8378906,18.671875 L32.8378906,17.4824219 Z M39.734375,13.1230469 C39.734375,12.9121083 39.808593,12.7363288 39.9570312,12.5957031 C40.1054695,12.4550774 40.2832021,12.3847656 40.4902344,12.3847656 C40.7011729,12.3847656 40.8808586,12.456054 41.0292969,12.5986328 C41.1777351,12.7412117 41.2519531,12.9160146 41.2519531,13.1230469 C41.2519531,13.3300792 41.1796882,13.5058587 41.0351562,13.6503906 C40.8906243,13.7949226 40.7070324,13.8671875 40.484375,13.8671875 C40.2734364,13.8671875 40.0957038,13.7949226 39.9511719,13.6503906 C39.8066399,13.5058587 39.734375,13.3300792 39.734375,13.1230469 Z M39.734375,18.3964844 C39.734375,18.1855458 39.8066399,18.0078132 39.9511719,17.8632812 C40.0957038,17.7187493 40.2753896,17.6464844 40.4902344,17.6464844 C40.7089855,17.6464844 40.8906243,17.7197258 41.0351562,17.8662109 C41.1796882,18.012696 41.2519531,18.1894521 41.2519531,18.3964844 C41.2519531,18.5996104 41.1796882,18.7744133 41.0351562,18.9208984 C40.8906243,19.0673835 40.7070324,19.140625 40.484375,19.140625 C40.2695302,19.140625 40.090821,19.0673835 39.9482422,18.9208984 C39.8056633,18.7744133 39.734375,18.5996104 39.734375,18.3964844 Z M48.5351562,16.6445312 L47.375,16.6445312 L47.375,19 L46.2617188,19 L46.2617188,16.6445312 L42.03125,16.6445312 L42.03125,15.9003906 L46.0449219,9.92382812 L47.375,9.92382812 L47.375,15.7363281 L48.5351562,15.7363281 L48.5351562,16.6445312 Z M46.2617188,15.7363281 L46.2617188,11.9335938 L46.2675781,11.4985353 C46.2714843,11.3432623 46.2773437,11.1777353 46.2851562,11.0019531 L46.2617188,11.0019531 C46.207031,11.1503914 46.0917978,11.3828109 45.9160156,11.6992188 L43.2148438,15.7363281 L46.2617188,15.7363281 Z M49.8007812,17.4824219 C50.4218781,17.962893 51.123043,18.203125 51.9042969,18.203125 C52.5293,18.203125 53.0244122,18.0498062 53.3896484,17.7431641 C53.7548846,17.4365219 53.9375,17.0253932 53.9375,16.5097656 C53.9375,15.3613224 53.1152426,14.7871094 51.4707031,14.7871094 L50.7148438,14.7871094 L50.7148438,13.8378906 L51.4355469,13.8378906 C52.8925854,13.8378906 53.6210938,13.2988335 53.6210938,12.2207031 C53.6210938,11.2246044 53.0644587,10.7265625 51.9511719,10.7265625 C51.3144499,10.7265625 50.7148466,10.9414041 50.1523438,11.3710938 L50.1523438,10.2871094 C50.7460967,9.94335766 51.4394492,9.77148438 52.2324219,9.77148438 C53.0058632,9.77148438 53.6269508,9.97363079 54.0957031,10.3779297 C54.5644555,10.7822286 54.7988281,11.3066374 54.7988281,11.9511719 C54.7988281,13.1386778 54.1933654,13.9023421 52.9824219,14.2421875 L52.9824219,14.265625 C53.6386752,14.3359379 54.1572247,14.5673808 54.5380859,14.9599609 C54.9189472,15.352541 55.109375,15.8417939 55.109375,16.4277344 C55.109375,17.2441447 54.8154326,17.9023412 54.2275391,18.4023438 C53.6396455,18.9023463 52.8574268,19.1523438 51.8808594,19.1523438 C51.0214801,19.1523438 50.3281276,18.9921891 49.8007812,18.671875 L49.8007812,17.4824219 Z" id="12:23:43" fill="#333333" fill-rule="nonzero"></path>
            </g>
            <text id="样式二" font-family="MicrosoftYaHei, Microsoft YaHei" font-size="12" font-weight="normal" line-spacing="22" fill="#525A6E">
                <tspan x="8" y="19">样式二</tspan>
            </text>
        </g>
    </g>
</svg>