<?xml version="1.0" encoding="UTF-8"?>
<svg width="494px" height="64px" viewBox="0 0 494 64" version="1.1" xmlns="http://www.w3.org/2000/svg" xmlns:xlink="http://www.w3.org/1999/xlink">
    <!-- Generator: Sketch 59 (86127) - https://sketch.com -->
    <title>15-Tab-style2</title>
    <desc>Created with Sketch.</desc>
    <g id="页面-1" stroke="none" stroke-width="1" fill="none" fill-rule="evenodd">
        <g id="一诺合同-配置组件-英文" transform="translate(-224.000000, -7351.000000)">
            <rect fill="#F6F6F6" x="0" y="0" width="1440" height="9290"></rect>
            <path d="M210,149 L1430,149 C1431.10457,149 1432,149.895431 1432,151 L1432,8635.15678 L1432,8635.15678 L1432,9272 C1432,9273.10457 1431.10457,9274 1430,9274 L210,9274 C208.895431,9274 208,9273.10457 208,9272 L208,151 C208,149.895431 208.895431,149 210,149 Z" id="Rectangle" fill="#FFFFFF"></path>
            <g id="tab/style1" transform="translate(224.000000, 7351.000000)">
                <rect id="矩形" fill-opacity="0.01" fill="#FFFFFF" x="0" y="0" width="494" height="64"></rect>
                <g id="编组-23" transform="translate(64.000000, 20.000000)">
                    <text id="Tab1" font-family="PingFangSC-Medium, PingFang SC" font-size="12" font-weight="400" fill="#3889FF">
                        <tspan x="13.354" y="13">Tab1</tspan>
                    </text>
                    <rect id="Rectangle" fill="#F1F1F1" x="0" y="23" width="430" height="1"></rect>
                    <rect id="Rectangle" fill="#3889FF" x="21" y="22" width="12" height="2" rx="1"></rect>
                    <text id="Tab2" font-family="PingFangSC-Regular, PingFang SC" font-size="12" font-weight="normal" fill="#5A6677">
                        <tspan x="73" y="13">Tab2</tspan>
                    </text>
                    <text id="Tab3" font-family="PingFangSC-Regular, PingFang SC" font-size="12" font-weight="normal" fill="#5A6677">
                        <tspan x="137" y="13">Tab3</tspan>
                    </text>
                </g>
                <text id="style" font-family="MicrosoftYaHei, Microsoft YaHei" font-size="12" font-weight="normal" line-spacing="22" fill="#525A6E">
                    <tspan x="8" y="27">style</tspan>
                </text>
            </g>
        </g>
    </g>
</svg>