<?xml version="1.0" encoding="UTF-8"?>
<svg width="241px" height="68px" viewBox="0 0 241 68" version="1.1" xmlns="http://www.w3.org/2000/svg" xmlns:xlink="http://www.w3.org/1999/xlink">
    <!-- Generator: Sketch 58 (84663) - https://sketch.com -->
    <title>icon-selection/style1</title>
    <desc>Created with Sketch.</desc>
    <g id="页面-1" stroke="none" stroke-width="1" fill="none" fill-rule="evenodd">
        <g id="配置组件V10分页1" transform="translate(-224.000000, -2289.000000)">
            <g id="编组-46备份" transform="translate(224.000000, 1841.000000)">
                <g id="icon-selection/style1" transform="translate(0.000000, 448.000000)">
                    <rect id="矩形备份-27" fill-opacity="0.01" fill="#FAFAFA" x="0" y="0" width="241" height="68"></rect>
                    <g id="style1" transform="translate(12.000000, 22.000000)" fill="#525A6E" font-family="ArialMT, Arial" font-size="12" font-weight="normal">
                        <text>
                            <tspan x="0.65234375" y="15">style1</tspan>
                        </text>
                    </g>
                    <g id="编组-12" transform="translate(52.000000, 20.000000)">
                        <g id="Select/Medium/Placeholder备份-4" fill="#FFFFFF" stroke="#D9D9D9">
                            <path d="M0.5,27.5 L176.5,27.5 L176.5,1.99124431 C176.5,1.17347817 175.824507,0.5 174.996987,0.5 L2.00301269,0.5 C1.16770389,0.5 0.5,1.1654794 0.5,1.99124431 L0.5,27.5 Z" id="Rectangle-26-Copy-23"></path>
                        </g>
                        <rect id="矩形" stroke="#D9D9D9" fill="#FFFFFF" x="0.5" y="0.5" width="176" height="27" rx="2"></rect>
                        <g id="selected-icon" transform="translate(159.000000, 9.000000)">
                            <rect id="矩形" fill="#FFFFFF" fill-rule="nonzero" opacity="0.01" x="0" y="0" width="10" height="10"></rect>
                            <g id="编组-29" transform="translate(0.695300, 0.713124)" stroke="#333333">
                                <path d="M0.334766477,2.26610592 L4.2802022,0.0560845859 C4.34221047,0.0213508819 4.41799394,0.0221346896 4.47927054,0.0581434952 L8.24032268,2.26830201 C8.33555392,2.32426405 8.3673879,2.44683041 8.31142586,2.54206165 C8.29203939,2.57505184 8.26359596,2.60178824 8.22947053,2.61909844 L4.46867637,4.52677008 C4.4130045,4.55500977 4.34733972,4.55563552 4.2911398,4.52846192 L0.345446091,2.62065309 C0.246003438,2.57257091 0.204367551,2.4529784 0.252449735,2.35353574 C0.270285278,2.31664861 0.299019729,2.28612933 0.334766477,2.26610592 Z" id="路径-3"></path>
                                <polyline id="路径-4" stroke-linecap="round" stroke-linejoin="round" points="-9.09494702e-13 4.5 4.3838823 6.60977997 8.55568747 4.5"></polyline>
                                <polyline id="路径-4" stroke-linecap="round" stroke-linejoin="round" points="-9.09494702e-13 6.5 4.3838823 8.60977997 8.55568747 6.5"></polyline>
                            </g>
                        </g>
                    </g>
                </g>
            </g>
        </g>
    </g>
</svg>