<?xml version="1.0" encoding="UTF-8"?>
<svg width="494px" height="68px" viewBox="0 0 494 68" version="1.1" xmlns="http://www.w3.org/2000/svg" xmlns:xlink="http://www.w3.org/1999/xlink">
    <!-- Generator: Sketch 58 (84663) - https://sketch.com -->
    <title>password-input/style2</title>
    <desc>Created with Sketch.</desc>
    <g id="页面-1" stroke="none" stroke-width="1" fill="none" fill-rule="evenodd">
        <g id="配置组件V10分页1" transform="translate(-730.000000, -967.000000)">
            <g id="编组-36备份" transform="translate(224.000000, 517.000000)">
                <g id="password-input/style2" transform="translate(506.000000, 450.000000)">
                    <rect id="矩形备份" fill-opacity="0.01" fill="#F6F6F6" x="0" y="0" width="494" height="68"></rect>
                    <rect id="矩形备份-4" stroke-opacity="0.15" stroke="#000000" fill="#FFFFFF" x="8.5" y="32.5" width="219" height="27" rx="2"></rect>
                    <rect id="矩形备份-9" stroke-opacity="0.15" stroke="#000000" fill="#FFFFFF" x="240.5" y="32.5" width="219" height="27" rx="2"></rect>
                    <g id="eye" transform="translate(442.000000, 41.000000)">
                        <rect id="矩形" fill="#D8D8D8" opacity="0.01" x="0" y="0" width="10" height="10"></rect>
                        <path d="M5,2 C6.84094917,2 8.50761583,3 10,5 C8.50761583,7 6.84094917,8 5,8 C3.15905083,8 1.49321344,6.968151 0.0024878047,4.90445299 C1.52873372,2.968151 3.19457112,2 5,2 Z M5,3 C3.8954305,3 3,3.8954305 3,5 C3,6.1045695 3.8954305,7 5,7 C6.1045695,7 7,6.1045695 7,5 C7,3.8954305 6.1045695,3 5,3 Z M5,4 C5.55228475,4 6,4.44771525 6,5 C6,5.55228475 5.55228475,6 5,6 C4.44771525,6 4,5.55228475 4,5 C4,4.44771525 4.44771525,4 5,4 Z" id="椭圆形-2" fill="#333333"></path>
                    </g>
                    <text id="mima1234" font-family="ArialMT, Arial" font-size="12" font-weight="normal" fill="#333333">
                        <tspan x="248" y="50">mima1234</tspan>
                    </text>
                    <g id="noeye" transform="translate(210.000000, 41.000000)">
                        <rect id="矩形备份-6" fill="#D8D8D8" opacity="0.01" x="0" y="0" width="10" height="10"></rect>
                        <path d="M1.53775278,0.972453964 L1.60767966,1.02948689 L3.02153344,2.41111138 C3.02186796,2.41096806 3.02220248,2.41082479 3.02253701,2.41068155 L3.93855138,3.30459791 L3.9374878,3.30519423 L4.69816181,4.04635953 C4.79339971,4.01624364 4.8948029,4 5,4 C5.55228475,4 6,4.44771525 6,5 C6,5.09679594 5.98624723,5.19037975 5.9605891,5.27890402 L6.71979967,6.0215323 L6.8034878,6.10319423 L9.33178806,8.57312355 C9.50739378,8.74462629 9.52986208,9.01380393 9.39717873,9.21025406 L9.34014581,9.28018094 C9.16864307,9.45578666 8.89946543,9.47825496 8.7030153,9.34557161 L8.63308842,9.28853868 L6.91701142,7.61264766 C6.91667716,7.61278768 6.91634289,7.61292765 6.91600861,7.61306759 L6.0094383,6.72694137 L6.0094878,6.72619423 L5.2374589,5.97163656 C5.16134485,5.9901736 5.08181996,6 5,6 C4.44771525,6 4,5.55228475 4,5 C4,4.92668787 4.0078891,4.85521833 4.02286467,4.78639402 L3.24985201,4.03126494 L2.2324878,3.03719423 L0.908980015,1.74490202 C0.733374297,1.57339928 0.710905996,1.30422164 0.843589348,1.10777151 L0.900622272,1.03784463 C1.07212501,0.862238912 1.34130265,0.839770612 1.53775278,0.972453964 Z M1.68773672,3.20293687 L3.05356958,4.53824108 C3.01853797,4.68646805 3,4.84106914 3,5 C3,6.1045695 3.8954305,7 5,7 C5.17536834,7 5.34546497,6.97742914 5.50754337,6.93503393 L6.39220015,7.7996862 C5.9397705,7.93322873 5.47570378,8 5,8 C3.15905083,8 1.49321344,6.968151 0.0024878047,4.90445299 C0.546502447,4.21427808 1.10825209,3.64710604 1.68773672,3.20293687 Z M5,2 C6.84094917,2 8.50761583,3 10,5 C9.44247012,5.7471667 8.86061659,6.35476888 8.25443941,6.82280654 L6.92955978,5.5280239 C6.97548353,5.35981486 7,5.18277049 7,5 C7,3.8954305 6.1045695,3 5,3 C4.80060369,3 4.60802265,3.02917965 4.42629408,3.08350174 L3.54164227,2.21981832 C4.01719678,2.07327277 4.50331602,2 5,2 Z" id="椭圆形-2备份" fill="#333333"></path>
                    </g>
                    <g id="编组-11" transform="translate(16.000000, 43.000000)" fill="#333333">
                        <circle id="椭圆形" cx="3" cy="3" r="3"></circle>
                        <circle id="椭圆形" cx="17" cy="3" r="3"></circle>
                        <circle id="椭圆形" cx="31" cy="3" r="3"></circle>
                        <circle id="椭圆形" cx="45" cy="3" r="3"></circle>
                        <circle id="椭圆形" cx="59" cy="3" r="3"></circle>
                        <circle id="椭圆形" cx="73" cy="3" r="3"></circle>
                        <circle id="椭圆形" cx="87" cy="3" r="3"></circle>
                        <circle id="椭圆形" cx="101" cy="3" r="3"></circle>
                    </g>
                    <g id="style1" transform="translate(8.000000, 6.000000)" fill="#525A6E" font-family="ArialMT, Arial" font-size="12" font-weight="normal">
                        <text>
                            <tspan x="0.65234375" y="15">style2</tspan>
                        </text>
                    </g>
                    <g id="style1" transform="translate(240.000000, 6.000000)" fill="#525A6E" font-family="ArialMT, Arial" font-size="12" font-weight="normal">
                        <text>
                            <tspan x="0.65234375" y="15">style2</tspan>
                        </text>
                    </g>
                </g>
            </g>
        </g>
    </g>
</svg>