<?xml version="1.0" encoding="UTF-8"?>
<svg width="494px" height="68px" viewBox="0 0 494 68" version="1.1" xmlns="http://www.w3.org/2000/svg" xmlns:xlink="http://www.w3.org/1999/xlink">
    <!-- Generator: Sketch 58 (84663) - https://sketch.com -->
    <title>date-selection/style3</title>
    <desc>Created with Sketch.</desc>
    <g id="页面-1" stroke="none" stroke-width="1" fill="none" fill-rule="evenodd">
        <g id="date-selection/style3">
            <rect id="矩形" fill-opacity="0.01" fill="#F6F6F6" x="0" y="0" width="494" height="68"></rect>
            <g id="编组-13" transform="translate(53.000000, 18.000000)">
                <rect id="矩形备份-12" fill="#D9D9D9" x="0" y="24" width="276" height="1"></rect>
                <path d="M6.31054688,15 L1.10742188,15 L1.10742188,14.0097656 L3.140625,14.0097656 L3.140625,7.11914062 L1.0546875,7.72265625 L1.0546875,6.66796875 L4.28320312,5.73046875 L4.28320312,14.0097656 L6.31054688,14.0097656 L6.31054688,15 Z M13.1777344,15 L7.65820312,15 L7.65820312,14.0039062 L10.2949219,11.3730469 C11.021488,10.6464807 11.5078113,10.0712912 11.7539062,9.64746094 C12.0000012,9.22363069 12.1230469,8.78515852 12.1230469,8.33203125 C12.1230469,7.81640367 11.9785171,7.42089981 11.6894531,7.14550781 C11.4003892,6.87011581 10.9824246,6.73242188 10.4355469,6.73242188 C9.62694908,6.73242188 8.85547242,7.07616844 8.12109375,7.76367188 L8.12109375,6.59765625 C8.83594107,6.04687225 9.667964,5.77148438 10.6171875,5.77148438 C11.4335978,5.77148438 12.0781226,5.99218529 12.5507812,6.43359375 C13.0234399,6.87500221 13.2597656,7.46874627 13.2597656,8.21484375 C13.2597656,8.77734656 13.1084,9.32909886 12.8056641,9.87011719 C12.5029282,10.4111355 11.9296917,11.0996052 11.0859375,11.9355469 L9.01757812,13.9570312 L9.01757812,13.9804688 L13.1777344,13.9804688 L13.1777344,15 Z M14.7714844,9.12304688 C14.7714844,8.91210832 14.8457024,8.73632883 14.9941406,8.59570312 C15.1425789,8.45507742 15.3203115,8.38476562 15.5273438,8.38476562 C15.7382823,8.38476562 15.917968,8.45605397 16.0664062,8.59863281 C16.2148445,8.74121165 16.2890625,8.91601459 16.2890625,9.12304688 C16.2890625,9.33007916 16.2167976,9.50585865 16.0722656,9.65039062 C15.9277337,9.7949226 15.7441417,9.8671875 15.5214844,9.8671875 C15.3105458,9.8671875 15.1328132,9.7949226 14.9882812,9.65039062 C14.8437493,9.50585865 14.7714844,9.33007916 14.7714844,9.12304688 Z M14.7714844,14.3964844 C14.7714844,14.1855458 14.8437493,14.0078132 14.9882812,13.8632812 C15.1328132,13.7187493 15.3124989,13.6464844 15.5273438,13.6464844 C15.7460948,13.6464844 15.9277337,13.7197258 16.0722656,13.8662109 C16.2167976,14.012696 16.2890625,14.1894521 16.2890625,14.3964844 C16.2890625,14.5996104 16.2167976,14.7744133 16.0722656,14.9208984 C15.9277337,15.0673835 15.7441417,15.140625 15.5214844,15.140625 C15.3066396,15.140625 15.1279304,15.0673835 14.9853516,14.9208984 C14.8427727,14.7744133 14.7714844,14.5996104 14.7714844,14.3964844 Z M23.1035156,15 L17.5839844,15 L17.5839844,14.0039062 L20.2207031,11.3730469 C20.9472693,10.6464807 21.4335925,10.0712912 21.6796875,9.64746094 C21.9257825,9.22363069 22.0488281,8.78515852 22.0488281,8.33203125 C22.0488281,7.81640367 21.9042983,7.42089981 21.6152344,7.14550781 C21.3261704,6.87011581 20.9082059,6.73242188 20.3613281,6.73242188 C19.5527303,6.73242188 18.7812537,7.07616844 18.046875,7.76367188 L18.046875,6.59765625 C18.7617223,6.04687225 19.5937453,5.77148438 20.5429688,5.77148438 C21.3593791,5.77148438 22.0039039,5.99218529 22.4765625,6.43359375 C22.9492211,6.87500221 23.1855469,7.46874627 23.1855469,8.21484375 C23.1855469,8.77734656 23.0341812,9.32909886 22.7314453,9.87011719 C22.4287094,10.4111355 21.855473,11.0996052 21.0117188,11.9355469 L18.9433594,13.9570312 L18.9433594,13.9804688 L23.1035156,13.9804688 L23.1035156,15 Z M24.8378906,13.4824219 C25.4589875,13.962893 26.1601523,14.203125 26.9414062,14.203125 C27.5664094,14.203125 28.0615216,14.0498062 28.4267578,13.7431641 C28.791994,13.4365219 28.9746094,13.0253932 28.9746094,12.5097656 C28.9746094,11.3613224 28.152352,10.7871094 26.5078125,10.7871094 L25.7519531,10.7871094 L25.7519531,9.83789062 L26.4726562,9.83789062 C27.9296948,9.83789062 28.6582031,9.29883352 28.6582031,8.22070312 C28.6582031,7.22460439 28.1015681,6.7265625 26.9882812,6.7265625 C26.3515593,6.7265625 25.7519559,6.9414041 25.1894531,7.37109375 L25.1894531,6.28710938 C25.7832061,5.94335766 26.4765585,5.77148438 27.2695312,5.77148438 C28.0429726,5.77148438 28.6640602,5.97363079 29.1328125,6.37792969 C29.6015648,6.78222858 29.8359375,7.3066374 29.8359375,7.95117188 C29.8359375,9.13867781 29.2304748,9.90234205 28.0195312,10.2421875 L28.0195312,10.265625 C28.6757845,10.3359379 29.194334,10.5673808 29.5751953,10.9599609 C29.9560566,11.352541 30.1464844,11.8417939 30.1464844,12.4277344 C30.1464844,13.2441447 29.852542,13.9023412 29.2646484,14.4023438 C28.6767549,14.9023463 27.8945361,15.1523438 26.9179688,15.1523438 C26.0585895,15.1523438 25.365237,14.9921891 24.8378906,14.671875 L24.8378906,13.4824219 Z M31.734375,9.12304688 C31.734375,8.91210832 31.808593,8.73632883 31.9570312,8.59570312 C32.1054695,8.45507742 32.2832021,8.38476562 32.4902344,8.38476562 C32.7011729,8.38476562 32.8808586,8.45605397 33.0292969,8.59863281 C33.1777351,8.74121165 33.2519531,8.91601459 33.2519531,9.12304688 C33.2519531,9.33007916 33.1796882,9.50585865 33.0351562,9.65039062 C32.8906243,9.7949226 32.7070324,9.8671875 32.484375,9.8671875 C32.2734364,9.8671875 32.0957038,9.7949226 31.9511719,9.65039062 C31.8066399,9.50585865 31.734375,9.33007916 31.734375,9.12304688 Z M31.734375,14.3964844 C31.734375,14.1855458 31.8066399,14.0078132 31.9511719,13.8632812 C32.0957038,13.7187493 32.2753896,13.6464844 32.4902344,13.6464844 C32.7089855,13.6464844 32.8906243,13.7197258 33.0351562,13.8662109 C33.1796882,14.012696 33.2519531,14.1894521 33.2519531,14.3964844 C33.2519531,14.5996104 33.1796882,14.7744133 33.0351562,14.9208984 C32.8906243,15.0673835 32.7070324,15.140625 32.484375,15.140625 C32.2695302,15.140625 32.090821,15.0673835 31.9482422,14.9208984 C31.8056633,14.7744133 31.734375,14.5996104 31.734375,14.3964844 Z M40.5351562,12.6445312 L39.375,12.6445312 L39.375,15 L38.2617188,15 L38.2617188,12.6445312 L34.03125,12.6445312 L34.03125,11.9003906 L38.0449219,5.92382812 L39.375,5.92382812 L39.375,11.7363281 L40.5351562,11.7363281 L40.5351562,12.6445312 Z M38.2617188,11.7363281 L38.2617188,7.93359375 L38.2675781,7.49853531 C38.2714843,7.34326226 38.2773437,7.17773525 38.2851562,7.00195312 L38.2617188,7.00195312 C38.207031,7.15039137 38.0917978,7.38281092 37.9160156,7.69921875 L35.2148438,11.7363281 L38.2617188,11.7363281 Z M41.8007812,13.4824219 C42.4218781,13.962893 43.123043,14.203125 43.9042969,14.203125 C44.5293,14.203125 45.0244122,14.0498062 45.3896484,13.7431641 C45.7548846,13.4365219 45.9375,13.0253932 45.9375,12.5097656 C45.9375,11.3613224 45.1152426,10.7871094 43.4707031,10.7871094 L42.7148438,10.7871094 L42.7148438,9.83789062 L43.4355469,9.83789062 C44.8925854,9.83789062 45.6210938,9.29883352 45.6210938,8.22070312 C45.6210938,7.22460439 45.0644587,6.7265625 43.9511719,6.7265625 C43.3144499,6.7265625 42.7148466,6.9414041 42.1523438,7.37109375 L42.1523438,6.28710938 C42.7460967,5.94335766 43.4394492,5.77148438 44.2324219,5.77148438 C45.0058632,5.77148438 45.6269508,5.97363079 46.0957031,6.37792969 C46.5644555,6.78222858 46.7988281,7.3066374 46.7988281,7.95117188 C46.7988281,9.13867781 46.1933654,9.90234205 44.9824219,10.2421875 L44.9824219,10.265625 C45.6386752,10.3359379 46.1572247,10.5673808 46.5380859,10.9599609 C46.9189472,11.352541 47.109375,11.8417939 47.109375,12.4277344 C47.109375,13.2441447 46.8154326,13.9023412 46.2275391,14.4023438 C45.6396455,14.9023463 44.8574268,15.1523438 43.8808594,15.1523438 C43.0214801,15.1523438 42.3281276,14.9921891 41.8007812,14.671875 L41.8007812,13.4824219 Z" id="12:23:43" fill="#333333" fill-rule="nonzero"></path>
                <g id="编组-2" transform="translate(266.000000, 6.000000)" stroke="#333333">
                    <rect id="矩形" x="0.5" y="1.5" width="9" height="8" rx="1"></rect>
                    <rect id="矩形" fill="#D8D8D8" x="3.5" y="0.5" width="1" height="2" rx="0.5"></rect>
                    <rect id="矩形" fill="#D8D8D8" x="6.5" y="0.5" width="1" height="2" rx="0.5"></rect>
                    <rect id="矩形" fill="#D8D8D8" x="0.5" y="4.5" width="9" height="1"></rect>
                    <rect id="矩形" fill="#D8D8D8" x="2.5" y="6.5" width="1" height="1" rx="0.5"></rect>
                    <rect id="矩形" fill="#D8D8D8" x="6.5" y="7.5" width="1" height="1" rx="0.5"></rect>
                </g>
            </g>
            <text id="样式三" font-family="MicrosoftYaHei, Microsoft YaHei" font-size="12" font-weight="normal" line-spacing="22" fill="#525A6E">
                <tspan x="8" y="36">样式三</tspan>
            </text>
        </g>
    </g>
</svg>