<?xml version="1.0" encoding="UTF-8"?>
<svg width="241px" height="86px" viewBox="0 0 241 86" version="1.1" xmlns="http://www.w3.org/2000/svg" xmlns:xlink="http://www.w3.org/1999/xlink">
    <!-- Generator: Sketch 59 (86127) - https://sketch.com -->
    <title>3-Selection1-style5</title>
    <desc>Created with Sketch.</desc>
    <g id="页面-1" stroke="none" stroke-width="1" fill="none" fill-rule="evenodd">
        <g id="一诺合同-配置组件2" transform="translate(-224.000000, -2109.000000)">
            <rect fill="#F6F6F6" x="0" y="0" width="1440" height="9873"></rect>
            <path d="M210,145 L1430,145 C1431.10457,145 1432,145.895431 1432,147 L1432,9184.5007 L1432,9184.5007 L1432,9863 C1432,9864.10457 1431.10457,9865 1430,9865 L210,9865 C208.895431,9865 208,9864.10457 208,9863 L208,147 C208,145.895431 208.895431,145 210,145 Z" id="Rectangle" fill="#FFFFFF"></path>
            <g id="input-style1备份-10" transform="translate(224.000000, 2109.000000)">
                <rect id="矩形备份" fill="#FAFAFA" opacity="0.01" x="0" y="0" width="241" height="86"></rect>
                <g id="编组-10备份-25" transform="translate(32.000000, 19.000000)">
                    <rect id="矩形备份-4" stroke-opacity="0.15" stroke="#000000" fill="#FFFFFF" x="0.5" y="21.5" width="176" height="25" rx="2"></rect>
                    <g id="selected-icon" transform="translate(161.000000, 29.000000)">
                        <rect id="矩形" fill="#FFFFFF" fill-rule="nonzero" opacity="0.01" x="0" y="0" width="10" height="10"></rect>
                        <g id="编组-29" transform="translate(0.695300, 0.713124)" stroke="#333333">
                            <path d="M0.334766477,2.26610592 L4.2802022,0.0560845859 C4.34221047,0.0213508819 4.41799394,0.0221346896 4.47927054,0.0581434952 L8.24032268,2.26830201 C8.33555392,2.32426405 8.3673879,2.44683041 8.31142586,2.54206165 C8.29203939,2.57505184 8.26359596,2.60178824 8.22947053,2.61909844 L4.46867637,4.52677008 C4.4130045,4.55500977 4.34733972,4.55563552 4.2911398,4.52846192 L0.345446091,2.62065309 C0.246003438,2.57257091 0.204367551,2.4529784 0.252449735,2.35353574 C0.270285278,2.31664861 0.299019729,2.28612933 0.334766477,2.26610592 Z" id="路径-3"></path>
                            <polyline id="路径-4" stroke-linecap="round" stroke-linejoin="round" points="-9.09494702e-13 4.5 4.3838823 6.60977997 8.55568747 4.5"></polyline>
                            <polyline id="路径-4" stroke-linecap="round" stroke-linejoin="round" points="-9.09494702e-13 6.5 4.3838823 8.60977997 8.55568747 6.5"></polyline>
                        </g>
                    </g>
                    <text id="样式一" font-family="PingFangSC-Regular, PingFang SC" font-size="12" font-weight="normal" fill="#4A5C90">
                        <tspan x="0" y="13">样式一</tspan>
                    </text>
                </g>
            </g>
        </g>
    </g>
</svg>