<?xml version="1.0" encoding="UTF-8"?>
<svg width="494px" height="308px" viewBox="0 0 494 308" version="1.1" xmlns="http://www.w3.org/2000/svg" xmlns:xlink="http://www.w3.org/1999/xlink">
    <!-- Generator: Sketch 59 (86127) - https://sketch.com -->
    <title>17-Feedback-style2</title>
    <desc>Created with Sketch.</desc>
    <defs>
        <path d="M0,2.00575017 C0,0.89800494 0.898259461,0 2.00078235,0 L347.999218,0 C349.104219,0 350,0.894920086 350,2.00575017 L350,225.99425 C350,227.101995 349.101741,228 347.999218,228 L2.00078235,228 C0.895780769,228 0,227.10508 0,225.99425 L0,2.00575017 Z" id="path-1"></path>
        <filter x="-5.7%" y="-7.0%" width="111.4%" height="117.5%" filterUnits="objectBoundingBox" id="filter-2">
            <feOffset dx="0" dy="4" in="SourceAlpha" result="shadowOffsetOuter1"></feOffset>
            <feGaussianBlur stdDeviation="6" in="shadowOffsetOuter1" result="shadowBlurOuter1"></feGaussianBlur>
            <feColorMatrix values="0 0 0 0 0   0 0 0 0 0   0 0 0 0 0  0 0 0 0.2 0" type="matrix" in="shadowBlurOuter1"></feColorMatrix>
        </filter>
    </defs>
    <g id="页面-1" stroke="none" stroke-width="1" fill="none" fill-rule="evenodd">
        <g id="一诺合同-配置组件-英文" transform="translate(-224.000000, -8171.000000)">
            <rect fill="#F6F6F6" x="0" y="0" width="1440" height="9290"></rect>
            <path d="M210,149 L1430,149 C1431.10457,149 1432,149.895431 1432,151 L1432,8635.15678 L1432,8635.15678 L1432,9272 C1432,9273.10457 1431.10457,9274 1430,9274 L210,9274 C208.895431,9274 208,9273.10457 208,9272 L208,151 C208,149.895431 208.895431,149 210,149 Z" id="Rectangle" fill="#FFFFFF"></path>
            <g id="编组-8备份-16" transform="translate(224.000000, 8171.000000)">
                <g id="编组-20">
                    <rect id="矩形备份" fill-opacity="0.3" fill="#000000" x="0" y="0" width="494" height="308"></rect>
                    <g id="LOV弹窗" transform="translate(72.000000, 40.000000)">
                        <g id="Modal/Default">
                            <g id="Rectangle-50-Copy">
                                <use fill="black" fill-opacity="1" filter="url(#filter-2)" xlink:href="#path-1"></use>
                                <use fill="#FFFFFF" fill-rule="evenodd" xlink:href="#path-1"></use>
                            </g>
                            <g id="close" transform="translate(312.000000, 19.000000)">
                                <rect id="矩形" fill="#D8D8D8" opacity="0.01" x="0" y="0" width="14" height="14"></rect>
                                <path d="M7.70710678,7 L11.9497475,11.2426407 C12.1450096,11.4379028 12.1450096,11.7544853 11.9497475,11.9497475 C11.7544853,12.1450096 11.4379028,12.1450096 11.2426407,11.9497475 L7,7.70710678 L2.75735931,11.9497475 C2.56209717,12.1450096 2.24551468,12.1450096 2.05025253,11.9497475 C1.85499039,11.7544853 1.85499039,11.4379028 2.05025253,11.2426407 L6.29289322,7 L2.05025253,2.75735931 C1.85499039,2.56209717 1.85499039,2.24551468 2.05025253,2.05025253 C2.24551468,1.85499039 2.56209717,1.85499039 2.75735931,2.05025253 L7,6.29289322 L11.2426407,2.05025253 C11.4379028,1.85499039 11.7544853,1.85499039 11.9497475,2.05025253 C12.1450096,2.24551468 12.1450096,2.56209717 11.9497475,2.75735931 L7.70710678,7 Z" id="路径" fill="#AAADBA"></path>
                            </g>
                            <g id="编组-8" transform="translate(50.000000, 92.000000)">
                                <g id="编组-33">
                                    <text id="There-are-dynamic-fi" font-family="PingFangSC-Regular, PingFang SC" font-size="14" font-weight="normal" line-spacing="22" fill="#333333">
                                        <tspan x="28" y="15">There are dynamic fields not filled</tspan>
                                    </text>
                                    <g id="error" transform="translate(0.000000, 1.000000)">
                                        <circle id="椭圆形" fill="#FD6868" cx="10" cy="10" r="10"></circle>
                                        <path d="M11,4 L11,9 L16,9 L16,11 L10.999,11 L11,16 L9,16 L8.999,11 L4,11 L4,9 L9,9 L9,4 L11,4 Z" id="矩形-5" fill="#FFFFFF" transform="translate(10.000000, 10.000000) rotate(-315.000000) translate(-10.000000, -10.000000) "></path>
                                    </g>
                                </g>
                            </g>
                            <text id="Title" font-family="PingFangSC-Medium, PingFang SC" font-size="14" font-weight="400" fill="#000000" fill-opacity="0.85">
                                <tspan x="24" y="31">Submit verification</tspan>
                            </text>
                            <g id="-Primary-button" transform="translate(270.000000, 186.000000)">
                                <path d="M0,26 C0,18.8202983 0,7.18441713 0,0 L0,13 C0,5.82029825 5.82123167,0 13.0006262,0 L46.9993738,0 C54.1794214,0 60,5.81871963 60,13 L60,13 C60,20.1797017 54.1787683,26 46.9993738,26 L13.0006262,26 C5.82057862,26 0,20.1844171 0,13 L0,26 Z" id="Rectangle-77" fill="#3889FF"></path>
                                <text id="Text" font-family="PingFangSC-Regular, PingFang SC" font-size="12" font-weight="normal" fill="#FFFFFF">
                                    <tspan x="16" y="17.5">write</tspan>
                                </text>
                            </g>
                            <polygon id="Rectangle-10-Copy" fill-opacity="0.09" fill="#000000" points="24 169 326 169 326 170 24 170"></polygon>
                        </g>
                    </g>
                    <text id="style" font-family="MicrosoftYaHei, Microsoft YaHei" font-size="12" font-weight="normal" line-spacing="22" fill="#525A6E">
                        <tspan x="8" y="27">style</tspan>
                    </text>
                </g>
            </g>
        </g>
    </g>
</svg>