<?xml version="1.0" encoding="UTF-8"?>
<svg width="494px" height="52px" viewBox="0 0 494 52" version="1.1" xmlns="http://www.w3.org/2000/svg" xmlns:xlink="http://www.w3.org/1999/xlink">
    <!-- Generator: Sketch 58 (84663) - https://sketch.com -->
    <title>style1</title>
    <desc>Created with Sketch.</desc>
    <g id="页面-1" stroke="none" stroke-width="1" fill="none" fill-rule="evenodd">
        <g id="配置组件V10分页4" transform="translate(-224.000000, -539.000000)">
            <g id="编组-41" transform="translate(224.000000, 461.000000)">
                <g id="style1" transform="translate(0.000000, 78.000000)">
                    <rect id="矩形" fill-opacity="0.01" fill="#FFFFFF" x="0" y="0" width="494" height="52"></rect>
                    <g id="页签-工作台" transform="translate(52.000000, 7.000000)">
                        <g id="分组-4" fill="#FFFFFF" stroke="#EEEEEE">
                            <rect id="bg-工作台页签" x="0.5" y="0.5" width="83" height="37"></rect>
                        </g>
                        <text id="Tab1" font-family="ArialMT, Arial" font-size="14" font-weight="normal" fill="#1E3255">
                            <tspan x="35" y="24">Tab1</tspan>
                        </text>
                        <g id="work" transform="translate(17.000000, 12.000000)">
                            <rect id="Rectangle" fill="#D8D8D8" opacity="0.01" x="0" y="0" width="14" height="14"></rect>
                            <g id="Group-44" transform="translate(1.000000, 1.000000)" fill="#1E3255" fill-rule="nonzero">
                                <path d="M10.5,11 C10.7761424,11 11,11.2238576 11,11.5 C11,11.7761424 10.7761424,12 10.5,12 L1.5,12 C1.22385763,12 1,11.7761424 1,11.5 C1,11.2238576 1.22385763,11 1.5,11 L10.5,11 Z M11,0 C11.5522847,0 12,0.44771525 12,1 L12,9 C12,9.55228475 11.5522847,10 11,10 L1,10 C0.44771525,10 0,9.55228475 0,9 L0,1 C0,0.44771525 0.44771525,0 1,0 L11,0 Z M11,1 L1,1 L1,9 L11,9 L11,1 Z M5,2 L5,8 L2,8 L2,2 L5,2 Z M10,6 L10,8 L6,8 L6,6 L10,6 Z M10,4 L10,5 L6,5 L6,4 L10,4 Z M10,2 L10,3 L6,3 L6,2 L10,2 Z" id="Rectangle"></path>
                            </g>
                        </g>
                    </g>
                    <g id="页签-2" transform="translate(140.000000, 7.000000)">
                        <rect id="Rectangle" stroke="#EEEEEE" fill="#F3F3F3" x="0.5" y="0.5" width="74" height="37"></rect>
                        <text id="Tab2" font-family="ArialMT, Arial" font-size="14" font-weight="normal" fill="#4C4C4C">
                            <tspan x="12" y="24">Tab2</tspan>
                        </text>
                        <g id="Group-46" transform="translate(53.000000, 14.000000)">
                            <rect id="Rectangle" fill="#D8D8D8" opacity="0.01" x="0" y="0" width="10" height="10"></rect>
                            <path d="M5.70710678,5 L8.53553391,7.82842712 C8.73079605,8.02368927 8.73079605,8.34027176 8.53553391,8.53553391 C8.34027176,8.73079605 8.02368927,8.73079605 7.82842712,8.53553391 L5,5.70710678 L2.17157288,8.53553391 C1.97631073,8.73079605 1.65972824,8.73079605 1.46446609,8.53553391 C1.26920395,8.34027176 1.26920395,8.02368927 1.46446609,7.82842712 L4.29289322,5 L1.46446609,2.17157288 C1.26920395,1.97631073 1.26920395,1.65972824 1.46446609,1.46446609 C1.65972824,1.26920395 1.97631073,1.26920395 2.17157288,1.46446609 L5,4.29289322 L7.82842712,1.46446609 C8.02368927,1.26920395 8.34027176,1.26920395 8.53553391,1.46446609 C8.73079605,1.65972824 8.73079605,1.97631073 8.53553391,2.17157288 L5.70710678,5 Z" id="Path" fill="#8B8B8B"></path>
                        </g>
                    </g>
                    <g id="页签-2备份" transform="translate(219.000000, 7.000000)">
                        <rect id="Rectangle" stroke="#EEEEEE" fill="#F3F3F3" x="0.5" y="0.5" width="74" height="37"></rect>
                        <text id="Tab3" font-family="ArialMT, Arial" font-size="14" font-weight="normal" fill="#4C4C4C">
                            <tspan x="12" y="24">Tab3</tspan>
                        </text>
                        <g id="Group-46" transform="translate(53.000000, 14.000000)">
                            <rect id="Rectangle" fill="#D8D8D8" opacity="0.01" x="0" y="0" width="10" height="10"></rect>
                            <path d="M5.70710678,5 L8.53553391,7.82842712 C8.73079605,8.02368927 8.73079605,8.34027176 8.53553391,8.53553391 C8.34027176,8.73079605 8.02368927,8.73079605 7.82842712,8.53553391 L5,5.70710678 L2.17157288,8.53553391 C1.97631073,8.73079605 1.65972824,8.73079605 1.46446609,8.53553391 C1.26920395,8.34027176 1.26920395,8.02368927 1.46446609,7.82842712 L4.29289322,5 L1.46446609,2.17157288 C1.26920395,1.97631073 1.26920395,1.65972824 1.46446609,1.46446609 C1.65972824,1.26920395 1.97631073,1.26920395 2.17157288,1.46446609 L5,4.29289322 L7.82842712,1.46446609 C8.02368927,1.26920395 8.34027176,1.26920395 8.53553391,1.46446609 C8.73079605,1.65972824 8.73079605,1.97631073 8.53553391,2.17157288 L5.70710678,5 Z" id="Path" fill="#8B8B8B"></path>
                        </g>
                    </g>
                    <g transform="translate(12.000000, 14.000000)" fill="#525A6E" font-family="ArialMT, Arial" font-size="12" font-weight="normal">
                        <text>
                            <tspan x="0.65234375" y="15">style1</tspan>
                        </text>
                    </g>
                </g>
            </g>
        </g>
    </g>
</svg>