<?xml version="1.0" encoding="UTF-8"?>
<svg width="494px" height="75px" viewBox="0 0 494 75" version="1.1" xmlns="http://www.w3.org/2000/svg" xmlns:xlink="http://www.w3.org/1999/xlink">
    <!-- Generator: Sketch 59 (86127) - https://sketch.com -->
    <title>15-Tab-style3</title>
    <desc>Created with Sketch.</desc>
    <g id="页面-1" stroke="none" stroke-width="1" fill="none" fill-rule="evenodd">
        <g id="一诺合同-配置组件备份-2" transform="translate(-224.000000, -7447.000000)">
            <rect fill="#F6F6F6" x="0" y="0" width="1440" height="9290"></rect>
            <path d="M210,149 L1430,149 C1431.10457,149 1432,149.895431 1432,151 L1432,8635.15678 L1432,8635.15678 L1432,9272 C1432,9273.10457 1431.10457,9274 1430,9274 L210,9274 C208.895431,9274 208,9273.10457 208,9272 L208,151 C208,149.895431 208.895431,149 210,149 Z" id="Rectangle" fill="#FFFFFF"></path>
            <g id="编组-16" transform="translate(224.000000, 7447.000000)">
                <g id="tab/style1备份">
                    <rect id="矩形" fill-opacity="0.01" fill="#FFFFFF" x="0" y="0" width="494" height="75"></rect>
                    <text id="样式" font-family="MicrosoftYaHei, Microsoft YaHei" font-size="12" font-weight="normal" line-spacing="22" fill="#525A6E">
                        <tspan x="8" y="40">样式</tspan>
                    </text>
                </g>
                <g id="编组-27" transform="translate(64.000000, 20.000000)">
                    <g id="编组-24" transform="translate(93.000000, 0.000000)">
                        <path d="M4,0 L119,0 C121.209139,-4.05812251e-16 123,1.790861 123,4 L123,34 L123,34 L0,34 L0,4 C-2.705415e-16,1.790861 1.790861,4.05812251e-16 4,0 Z" id="Rectangle备份" fill="#F6F6F6"></path>
                        <text id="待用章申请-12" font-family="MicrosoftYaHei, Microsoft YaHei" font-size="14" font-weight="normal" line-spacing="22" fill="#5A6677">
                            <tspan x="16" y="21">待用章申请 12</tspan>
                        </text>
                    </g>
                    <g id="编组-22" transform="translate(222.000000, 0.000000)">
                        <path d="M4,0 L83,0 C85.209139,-4.05812251e-16 87,1.790861 87,4 L87,32 C87,33.1045695 86.1045695,34 85,34 L2,34 C0.8954305,34 1.3527075e-16,33.1045695 0,32 L0,4 C-2.705415e-16,1.790861 1.790861,4.05812251e-16 4,0 Z" id="Rectangle备份-4" fill="#F6F6F6"></path>
                        <text id="待用章-6" font-family="MicrosoftYaHei, Microsoft YaHei" font-size="14" font-weight="normal" line-spacing="22" fill="#5A6677">
                            <tspan x="16" y="21">待用章 6</tspan>
                        </text>
                    </g>
                    <g id="编组-23" transform="translate(315.000000, 0.000000)">
                        <path d="M6,0 L81,0 C84.3137085,-6.08718376e-16 87,2.6862915 87,6 L87,32 C87,33.1045695 86.1045695,34 85,34 L2,34 C0.8954305,34 1.3527075e-16,33.1045695 0,32 L0,6 C-4.05812251e-16,2.6862915 2.6862915,1.4968968e-15 6,0 Z" id="Rectangle备份-5" fill="#F6F6F6"></path>
                        <text id="待归档-6" font-family="MicrosoftYaHei, Microsoft YaHei" font-size="14" font-weight="normal" line-spacing="22" fill="#5A6677">
                            <tspan x="16" y="19">待归档 6</tspan>
                        </text>
                    </g>
                    <rect id="Rectangle" fill="#F1F1F1" x="0" y="34" width="430" height="1"></rect>
                    <g id="编组-25">
                        <path d="M4,0 L83,0 C85.209139,-4.05812251e-16 87,1.790861 87,4 L87,35 L87,35 L0,35 L0,4 C-2.705415e-16,1.790861 1.790861,4.05812251e-16 4,0 Z" id="Rectangle" fill="#3889FF"></path>
                        <text id="待批准-7" font-family="MicrosoftYaHei, Microsoft YaHei" font-size="14" font-weight="normal" line-spacing="22" fill="#FFFFFF">
                            <tspan x="16" y="21">待批准 7</tspan>
                        </text>
                    </g>
                </g>
            </g>
        </g>
    </g>
</svg>