<?xml version="1.0" encoding="UTF-8"?>
<svg width="241px" height="68px" viewBox="0 0 241 68" version="1.1" xmlns="http://www.w3.org/2000/svg" xmlns:xlink="http://www.w3.org/1999/xlink">
    <!-- Generator: Sketch 58 (84663) - https://sketch.com -->
    <title>label-selection/style1</title>
    <desc>Created with Sketch.</desc>
    <g id="页面-1" stroke="none" stroke-width="1" fill="none" fill-rule="evenodd">
        <g id="配置组件V10分页1" transform="translate(-224.000000, -2165.000000)">
            <g id="编组-46备份" transform="translate(224.000000, 1841.000000)">
                <g id="label-selection/style1" transform="translate(0.000000, 324.000000)">
                    <rect id="矩形备份-26" fill-opacity="0.01" fill="#FAFAFA" x="0" y="0" width="241" height="68"></rect>
                    <path d="M52.5,21.9912443 L52.5,46.0087557 C52.5,46.8265218 53.1754932,47.5 54.0030127,47.5 L226.996987,47.5 C227.832296,47.5 228.5,46.8345206 228.5,46.0087557 L228.5,21.9912443 C228.5,21.1734782 227.824507,20.5 226.996987,20.5 L54.0030127,20.5 C53.1677039,20.5 52.5,21.1654794 52.5,21.9912443 Z" id="Rectangle-26-Copy-23备份-3" stroke="#D9D9D9" fill="#FFFFFF"></path>
                    <g id="编组-2备份-7" transform="translate(213.000000, 29.000000)">
                        <rect id="矩形" fill="#D8D8D8" opacity="0.01" x="0" y="0" width="10" height="10"></rect>
                        <path d="M3.07437422,1.34394406 C3.3505166,1.34394406 3.57437422,1.56780169 3.57437422,1.84394406 L3.57437422,5.34394406 L7.07437422,5.34394406 C7.3505166,5.34394406 7.57437422,5.56780169 7.57437422,5.84394406 C7.57437422,6.12008644 7.3505166,6.34394406 7.07437422,6.34394406 L3.07437422,6.34394406 L3.07437422,6.34394406 C2.79823185,6.34394406 2.57437422,6.12008644 2.57437422,5.84394406 L2.57437422,1.84394406 C2.57437422,1.56780169 2.79823185,1.34394406 3.07437422,1.34394406 Z" id="矩形-2" fill="#666666" transform="translate(5.074374, 3.843944) rotate(-45.000000) translate(-5.074374, -3.843944) "></path>
                    </g>
                    <g id="style1" transform="translate(12.000000, 22.000000)" fill="#525A6E" font-family="ArialMT, Arial" font-size="12" font-weight="normal">
                        <text>
                            <tspan x="0.65234375" y="15">style1</tspan>
                        </text>
                    </g>
                    <g id="编组-21" transform="translate(58.000000, 24.000000)">
                        <rect id="矩形" fill="#E8F0FD" x="0" y="0" width="63" height="20" rx="2"></rect>
                        <g id="Group-46" transform="translate(49.000000, 5.000000)">
                            <rect id="Rectangle" fill="#D8D8D8" opacity="0.01" x="0" y="0" width="10" height="10"></rect>
                            <path d="M5.70710678,5 L8.53553391,7.82842712 C8.73079605,8.02368927 8.73079605,8.34027176 8.53553391,8.53553391 C8.34027176,8.73079605 8.02368927,8.73079605 7.82842712,8.53553391 L5,5.70710678 L2.17157288,8.53553391 C1.97631073,8.73079605 1.65972824,8.73079605 1.46446609,8.53553391 C1.26920395,8.34027176 1.26920395,8.02368927 1.46446609,7.82842712 L4.29289322,5 L1.46446609,2.17157288 C1.26920395,1.97631073 1.26920395,1.65972824 1.46446609,1.46446609 C1.65972824,1.26920395 1.97631073,1.26920395 2.17157288,1.46446609 L5,4.29289322 L7.82842712,1.46446609 C8.02368927,1.26920395 8.34027176,1.26920395 8.53553391,1.46446609 C8.73079605,1.65972824 8.73079605,1.97631073 8.53553391,2.17157288 L5.70710678,5 Z" id="Path" fill="#8B8B8B"></path>
                        </g>
                        <text id="Select1" font-family="ArialMT, Arial" font-size="12" font-weight="normal" fill="#525A6E">
                            <tspan x="4.97460938" y="14">Select1</tspan>
                        </text>
                    </g>
                    <g id="编组-21备份" transform="translate(125.000000, 24.000000)">
                        <rect id="矩形" fill="#E8F0FD" x="0" y="0" width="63" height="20" rx="2"></rect>
                        <g id="Group-46" transform="translate(49.000000, 5.000000)">
                            <rect id="Rectangle" fill="#D8D8D8" opacity="0.01" x="0" y="0" width="10" height="10"></rect>
                            <path d="M5.70710678,5 L8.53553391,7.82842712 C8.73079605,8.02368927 8.73079605,8.34027176 8.53553391,8.53553391 C8.34027176,8.73079605 8.02368927,8.73079605 7.82842712,8.53553391 L5,5.70710678 L2.17157288,8.53553391 C1.97631073,8.73079605 1.65972824,8.73079605 1.46446609,8.53553391 C1.26920395,8.34027176 1.26920395,8.02368927 1.46446609,7.82842712 L4.29289322,5 L1.46446609,2.17157288 C1.26920395,1.97631073 1.26920395,1.65972824 1.46446609,1.46446609 C1.65972824,1.26920395 1.97631073,1.26920395 2.17157288,1.46446609 L5,4.29289322 L7.82842712,1.46446609 C8.02368927,1.26920395 8.34027176,1.26920395 8.53553391,1.46446609 C8.73079605,1.65972824 8.73079605,1.97631073 8.53553391,2.17157288 L5.70710678,5 Z" id="Path" fill="#8B8B8B"></path>
                        </g>
                        <text id="Select2" font-family="ArialMT, Arial" font-size="12" font-weight="normal" fill="#525A6E">
                            <tspan x="4.97460938" y="14">Select2</tspan>
                        </text>
                    </g>
                </g>
            </g>
        </g>
    </g>
</svg>