<?xml version="1.0" encoding="UTF-8"?>
<svg width="241px" height="68px" viewBox="0 0 241 68" version="1.1" xmlns="http://www.w3.org/2000/svg" xmlns:xlink="http://www.w3.org/1999/xlink">
    <!-- Generator: Sketch 58 (84663) - https://sketch.com -->
    <title>label-selection/style2</title>
    <desc>Created with Sketch.</desc>
    <g id="页面-1" stroke="none" stroke-width="1" fill="none" fill-rule="evenodd">
        <g id="配置组件V10分页1" transform="translate(-477.000000, -2165.000000)">
            <g id="编组-46备份" transform="translate(224.000000, 1841.000000)">
                <g id="label-selection/style2" transform="translate(253.000000, 324.000000)">
                    <rect id="矩形备份-29" fill-opacity="0.01" fill="#F6F6F6" x="0" y="0" width="241" height="68"></rect>
                    <g id="style1" transform="translate(8.000000, 6.000000)" fill="#525A6E" font-family="ArialMT, Arial" font-size="12" font-weight="normal">
                        <text>
                            <tspan x="0.65234375" y="15">style2</tspan>
                        </text>
                    </g>
                    <path d="M8.5,33.9912443 L8.5,58.0087557 C8.5,58.8268826 9.17296196,59.5 9.99657649,59.5 L231.003424,59.5 C231.829697,59.5 232.5,58.8316978 232.5,58.0087557 L232.5,33.9912443 C232.5,33.1731174 231.827038,32.5 231.003424,32.5 L9.99657649,32.5 C9.17030323,32.5 8.5,33.1683022 8.5,33.9912443 Z" id="Rectangle-26-Copy-23备份-3" stroke="#D9D9D9" fill="#FFFFFF"></path>
                    <g id="编组-2备份-7" transform="translate(215.000000, 41.000000)">
                        <rect id="矩形" fill="#D8D8D8" opacity="0.01" x="0" y="0" width="10" height="10"></rect>
                        <path d="M3.07437422,1.34394406 C3.3505166,1.34394406 3.57437422,1.56780169 3.57437422,1.84394406 L3.57437422,5.34394406 L7.07437422,5.34394406 C7.3505166,5.34394406 7.57437422,5.56780169 7.57437422,5.84394406 C7.57437422,6.12008644 7.3505166,6.34394406 7.07437422,6.34394406 L3.07437422,6.34394406 L3.07437422,6.34394406 C2.79823185,6.34394406 2.57437422,6.12008644 2.57437422,5.84394406 L2.57437422,1.84394406 C2.57437422,1.56780169 2.79823185,1.34394406 3.07437422,1.34394406 Z" id="矩形-2" fill="#666666" transform="translate(5.074374, 3.843944) rotate(-45.000000) translate(-5.074374, -3.843944) "></path>
                    </g>
                    <g id="编组-21" transform="translate(14.000000, 36.000000)">
                        <rect id="矩形" fill="#E8F0FD" x="0" y="0" width="63" height="20" rx="2"></rect>
                        <g id="Group-46" transform="translate(49.000000, 5.000000)">
                            <rect id="Rectangle" fill="#D8D8D8" opacity="0.01" x="0" y="0" width="10" height="10"></rect>
                            <path d="M5.70710678,5 L8.53553391,7.82842712 C8.73079605,8.02368927 8.73079605,8.34027176 8.53553391,8.53553391 C8.34027176,8.73079605 8.02368927,8.73079605 7.82842712,8.53553391 L5,5.70710678 L2.17157288,8.53553391 C1.97631073,8.73079605 1.65972824,8.73079605 1.46446609,8.53553391 C1.26920395,8.34027176 1.26920395,8.02368927 1.46446609,7.82842712 L4.29289322,5 L1.46446609,2.17157288 C1.26920395,1.97631073 1.26920395,1.65972824 1.46446609,1.46446609 C1.65972824,1.26920395 1.97631073,1.26920395 2.17157288,1.46446609 L5,4.29289322 L7.82842712,1.46446609 C8.02368927,1.26920395 8.34027176,1.26920395 8.53553391,1.46446609 C8.73079605,1.65972824 8.73079605,1.97631073 8.53553391,2.17157288 L5.70710678,5 Z" id="Path" fill="#8B8B8B"></path>
                        </g>
                        <text id="Select1" font-family="ArialMT, Arial" font-size="12" font-weight="normal" fill="#525A6E">
                            <tspan x="4.97460938" y="14">Select1</tspan>
                        </text>
                    </g>
                    <g id="编组-21备份" transform="translate(81.000000, 36.000000)">
                        <rect id="矩形" fill="#E8F0FD" x="0" y="0" width="63" height="20" rx="2"></rect>
                        <g id="Group-46" transform="translate(49.000000, 5.000000)">
                            <rect id="Rectangle" fill="#D8D8D8" opacity="0.01" x="0" y="0" width="10" height="10"></rect>
                            <path d="M5.70710678,5 L8.53553391,7.82842712 C8.73079605,8.02368927 8.73079605,8.34027176 8.53553391,8.53553391 C8.34027176,8.73079605 8.02368927,8.73079605 7.82842712,8.53553391 L5,5.70710678 L2.17157288,8.53553391 C1.97631073,8.73079605 1.65972824,8.73079605 1.46446609,8.53553391 C1.26920395,8.34027176 1.26920395,8.02368927 1.46446609,7.82842712 L4.29289322,5 L1.46446609,2.17157288 C1.26920395,1.97631073 1.26920395,1.65972824 1.46446609,1.46446609 C1.65972824,1.26920395 1.97631073,1.26920395 2.17157288,1.46446609 L5,4.29289322 L7.82842712,1.46446609 C8.02368927,1.26920395 8.34027176,1.26920395 8.53553391,1.46446609 C8.73079605,1.65972824 8.73079605,1.97631073 8.53553391,2.17157288 L5.70710678,5 Z" id="Path" fill="#8B8B8B"></path>
                        </g>
                        <text id="Select2" font-family="ArialMT, Arial" font-size="12" font-weight="normal" fill="#525A6E">
                            <tspan x="4.97460938" y="14">Select2</tspan>
                        </text>
                    </g>
                </g>
            </g>
        </g>
    </g>
</svg>