<?xml version="1.0" encoding="UTF-8"?>
<svg width="494px" height="52px" viewBox="0 0 494 52" version="1.1" xmlns="http://www.w3.org/2000/svg" xmlns:xlink="http://www.w3.org/1999/xlink">
    <!-- Generator: Sketch 58 (84663) - https://sketch.com -->
    <title>paging/style3</title>
    <desc>Created with Sketch.</desc>
    <g id="页面-1" stroke="none" stroke-width="1" fill="none" fill-rule="evenodd">
        <g id="配置组件V10分页2" transform="translate(-224.000000, -311.000000)">
            <g id="编组-26" transform="translate(224.000000, 173.000000)">
                <g id="paging/style3" transform="translate(0.000000, 138.000000)">
                    <rect id="矩形备份-4" fill="#FAFAFA" opacity="0.01" x="0" y="0" width="494" height="52"></rect>
                    <g id="编组-18" transform="translate(52.000000, 14.000000)">
                        <g id="编组-3" transform="translate(32.000000, 0.000000)">
                            <rect id="矩形" stroke="#F0F0F0" fill="#FFFFFF" x="0.5" y="0.5" width="273" height="23" rx="11.5"></rect>
                            <g id="turnpage-left-no" transform="translate(10.000000, 8.000000)" stroke="#B7B7B7">
                                <polyline id="路径" points="5.11904982 0 0 4.5251749 5.11904982 8.69994188"></polyline>
                            </g>
                            <rect id="矩形" fill="#F0F0F0" x="24" y="0" width="1" height="24"></rect>
                            <rect id="矩形" fill="#E4EFFF" x="25" y="1" width="24" height="22"></rect>
                            <text id="1" font-family="ArialMT, Arial" font-size="12" font-weight="normal" fill="#4F7DE7">
                                <tspan x="33.6630859" y="16">1</tspan>
                            </text>
                            <text id="2" font-family="ArialMT, Arial" font-size="12" font-weight="normal" fill="#666666">
                                <tspan x="58.6630859" y="16">2</tspan>
                            </text>
                            <text id="3" font-family="ArialMT, Arial" font-size="12" font-weight="normal" fill="#666666">
                                <tspan x="83.6630859" y="16">3</tspan>
                            </text>
                            <text id="4" font-family="ArialMT, Arial" font-size="12" font-weight="normal" fill="#666666">
                                <tspan x="108.663086" y="16">4</tspan>
                            </text>
                            <text id="5" font-family="ArialMT, Arial" font-size="12" font-weight="normal" fill="#666666">
                                <tspan x="133.663086" y="16">5</tspan>
                            </text>
                            <text id="10" font-family="ArialMT, Arial" font-size="12" font-weight="normal" fill="#666666">
                                <tspan x="180.326172" y="16">10</tspan>
                            </text>
                            <text id="11" font-family="ArialMT, Arial" font-size="12" font-weight="normal" fill="#666666">
                                <tspan x="206.271484" y="16">11</tspan>
                            </text>
                            <text id="12" font-family="ArialMT, Arial" font-size="12" font-weight="normal" fill="#666666">
                                <tspan x="230.326172" y="16">12</tspan>
                            </text>
                            <polyline id="路径" stroke="#666666" transform="translate(261.559525, 12.349971) rotate(180.000000) translate(-261.559525, -12.349971) " points="264.11905 8 259 12.5251749 264.11905 16.6999419"></polyline>
                            <rect id="矩形" fill="#F0F0F0" x="49" y="0" width="1" height="24"></rect>
                            <rect id="矩形" fill="#F0F0F0" x="74" y="0" width="1" height="24"></rect>
                            <rect id="矩形" fill="#F0F0F0" x="99" y="0" width="1" height="24"></rect>
                            <rect id="矩形" fill="#F0F0F0" x="124" y="0" width="1" height="24"></rect>
                            <rect id="矩形" fill="#F0F0F0" x="149" y="0" width="1" height="24"></rect>
                            <rect id="矩形" fill="#F0F0F0" x="174" y="0" width="1" height="24"></rect>
                            <rect id="矩形" fill="#F0F0F0" x="199" y="0" width="1" height="24"></rect>
                            <rect id="矩形" fill="#F0F0F0" x="224" y="0" width="1" height="24"></rect>
                            <rect id="矩形" fill="#F0F0F0" x="249" y="0" width="1" height="24"></rect>
                            <g id="分组-3-copy备份-3" transform="translate(154.000000, 11.000000)" fill="#666666">
                                <path d="M1.5,0 C2.32842712,0 3,0.671572875 3,1.5 C3,2.32842712 2.32842712,3 1.5,3 C0.671572875,3 0,2.32842712 0,1.5 C0,0.671572875 0.671572875,0 1.5,0 Z M7.5,0 C8.32842712,0 9,0.671572875 9,1.5 C9,2.32842712 8.32842712,3 7.5,3 C6.67157288,3 6,2.32842712 6,1.5 C6,0.671572875 6.67157288,0 7.5,0 Z M13.5,0 C14.3284271,0 15,0.671572875 15,1.5 C15,2.32842712 14.3284271,3 13.5,3 C12.6715729,3 12,2.32842712 12,1.5 C12,0.671572875 12.6715729,0 13.5,0 Z" id="椭圆形-2"></path>
                            </g>
                        </g>
                        <g id="编组-2" transform="translate(314.000000, 0.000000)">
                            <circle id="椭圆形" stroke="#F0F0F0" fill="#FFFFFF" cx="12" cy="12" r="11.5"></circle>
                            <polyline id="路径" stroke="#666666" transform="translate(11.559525, 12.349971) rotate(180.000000) translate(-11.559525, -12.349971) " points="14.1190498 8 9 12.5251749 14.1190498 16.6999419"></polyline>
                            <path d="M14.7859442,8 L14.7859442,16.6999419" id="路径-3" stroke="#666666"></path>
                        </g>
                        <g id="分组-3-copy-2" transform="translate(350.000000, 4.000000)">
                            <g id="路径-2" transform="translate(48.000000, 4.000000)">
                                <polyline id="路径" stroke="#666666" transform="translate(4.959525, 3.349971) rotate(270.000000) translate(-4.959525, -3.349971) " points="7.51904985 -1 2.40000003 3.5251749 7.51904985 7.69994188"></polyline>
                                <rect id="矩形" x="0" y="0" width="10" height="6"></rect>
                            </g>
                            <text id="10/page" font-family="ArialMT, Arial" font-size="12" font-weight="normal" fill="#666666">
                                <tspan x="0" y="11">10/page</tspan>
                            </text>
                        </g>
                        <g id="编组-2" transform="translate(12.000000, 12.000000) scale(-1, 1) translate(-12.000000, -12.000000) ">
                            <circle id="椭圆形" stroke="#F0F0F0" fill="#FFFFFF" cx="12" cy="12" r="11.5"></circle>
                            <polyline id="路径" stroke="#666666" transform="translate(11.559525, 12.349971) rotate(180.000000) translate(-11.559525, -12.349971) " points="14.1190498 8 9 12.5251749 14.1190498 16.6999419"></polyline>
                            <path d="M14.7859442,8 L14.7859442,16.6999419" id="路径-3" stroke="#666666"></path>
                        </g>
                    </g>
                    <g id="style1" transform="translate(12.000000, 14.000000)" fill="#525A6E" font-family="ArialMT, Arial" font-size="12" font-weight="normal">
                        <text>
                            <tspan x="0.65234375" y="15">style3</tspan>
                        </text>
                    </g>
                </g>
            </g>
        </g>
    </g>
</svg>