<?xml version="1.0" encoding="UTF-8"?>
<svg width="241px" height="108px" viewBox="0 0 241 108" version="1.1" xmlns="http://www.w3.org/2000/svg" xmlns:xlink="http://www.w3.org/1999/xlink">
    <!-- Generator: Sketch 58 (84663) - https://sketch.com -->
    <title>text-input/style3</title>
    <desc>Created with Sketch.</desc>
    <g id="页面-1" stroke="none" stroke-width="1" fill="none" fill-rule="evenodd">
        <g id="text-input/style3">
            <rect id="矩形备份" fill-opacity="0.01" fill="#F6F6F6" x="0" y="0" width="241" height="108"></rect>
            <path d="M57.2265625,29.4824219 L56.3125,29.4824219 L56.3125,23.5410156 L62.828125,23.5410156 L62.828125,28.0996094 C62.828125,28.9433636 62.3945356,29.3691406 61.5273438,29.3769531 L60.6108905,29.3865195 C60.3502086,29.3879544 60.0658498,29.3886719 59.7578125,29.3886719 C59.7187498,29.1386706 59.6601566,28.8378924 59.5820312,28.4863281 L60.1340094,28.520767 C60.5684798,28.5446828 60.9391726,28.5566406 61.2460938,28.5566406 C61.6914085,28.5566406 61.9140625,28.3535177 61.9140625,27.9472656 L61.9140625,27.3613281 L57.2265625,27.3613281 L57.2265625,29.4824219 Z M55.28125,22.0878906 L59.0664062,22.0878906 L59.0664062,21.2792969 L56.0664062,21.2792969 L56.0664062,20.5410156 L59.0664062,20.5410156 L59.0664062,19.7558594 L55.65625,19.7558594 L55.65625,19.0175781 L59.0664062,19.0175781 L59.0664062,17.9628906 L60.015625,17.9628906 L60.015625,19.0175781 L63.5898438,19.0175781 L63.5898438,19.7558594 L60.015625,19.7558594 L60.015625,20.5410156 L63.2851562,20.5410156 L63.2851562,21.2792969 L60.015625,21.2792969 L60.015625,22.0878906 L63.8242188,22.0878906 L63.8242188,22.8261719 L55.28125,22.8261719 L55.28125,22.0878906 Z M55.8554688,26.5878906 C55.8789064,26.9785176 55.9062498,27.3183579 55.9375,27.6074219 C55.0937458,28.1699247 54.3789092,28.6777321 53.7929688,29.1308594 L53.2539062,28.3574219 C53.5195326,28.1074206 53.6523438,27.7675803 53.6523438,27.3378906 L53.6523438,22.9082031 L52.2226562,22.9082031 L52.2226562,22.0527344 L54.5429688,22.0527344 L54.5429688,27.5136719 C54.9804709,27.2167954 55.4179666,26.9082047 55.8554688,26.5878906 Z M61.9140625,24.2910156 L57.2265625,24.2910156 L57.2265625,25.0996094 L61.9140625,25.0996094 L61.9140625,24.2910156 Z M57.2265625,26.6347656 L61.9140625,26.6347656 L61.9140625,25.8261719 L57.2265625,25.8261719 L57.2265625,26.6347656 Z M53.546875,18.3613281 C54.1875032,18.9941438 54.7539038,19.5839816 55.2460938,20.1308594 L54.4257812,20.8105469 C53.8867161,20.1152309 53.3593776,19.4980496 52.84375,18.9589844 L53.546875,18.3613281 Z M65.171875,23.8457031 L66.2265625,23.8457031 L66.2265625,21.7128906 L67,21.7128906 L67,23.8457031 L68.125,23.8457031 L68.125,24.6191406 L67,24.6191406 L67,26.2246094 C67.4140646,26.1699216 67.8359354,26.1074222 68.265625,26.0371094 C68.2265623,26.3339859 68.1992188,26.6035144 68.1835938,26.8457031 L67,27.0097656 L67,27.0097656 L67,29.6230469 L66.2265625,29.6230469 L66.2265625,27.1269531 C65.5937468,27.2207036 64.9570345,27.3183589 64.3164062,27.4199219 L64.1875,26.5644531 C64.8593784,26.4941403 65.5390591,26.4160161 66.2265625,26.3300781 L66.2265625,24.6191406 L64.3515625,24.6191406 L64.3515625,23.8105469 C64.648439,22.9746052 64.9570296,21.9121158 65.2773438,20.6230469 L64.2460938,20.6230469 L64.2460938,19.8730469 L65.4648438,19.8730469 C65.5976569,19.3105441 65.7343743,18.7089876 65.875,18.0683594 L66.71875,18.2558594 L66.296875,19.8730469 L66.296875,19.8730469 L68.4179688,19.8730469 L68.4179688,20.6230469 L66.0976562,20.6230469 L65.846435,21.536379 C65.6018062,22.4138203 65.3769542,23.1835904 65.171875,23.8457031 Z M69.2734375,29.5996094 L68.5234375,29.5996094 L68.5234375,22.6972656 L71.640625,22.6972656 L71.640625,28.4628906 C71.640625,29.1503941 71.3242219,29.4941406 70.6914062,29.4941406 L69.7773438,29.4824219 L69.7773438,29.4824219 L69.6132812,28.7558594 L69.6132812,28.7558594 C69.9257828,28.779297 70.2109362,28.7910156 70.46875,28.7910156 C70.7500014,28.7910156 70.890625,28.6347672 70.890625,28.3222656 L70.890625,26.9628906 L69.2734375,26.9628906 L69.2734375,29.5996094 Z M72.6601562,18.1503906 L72.4609375,18.4082031 C73.3750046,19.78321 74.5195244,20.7675752 75.8945312,21.3613281 C75.6289049,21.6738297 75.425782,21.9433582 75.2851562,22.1699219 C74.7539036,21.8730454 74.261721,21.5371113 73.8085938,21.1621094 L73.8085938,21.7480469 L69.7421875,21.7480469 L69.7421875,21.2324219 C69.2812477,21.6152363 68.8007837,21.9667953 68.3007812,22.2871094 C68.0664051,21.9824204 67.8593759,21.7441415 67.6796875,21.5722656 C69.2343828,20.6660111 70.4882765,19.5253975 71.4414062,18.1503906 L72.6601562,18.1503906 Z M74.40625,22.4863281 L75.203125,22.4863281 L75.203125,28.1933594 C75.203125,29.0605512 74.8359412,29.4980468 74.1015625,29.5058594 C73.703123,29.5136719 73.2460963,29.5058595 72.7304688,29.4824219 C72.6914061,29.1933579 72.6367191,28.9003921 72.5664062,28.6035156 C73.0585962,28.6660159 73.480467,28.6972656 73.8320312,28.6972656 C74.2148457,28.6972656 74.40625,28.4941427 74.40625,28.0878906 L74.40625,22.4863281 Z M71.8867188,19.0175781 C71.3007783,19.7519568 70.6679721,20.4160127 69.9882812,21.0097656 L73.6210938,21.0097656 C72.9570279,20.4316377 72.3789087,19.7675819 71.8867188,19.0175781 Z M72.6132812,23.0488281 L73.3632812,23.0488281 L73.3632812,27.3144531 L72.6132812,27.3144531 L72.6132812,23.0488281 Z M69.2734375,26.3066406 L70.890625,26.3066406 L70.890625,25.1816406 L69.2734375,25.1816406 L69.2734375,26.3066406 Z M70.890625,23.4121094 L69.2734375,23.4121094 L69.2734375,24.5253906 L70.890625,24.5253906 L70.890625,23.4121094 Z M79.4335938,18.7246094 L80.2070312,18.1738281 C81.0820356,18.7128933 82.0429635,20.095692 83.0898438,22.3222656 C84.5507886,25.5175941 86.1367102,27.4667934 87.8476562,28.1699219 L87.0273438,29.2011719 C85.3876871,28.2278597 83.8664407,26.2213688 82.4635628,23.1816425 L82.0494794,22.2714846 C82.011285,22.1894535 81.9733075,22.1087244 81.9355469,22.0292969 C81.0292923,25.1347812 79.3437623,27.5488195 76.8789062,29.2714844 C76.6679677,28.9589828 76.4296888,28.666017 76.1640625,28.3925781 C78.6992314,26.7949139 80.4062456,24.2675954 81.2851562,20.8105469 C80.6718719,19.7871043 80.0546906,19.0917987 79.4335938,18.7246094 Z" id="请输入" fill="#AAADBA" fill-rule="nonzero"></path>
            <rect id="矩形" fill="#D9D9D9" x="52" y="95" width="177" height="1"></rect>
            <text id="样式三" font-family="MicrosoftYaHei, Microsoft YaHei" font-size="12" font-weight="normal" line-spacing="22" fill="#525A6E">
                <tspan x="8" y="27">样式三</tspan>
            </text>
        </g>
    </g>
</svg>