<?xml version="1.0" encoding="UTF-8"?>
<svg width="241px" height="192px" viewBox="0 0 241 192" version="1.1" xmlns="http://www.w3.org/2000/svg" xmlns:xlink="http://www.w3.org/1999/xlink">
    <!-- Generator: Sketch 58 (84663) - https://sketch.com -->
    <title>selection/style2</title>
    <desc>Created with Sketch.</desc>
    <g id="页面-1" stroke="none" stroke-width="1" fill="none" fill-rule="evenodd">
        <g id="配置组件V10分页1" transform="translate(-477.000000, -1917.000000)">
            <g id="编组-46备份" transform="translate(224.000000, 1841.000000)">
                <g id="selection/style2" transform="translate(253.000000, 76.000000)">
                    <rect id="矩形备份-20" fill-opacity="0.01" fill="#FAFAFA" x="0" y="0" width="241" height="192"></rect>
                    <rect id="矩形备份-4" stroke="#FD6868" fill="#FFFFFF" x="8.5" y="128.5" width="220" height="27" rx="2"></rect>
                    <text id="Select" font-family="ArialMT, Arial" font-size="12" font-weight="normal" fill="#333333">
                        <tspan x="16" y="146">Select</tspan>
                    </text>
                    <g id="编组-2备份" transform="translate(213.000000, 137.000000)">
                        <rect id="矩形" fill="#D8D8D8" opacity="0.01" x="0" y="0" width="10" height="10"></rect>
                        <path d="M3.07437422,1.34394406 C3.3505166,1.34394406 3.57437422,1.56780169 3.57437422,1.84394406 L3.57437422,5.34394406 L7.07437422,5.34394406 C7.3505166,5.34394406 7.57437422,5.56780169 7.57437422,5.84394406 C7.57437422,6.12008644 7.3505166,6.34394406 7.07437422,6.34394406 L3.07437422,6.34394406 L3.07437422,6.34394406 C2.79823185,6.34394406 2.57437422,6.12008644 2.57437422,5.84394406 L2.57437422,1.84394406 C2.57437422,1.56780169 2.79823185,1.34394406 3.07437422,1.34394406 Z" id="矩形-2" fill="#666666" transform="translate(5.074374, 3.843944) rotate(-45.000000) translate(-5.074374, -3.843944) "></path>
                    </g>
                    <text id="Error-waring-text" font-family="ArialMT, Arial" font-size="10" font-weight="normal" line-spacing="18" fill="#FD6868">
                        <tspan x="8" y="167">Error waring text</tspan>
                    </text>
                    <path d="M8.5,65.9912443 L8.5,90.0087557 C8.5,90.8269645 9.17238789,91.5 9.99511594,91.5 L227.004884,91.5 C227.832562,91.5 228.5,90.8332084 228.5,90.0087557 L228.5,65.9912443 C228.5,65.1730355 227.827612,64.5 227.004884,64.5 L9.99511594,64.5 C9.16743798,64.5 8.5,65.1667916 8.5,65.9912443 Z" id="Rectangle-26-Copy-23备份-3" stroke="#B8D7FF" fill="#EFF6FF"></path>
                    <text id="Select" font-family="ArialMT, Arial" font-size="12" font-weight="normal" fill="#AAADBA">
                        <tspan x="16" y="82">Select</tspan>
                    </text>
                    <path d="M8.5,97.9912443 L8.5,122.008756 C8.5,122.826964 9.17238789,123.5 9.99511594,123.5 L227.004884,123.5 C227.832562,123.5 228.5,122.833208 228.5,122.008756 L228.5,97.9912443 C228.5,97.1730355 227.827612,96.5 227.004884,96.5 L9.99511594,96.5 C9.16743798,96.5 8.5,97.1667916 8.5,97.9912443 Z" id="Rectangle-26-Copy-23备份-4" stroke="#E7EAED" fill="#F8F8F8"></path>
                    <text id="Select" opacity="0.5" font-family="ArialMT, Arial" font-size="12" font-weight="normal" fill="#AAADBA">
                        <tspan x="16" y="114">Select</tspan>
                    </text>
                    <g id="编组-2备份" transform="translate(213.000000, 73.000000)">
                        <rect id="矩形" fill="#D8D8D8" opacity="0.01" x="0" y="0" width="10" height="10"></rect>
                        <path d="M3.07437422,1.34394406 C3.3505166,1.34394406 3.57437422,1.56780169 3.57437422,1.84394406 L3.57437422,5.34394406 L7.07437422,5.34394406 C7.3505166,5.34394406 7.57437422,5.56780169 7.57437422,5.84394406 C7.57437422,6.12008644 7.3505166,6.34394406 7.07437422,6.34394406 L3.07437422,6.34394406 L3.07437422,6.34394406 C2.79823185,6.34394406 2.57437422,6.12008644 2.57437422,5.84394406 L2.57437422,1.84394406 C2.57437422,1.56780169 2.79823185,1.34394406 3.07437422,1.34394406 Z" id="矩形-2" fill="#666666" transform="translate(5.074374, 3.843944) rotate(-45.000000) translate(-5.074374, -3.843944) "></path>
                    </g>
                    <g id="编组-2备份-2" opacity="0.5" transform="translate(213.000000, 105.000000)">
                        <rect id="矩形" fill="#D8D8D8" opacity="0.01" x="0" y="0" width="10" height="10"></rect>
                        <path d="M3.07437422,1.34394406 C3.3505166,1.34394406 3.57437422,1.56780169 3.57437422,1.84394406 L3.57437422,5.34394406 L7.07437422,5.34394406 C7.3505166,5.34394406 7.57437422,5.56780169 7.57437422,5.84394406 C7.57437422,6.12008644 7.3505166,6.34394406 7.07437422,6.34394406 L3.07437422,6.34394406 L3.07437422,6.34394406 C2.79823185,6.34394406 2.57437422,6.12008644 2.57437422,5.84394406 L2.57437422,1.84394406 C2.57437422,1.56780169 2.79823185,1.34394406 3.07437422,1.34394406 Z" id="矩形-2" fill="#666666" transform="translate(5.074374, 3.843944) rotate(-45.000000) translate(-5.074374, -3.843944) "></path>
                    </g>
                    <path d="M8.5,33.9912443 L8.5,58.0087557 C8.5,58.8269645 9.17238789,59.5 9.99511594,59.5 L227.004884,59.5 C227.832562,59.5 228.5,58.8332084 228.5,58.0087557 L228.5,33.9912443 C228.5,33.1730355 227.827612,32.5 227.004884,32.5 L9.99511594,32.5 C9.16743798,32.5 8.5,33.1667916 8.5,33.9912443 Z" id="Rectangle-26-Copy-23备份-2" stroke="#D9D9D9" fill="#FFFFFF"></path>
                    <text id="Select" font-family="ArialMT, Arial" font-size="12" font-weight="normal" fill="#AAADBA">
                        <tspan x="16" y="50">Select</tspan>
                    </text>
                    <g id="编组-2" transform="translate(213.000000, 41.000000)">
                        <rect id="矩形" fill="#D8D8D8" opacity="0.01" x="0" y="0" width="10" height="10"></rect>
                        <path d="M3.07437422,1.34394406 C3.3505166,1.34394406 3.57437422,1.56780169 3.57437422,1.84394406 L3.57437422,5.34394406 L7.07437422,5.34394406 C7.3505166,5.34394406 7.57437422,5.56780169 7.57437422,5.84394406 C7.57437422,6.12008644 7.3505166,6.34394406 7.07437422,6.34394406 L3.07437422,6.34394406 L3.07437422,6.34394406 C2.79823185,6.34394406 2.57437422,6.12008644 2.57437422,5.84394406 L2.57437422,1.84394406 C2.57437422,1.56780169 2.79823185,1.34394406 3.07437422,1.34394406 Z" id="矩形-2" fill="#666666" transform="translate(5.074374, 3.843944) rotate(-45.000000) translate(-5.074374, -3.843944) "></path>
                    </g>
                    <g id="style2" transform="translate(8.000000, 6.000000)" fill="#525A6E" font-family="ArialMT, Arial" font-size="12" font-weight="normal">
                        <text>
                            <tspan x="0.65234375" y="15">style2</tspan>
                        </text>
                    </g>
                </g>
            </g>
        </g>
    </g>
</svg>