<?xml version="1.0" encoding="UTF-8"?>
<svg width="241px" height="68px" viewBox="0 0 241 68" version="1.1" xmlns="http://www.w3.org/2000/svg" xmlns:xlink="http://www.w3.org/1999/xlink">
    <!-- Generator: Sketch 58 (84663) - https://sketch.com -->
    <title>Lov/style3</title>
    <desc>Created with Sketch.</desc>
    <g id="页面-1" stroke="none" stroke-width="1" fill="none" fill-rule="evenodd">
        <g id="Lov/style3">
            <rect id="矩形备份" fill-opacity="0.01" fill="#F6F6F6" x="0" y="0" width="241" height="68"></rect>
            <path d="M57.2265625,38.4824219 L56.3125,38.4824219 L56.3125,32.5410156 L62.828125,32.5410156 L62.828125,37.0996094 C62.828125,37.9433636 62.3945356,38.3691406 61.5273438,38.3769531 L60.6108905,38.3865195 C60.3502086,38.3879544 60.0658498,38.3886719 59.7578125,38.3886719 C59.7187498,38.1386706 59.6601566,37.8378924 59.5820312,37.4863281 L60.1340094,37.520767 C60.5684798,37.5446828 60.9391726,37.5566406 61.2460938,37.5566406 C61.6914085,37.5566406 61.9140625,37.3535177 61.9140625,36.9472656 L61.9140625,36.3613281 L57.2265625,36.3613281 L57.2265625,38.4824219 Z M55.28125,31.0878906 L59.0664062,31.0878906 L59.0664062,30.2792969 L56.0664062,30.2792969 L56.0664062,29.5410156 L59.0664062,29.5410156 L59.0664062,28.7558594 L55.65625,28.7558594 L55.65625,28.0175781 L59.0664062,28.0175781 L59.0664062,26.9628906 L60.015625,26.9628906 L60.015625,28.0175781 L63.5898438,28.0175781 L63.5898438,28.7558594 L60.015625,28.7558594 L60.015625,29.5410156 L63.2851562,29.5410156 L63.2851562,30.2792969 L60.015625,30.2792969 L60.015625,31.0878906 L63.8242188,31.0878906 L63.8242188,31.8261719 L55.28125,31.8261719 L55.28125,31.0878906 Z M55.8554688,35.5878906 C55.8789064,35.9785176 55.9062498,36.3183579 55.9375,36.6074219 C55.0937458,37.1699247 54.3789092,37.6777321 53.7929688,38.1308594 L53.2539062,37.3574219 C53.5195326,37.1074206 53.6523438,36.7675803 53.6523438,36.3378906 L53.6523438,31.9082031 L52.2226562,31.9082031 L52.2226562,31.0527344 L54.5429688,31.0527344 L54.5429688,36.5136719 C54.9804709,36.2167954 55.4179666,35.9082047 55.8554688,35.5878906 Z M61.9140625,33.2910156 L57.2265625,33.2910156 L57.2265625,34.0996094 L61.9140625,34.0996094 L61.9140625,33.2910156 Z M57.2265625,35.6347656 L61.9140625,35.6347656 L61.9140625,34.8261719 L57.2265625,34.8261719 L57.2265625,35.6347656 Z M53.546875,27.3613281 C54.1875032,27.9941438 54.7539038,28.5839816 55.2460938,29.1308594 L54.4257812,29.8105469 C53.8867161,29.1152309 53.3593776,28.4980496 52.84375,27.9589844 L53.546875,27.3613281 Z M67.2929688,31.8378906 L71.171875,31.8378906 L71.171875,29.8808594 L69.1972656,29.8808594 C68.9628895,30.4746123 68.7187513,31.005857 68.4648438,31.4746094 C68.2617177,31.3417962 67.988283,31.2011726 67.6445312,31.0527344 C68.2539093,29.9824165 68.7070298,28.7949284 69.0039062,27.4902344 L69.9179688,27.6894531 C69.7812493,28.1777368 69.6386726,28.6386697 69.4902344,29.0722656 L71.171875,29.0722656 L71.171875,27.0332031 L72.0859375,27.0332031 L72.0859375,29.0722656 L75.1445312,29.0722656 L75.1445312,29.8808594 L72.0859375,29.8808594 L72.0859375,31.8378906 L75.7070312,31.8378906 L75.7070312,32.6464844 L72.9414062,32.6464844 L72.9414062,35.1542969 C72.9414062,35.5683614 73.1132795,35.7753906 73.4570312,35.7753906 L74.0195312,35.7753906 C74.378908,35.7753906 74.5859372,35.5878925 74.640625,35.2128906 C74.6875002,34.9082016 74.7304686,34.4472687 74.7695312,33.8300781 C75.01172,33.9394537 75.308592,34.0527338 75.6601562,34.1699219 C75.5976559,34.7089871 75.5312504,35.1621075 75.4609375,35.5292969 C75.3359369,36.2246129 74.8906288,36.5722656 74.125,36.5722656 L73.2578125,36.5722656 C72.4453084,36.5722656 72.0390625,36.1308638 72.0390625,35.2480469 L72.0390625,32.6464844 L70.4628906,32.6464844 L70.4526367,33.1503908 C70.4501953,33.2294921 70.4473877,33.3061521 70.4442139,33.3803708 L70.4335938,33.5957031 C70.3867185,35.0566479 69.5664142,36.1386684 67.9726562,36.8417969 C67.8164055,36.6152332 67.6210949,36.3535171 67.3867188,36.0566406 C68.7617256,35.4863253 69.4765622,34.666021 69.53125,33.5957031 L69.5490625,33.2750782 C69.5575,33.0950787 69.5652343,32.8855481 69.5722656,32.6464844 L67.2929688,32.6464844 L67.2929688,31.8378906 Z M69.0507812,37.3691406 L71.5,37.3925781 L75.8125,37.3105469 L75.698125,37.6442969 C75.6353127,37.823359 75.5640629,38.020702 75.484375,38.2363281 L71.4003906,38.2832031 L68.9453125,38.2480469 C67.5390555,38.2011716 66.5664089,37.7285201 66.0273438,36.8300781 C65.7070296,37.1269546 65.2382843,37.6503869 64.6210938,38.4003906 L64.140625,37.4277344 L65.640625,35.9921875 L65.640625,35.9921875 L65.640625,32.0488281 L64.2460938,32.0488281 L64.2460938,31.1816406 L66.5429688,31.1816406 L66.5429688,36.1914062 C67.0234399,36.9609413 67.859369,37.3535155 69.0507812,37.3691406 Z M64.8554688,27.7480469 L65.6054688,27.2441406 L65.8375198,27.5335264 C66.2076772,28.0053753 66.6771989,28.6471905 67.2460938,29.4589844 L66.4140625,30.0449219 L65.8751162,29.2131233 C65.4797259,28.6137487 65.1398452,28.1253925 64.8554688,27.7480469 Z M79.7617188,35.6347656 L83.40625,35.6347656 L83.40625,34.2753906 L80.4765625,34.2753906 L80.4765625,33.4316406 L83.40625,33.4316406 L83.40625,32.0957031 L84.296875,32.0957031 L84.296875,33.4316406 L87.296875,33.4316406 L87.296875,34.2753906 L84.296875,34.2753906 L84.296875,35.6347656 L87.8476562,35.6347656 L87.8476562,36.4785156 L84.296875,36.4785156 L84.296875,38.4824219 L83.40625,38.4824219 L83.40625,36.4785156 L79.7617188,36.4785156 L79.7617188,35.6347656 Z M76.28125,34.2988281 L76.1640625,33.3378906 L77.2786453,33.0800783 C77.4600686,33.0371096 77.639322,32.9941408 77.8164062,32.9511719 L77.8164062,30.1621094 L76.2695312,30.1621094 L76.2695312,29.3417969 L77.8164062,29.3417969 L77.8164062,27.0566406 L78.6953125,27.0566406 L78.6953125,29.3417969 L80.1953125,29.3417969 L80.1953125,30.1621094 L78.6953125,30.1621094 L78.6953125,32.7285156 C79.1210959,32.6191401 79.531248,32.5097662 79.9257812,32.4003906 C79.9414063,32.7441423 79.9687498,33.033202 80.0078125,33.2675781 L79.1197921,33.5071613 C78.9761291,33.5466578 78.8346361,33.5859373 78.6953125,33.625 L78.6953125,37.1230469 C78.6953125,37.9902387 78.3007852,38.4238281 77.5117188,38.4238281 L76.7866221,38.4106446 C76.6723642,38.4077149 76.5468757,38.4042969 76.4101562,38.4003906 C76.3789061,38.0800765 76.3281254,37.7636734 76.2578125,37.4511719 L76.6705736,37.5032553 C76.9240456,37.5310331 77.1341138,37.5449219 77.3007812,37.5449219 C77.644533,37.5449219 77.8164062,37.3378927 77.8164062,36.9238281 L77.8164062,33.8652344 L76.28125,34.2988281 L76.28125,34.2988281 Z" id="请选择" fill="#AAADBA" fill-rule="nonzero"></path>
            <path d="M87.0507812,27.6074219 L87.0507812,28.3925781 C86.5468725,29.3105515 85.7851613,30.1113247 84.765625,30.7949219 C85.6289106,31.1503924 86.656244,31.4042961 87.8476562,31.5566406 L87.5781249,32.051758 C87.4960938,32.2060545 87.4218753,32.3496087 87.3554688,32.4824219 C85.9882744,32.2167955 84.8281298,31.8300807 83.875,31.3222656 C82.8867138,31.8417995 81.7148505,32.2753889 80.359375,32.6230469 C80.2656245,32.349608 80.1328134,32.0605484 79.9609375,31.7558594 C81.1289121,31.4863268 82.1425738,31.1621113 83.0019531,30.7832031 C82.0996049,30.1386687 81.4453145,29.349614 81.0390625,28.4160156 L80.359375,28.4160156 L80.359375,27.6074219 L87.0507812,27.6074219 Z M86.0078125,28.4160156 L81.9238281,28.4160156 C82.3457052,29.2011758 82.9941362,29.8476537 83.8691406,30.3554688 C84.8496143,29.8046847 85.5624978,29.1582068 86.0078125,28.4160156 L86.0078125,28.4160156 Z" id="形状结合" fill="#AAADBA" fill-rule="nonzero"></path>
            <rect id="矩形" fill="#D9D9D9" x="52" y="45" width="177" height="1"></rect>
            <g id="编组-19" transform="translate(217.000000, 25.000000)">
                <rect id="矩形" fill="#D8D8D8" opacity="0.01" x="0" y="0" width="12" height="12"></rect>
                <g id="编组-13" stroke="#AAADBA">
                    <circle id="椭圆形" cx="5" cy="5" r="4.5"></circle>
                    <rect id="矩形" fill="#D8D8D8" transform="translate(9.596194, 9.596194) rotate(-45.000000) translate(-9.596194, -9.596194) " x="9.59619408" y="7.59619408" width="1" height="4" rx="0.5"></rect>
                </g>
            </g>
            <text id="样式三" font-family="MicrosoftYaHei, Microsoft YaHei" font-size="12" font-weight="normal" line-spacing="22" fill="#525A6E">
                <tspan x="8" y="35">样式三</tspan>
            </text>
        </g>
    </g>
</svg>