<?xml version="1.0" encoding="UTF-8"?>
<svg width="241px" height="197px" viewBox="0 0 241 197" version="1.1" xmlns="http://www.w3.org/2000/svg" xmlns:xlink="http://www.w3.org/1999/xlink">
    <!-- Generator: Sketch 58 (84663) - https://sketch.com -->
    <title>tree-check/style1</title>
    <desc>Created with Sketch.</desc>
    <defs>
        <polygon id="path-1" points="5 7.68048012 0.123236337 2.89238489 0.908910539 2.12099568 5.00284025 6.13491308 9.05160734 2.15975994 9.83728155 2.93114915"></polygon>
        <polygon id="path-3" points="5 7.68048012 0.123236337 2.89238489 0.908910539 2.12099568 5.00284025 6.13491308 9.05160734 2.15975994 9.83728155 2.93114915"></polygon>
        <polygon id="path-5" points="5 7.68048012 0.123236337 2.89238489 0.908910539 2.12099568 5.00284025 6.13491308 9.05160734 2.15975994 9.83728155 2.93114915"></polygon>
    </defs>
    <g id="页面-1" stroke="none" stroke-width="1" fill="none" fill-rule="evenodd">
        <g id="配置组件V10分页2" transform="translate(-224.000000, -1962.000000)">
            <g id="编组" transform="translate(224.000000, 1631.000000)">
                <g id="tree-check/style1" transform="translate(0.000000, 331.000000)">
                    <g id="编组-20">
                        <rect id="矩形备份" fill-opacity="0.01" fill="#FAFAFA" x="0" y="0" width="241" height="197"></rect>
                        <g id="7.Icon/control/checkbox/Checked-" transform="translate(90.000000, 55.000000)">
                            <g id="icon/z/checkboxChecked-Copy" fill="#4F7DE7" fill-rule="nonzero">
                                <rect id="box" x="0" y="0" width="14" height="14" rx="2"></rect>
                            </g>
                            <g id="check" transform="translate(2.625000, 2.625000)" fill="#FFFFFF">
                                <rect id="Rectangle" opacity="0.01" x="0" y="0" width="8.75" height="8.75"></rect>
                                <path d="M8.28125,1.23046875 L7.59863281,1.23046875 C7.50292969,1.23046875 7.41210938,1.27441406 7.35351563,1.34960938 L3.32714844,6.45019531 L1.39648438,4.00390625 C1.33691406,3.92871094 1.24707031,3.88476562 1.15136719,3.88476562 L0.46875,3.88476562 C0.403320313,3.88476562 0.3671875,3.95996094 0.407226563,4.01074219 L3.08203125,7.39941406 C3.20703125,7.55761719 3.44726563,7.55761719 3.57324219,7.39941406 L8.34277344,1.35546875 C8.3828125,1.30566406 8.34667969,1.23046875 8.28125,1.23046875 Z" id="Path" stroke="#FFFFFF" stroke-width="0.833333333"></path>
                            </g>
                        </g>
                        <g id="7.Icon/control/checkbox/Checked-备份" transform="translate(80.000000, 123.000000)">
                            <g id="icon/z/checkboxChecked-Copy" fill="#4F7DE7" fill-rule="nonzero">
                                <rect id="box" x="0" y="0" width="14" height="14" rx="2"></rect>
                            </g>
                            <g id="check" transform="translate(2.625000, 2.625000)" fill="#FFFFFF">
                                <rect id="Rectangle" opacity="0.01" x="0" y="0" width="8.75" height="8.75"></rect>
                                <path d="M8.28125,1.23046875 L7.59863281,1.23046875 C7.50292969,1.23046875 7.41210938,1.27441406 7.35351563,1.34960938 L3.32714844,6.45019531 L1.39648438,4.00390625 C1.33691406,3.92871094 1.24707031,3.88476562 1.15136719,3.88476562 L0.46875,3.88476562 C0.403320313,3.88476562 0.3671875,3.95996094 0.407226563,4.01074219 L3.08203125,7.39941406 C3.20703125,7.55761719 3.44726563,7.55761719 3.57324219,7.39941406 L8.34277344,1.35546875 C8.3828125,1.30566406 8.34667969,1.23046875 8.28125,1.23046875 Z" id="Path" stroke="#FFFFFF" stroke-width="0.833333333"></path>
                            </g>
                        </g>
                        <rect id="outline" stroke="#DBDFE6" fill-rule="nonzero" x="90.5" y="89.5" width="13" height="13" rx="2"></rect>
                        <g id="编组-6" transform="translate(80.000000, 21.000000)">
                            <rect id="Rectangle" fill="#4F7DE7" x="0" y="0" width="14" height="14" rx="2"></rect>
                            <rect id="矩形" fill="#FFFFFF" x="3" y="6" width="8" height="2" rx="1"></rect>
                        </g>
                        <text id="parent1" font-family="ArialMT, Arial" font-size="12" font-weight="normal" fill="#333333">
                            <tspan x="102" y="32">parent1</tspan>
                        </text>
                        <text id="parent2" font-family="ArialMT, Arial" font-size="12" font-weight="normal" fill="#333333">
                            <tspan x="102" y="134">parent2</tspan>
                        </text>
                        <rect id="Rectangle" stroke="#D5DAE0" fill="#FFFFFF" x="80.5" y="157.5" width="13" height="13" rx="2"></rect>
                        <g id="arrow-down" transform="translate(67.000000, 164.000000) rotate(-90.000000) translate(-67.000000, -164.000000) translate(62.000000, 159.000000)">
                            <rect id="Rectangle" fill="#D8D8D8" opacity="0.01" x="0" y="0" width="10" height="10"></rect>
                            <mask id="mask-2" fill="white">
                                <use xlink:href="#path-1"></use>
                            </mask>
                            <use id="Path-2" fill="#333333" fill-rule="nonzero" xlink:href="#path-1"></use>
                        </g>
                        <text id="parent3" font-family="ArialMT, Arial" font-size="12" font-weight="normal" fill="#333333">
                            <tspan x="102" y="168">parent3</tspan>
                        </text>
                        <text id="leaf1-1" font-family="ArialMT, Arial" font-size="12" font-weight="normal" fill="#5A6677">
                            <tspan x="112" y="66">leaf1-1</tspan>
                        </text>
                        <text id="leaf1-2" font-family="ArialMT, Arial" font-size="12" font-weight="normal" fill="#5A6677">
                            <tspan x="112" y="100">leaf1-2</tspan>
                        </text>
                        <g id="arrow-down" transform="translate(62.000000, 23.000000)">
                            <rect id="Rectangle" fill="#D8D8D8" opacity="0.01" x="0" y="0" width="10" height="10"></rect>
                            <mask id="mask-4" fill="white">
                                <use xlink:href="#path-3"></use>
                            </mask>
                            <use id="Path-2" fill="#333333" fill-rule="nonzero" xlink:href="#path-3"></use>
                        </g>
                        <g id="arrow-down" transform="translate(67.000000, 130.000000) rotate(-90.000000) translate(-67.000000, -130.000000) translate(62.000000, 125.000000)">
                            <rect id="Rectangle" fill="#D8D8D8" opacity="0.01" x="0" y="0" width="10" height="10"></rect>
                            <mask id="mask-6" fill="white">
                                <use xlink:href="#path-5"></use>
                            </mask>
                            <use id="Path-2" fill="#333333" fill-rule="nonzero" xlink:href="#path-5"></use>
                        </g>
                        <g id="style1" transform="translate(12.000000, 14.000000)" fill="#525A6E" font-family="ArialMT, Arial" font-size="12" font-weight="normal">
                            <text>
                                <tspan x="0.65234375" y="15">style1</tspan>
                            </text>
                        </g>
                    </g>
                </g>
            </g>
        </g>
    </g>
</svg>