<?xml version="1.0" encoding="UTF-8"?>
<svg width="494px" height="184px" viewBox="0 0 494 184" version="1.1" xmlns="http://www.w3.org/2000/svg" xmlns:xlink="http://www.w3.org/1999/xlink">
    <!-- Generator: Sketch 59 (86127) - https://sketch.com -->
    <title>15-Tab-style5@</title>
    <desc>Created with Sketch.</desc>
    <g id="页面-1" stroke="none" stroke-width="1" fill="none" fill-rule="evenodd">
        <g id="一诺合同-配置组件-英文2" transform="translate(-224.000000, -7826.000000)">
            <rect fill="#F6F6F6" x="0" y="0" width="1440" height="10089"></rect>
            <path d="M210,149 L1430,149 C1431.10457,149 1432,149.895431 1432,151 L1432,9389.37849 L1432,9389.37849 L1432,10083 C1432,10084.1046 1431.10457,10085 1430,10085 L210,10085 C208.895431,10085 208,10084.1046 208,10083 L208,151 C208,149.895431 208.895431,149 210,149 Z" id="Rectangle" fill="#FFFFFF"></path>
            <g id="tab/style1备份-3" transform="translate(224.000000, 7826.000000)">
                <rect id="矩形" fill-opacity="0.01" fill="#FFFFFF" x="0" y="0" width="494" height="184"></rect>
                <g id="编组-23" transform="translate(79.000000, 10.000000)">
                    <text id="Tab1" font-family="PingFangSC-Medium, PingFang SC" font-size="12" font-weight="400" fill="#3889FF">
                        <tspan x="0.708" y="25">Tab1</tspan>
                    </text>
                    <rect id="Rectangle" fill="#F1F1F1" x="54" y="0" width="1" height="164"></rect>
                    <rect id="Rectangle" fill="#3889FF" x="53" y="15" width="1" height="12" rx="0.5"></rect>
                    <text id="Tab2" font-family="PingFangSC-Regular, PingFang SC" font-size="12" font-weight="normal" fill="#5A6677">
                        <tspan x="1.632" y="66">Tab2</tspan>
                    </text>
                    <text id="Tab4" font-family="PingFangSC-Regular, PingFang SC" font-size="12" font-weight="normal" fill="#5A6677">
                        <tspan x="1.632" y="148">Tab4</tspan>
                    </text>
                    <text id="Tab3" font-family="PingFangSC-Regular, PingFang SC" font-size="12" font-weight="normal" fill="#5A6677">
                        <tspan x="1.632" y="107">Tab3</tspan>
                    </text>
                </g>
                <text id="样式" font-family="MicrosoftYaHei, Microsoft YaHei" font-size="12" font-weight="normal" line-spacing="22" fill="#525A6E">
                    <tspan x="8" y="27">样式</tspan>
                </text>
            </g>
        </g>
    </g>
</svg>