<?xml version="1.0" encoding="UTF-8"?>
<svg width="494px" height="212px" viewBox="0 0 494 212" version="1.1" xmlns="http://www.w3.org/2000/svg" xmlns:xlink="http://www.w3.org/1999/xlink">
    <!-- Generator: Sketch 59 (86127) - https://sketch.com -->
    <title>11-List-style1</title>
    <desc>Created with Sketch.</desc>
    <g id="页面-1" stroke="none" stroke-width="1" fill="none" fill-rule="evenodd">
        <g id="一诺合同-配置组件备份-2" transform="translate(-224.000000, -4283.000000)">
            <rect fill="#F6F6F6" x="0" y="0" width="1440" height="9290"></rect>
            <path d="M210,149 L1430,149 C1431.10457,149 1432,149.895431 1432,151 L1432,8635.15678 L1432,8635.15678 L1432,9272 C1432,9273.10457 1431.10457,9274 1430,9274 L210,9274 C208.895431,9274 208,9273.10457 208,9272 L208,151 C208,149.895431 208.895431,149 210,149 Z" id="Rectangle" fill="#FFFFFF"></path>
            <g id="list-single/style1" transform="translate(224.000000, 4283.000000)">
                <g id="编组-20">
                    <rect id="矩形备份" fill-opacity="0.01" fill="#FAFAFA" x="0" y="0" width="494" height="212"></rect>
                    <g id="编组-12" transform="translate(52.000000, 22.000000)">
                        <g id="编组-11" transform="translate(0.000000, 26.000000)">
                            <g id="编组-2" transform="translate(0.000000, 36.000000)">
                                <rect id="矩形" fill="#F8FBFF" transform="translate(205.000000, 18.000000) scale(1, -1) translate(-205.000000, -18.000000) " x="0" y="0" width="410" height="36"></rect>
                                <text id="列表文案列表文案列表文案2" font-family="PingFangSC-Regular, PingFang SC" font-size="12" font-weight="normal" fill="#4D4D4D">
                                    <tspan x="12" y="23">列表文案列表文案列表文案2</tspan>
                                </text>
                            </g>
                            <g id="编组-4">
                                <rect id="矩形备份" fill="#FFFFFF" transform="translate(205.000000, 18.000000) scale(1, -1) translate(-205.000000, -18.000000) " x="0" y="0" width="410" height="36"></rect>
                                <text id="列表文案列表文案" font-family="PingFangSC-Regular, PingFang SC" font-size="12" font-weight="normal" fill="#4D4D4D">
                                    <tspan x="12" y="23">列表文案列表文案</tspan>
                                </text>
                            </g>
                            <g id="编组-2备份" transform="translate(0.000000, 108.000000)">
                                <rect id="矩形" fill="#F8FBFF" transform="translate(205.000000, 18.000000) scale(1, -1) translate(-205.000000, -18.000000) " x="0" y="0" width="410" height="36"></rect>
                                <text id="列表文案列表文案列表文案4" font-family="PingFangSC-Regular, PingFang SC" font-size="12" font-weight="normal" fill="#4D4D4D">
                                    <tspan x="12" y="23">列表文案列表文案列表文案4</tspan>
                                </text>
                            </g>
                            <g id="编组-4备份" transform="translate(0.000000, 72.000000)">
                                <rect id="矩形备份" fill="#FFFFFF" transform="translate(205.000000, 18.000000) scale(1, -1) translate(-205.000000, -18.000000) " x="0" y="0" width="410" height="36"></rect>
                                <text id="列表文案列表文案列表文案3" font-family="PingFangSC-Regular, PingFang SC" font-size="12" font-weight="normal" fill="#4D4D4D">
                                    <tspan x="12" y="23">列表文案列表文案列表文案3</tspan>
                                </text>
                            </g>
                        </g>
                        <text id="标题文案" font-family="PingFangSC-Regular, PingFang SC" font-size="14" font-weight="normal" fill="#333333">
                            <tspan x="12" y="15">标题文案</tspan>
                        </text>
                    </g>
                    <text id="样式" font-family="MicrosoftYaHei, Microsoft YaHei" font-size="12" font-weight="normal" line-spacing="22" fill="#525A6E">
                        <tspan x="8" y="35">样式</tspan>
                    </text>
                </g>
            </g>
        </g>
    </g>
</svg>