<?xml version="1.0" encoding="UTF-8"?>
<svg width="494px" height="77px" viewBox="0 0 494 77" version="1.1" xmlns="http://www.w3.org/2000/svg" xmlns:xlink="http://www.w3.org/1999/xlink">
    <!-- Generator: Sketch 59 (86127) - https://sketch.com -->
    <title>6-Radio-style1</title>
    <desc>Created with Sketch.</desc>
    <g id="页面-1" stroke="none" stroke-width="1" fill="none" fill-rule="evenodd">
        <g id="一诺合同-配置组件备份-2" transform="translate(-224.000000, -2763.000000)">
            <rect fill="#F6F6F6" x="0" y="0" width="1440" height="9290"></rect>
            <path d="M210,149 L1430,149 C1431.10457,149 1432,149.895431 1432,151 L1432,8635.15678 L1432,8635.15678 L1432,9272 C1432,9273.10457 1431.10457,9274 1430,9274 L210,9274 C208.895431,9274 208,9273.10457 208,9272 L208,151 C208,149.895431 208.895431,149 210,149 Z" id="Rectangle" fill="#FFFFFF"></path>
            <g id="编组-5" transform="translate(224.000000, 2763.000000)">
                <rect id="矩形" fill-opacity="0.01" fill="#FAFAFA" x="0" y="0" width="494" height="77"></rect>
                <g id="编组-19" transform="translate(52.000000, 17.000000)">
                    <text id="标题文本" font-family="PingFangSC-Regular, PingFang SC" font-size="12" font-weight="normal" fill="#525A6E">
                        <tspan x="0" y="13">标题文本</tspan>
                    </text>
                    <text id="option1" font-family="PingFangSC-Regular, PingFang SC" font-size="12" font-weight="normal" fill="#525A6E">
                        <tspan x="20" y="39">option1</tspan>
                    </text>
                    <circle id="unselected" stroke="#D5DAE0" fill="#FFFFFF" cx="8" cy="35" r="7.5"></circle>
                    <g id="selected" transform="translate(76.000000, 27.000000)" fill="#FFFFFF" stroke="#3889FF" stroke-width="5">
                        <circle id="椭圆形备份" cx="8" cy="8" r="5.5"></circle>
                    </g>
                    <circle id="unselected备份" stroke="#D5DAE0" fill="#FFFFFF" cx="163" cy="35" r="7.5"></circle>
                    <circle id="-Radio-Not-selectable" stroke="#E7EAED" fill="#F8F8F8" cx="242" cy="35" r="7.5"></circle>
                    <text id="option2" font-family="PingFangSC-Regular, PingFang SC" font-size="12" font-weight="normal" fill="#525A6E">
                        <tspan x="96" y="39">option2</tspan>
                    </text>
                    <text id="option3" font-family="PingFangSC-Regular, PingFang SC" font-size="12" font-weight="normal" fill="#525A6E">
                        <tspan x="175" y="39">option3</tspan>
                    </text>
                    <text id="option4" font-family="PingFangSC-Regular, PingFang SC" font-size="12" font-weight="normal" fill="#AAADBA">
                        <tspan x="254" y="39">option4</tspan>
                    </text>
                </g>
                <text id="样式" font-family="MicrosoftYaHei, Microsoft YaHei" font-size="12" font-weight="normal" line-spacing="22" fill="#525A6E">
                    <tspan x="8" y="41">样式</tspan>
                </text>
            </g>
        </g>
    </g>
</svg>