<?xml version="1.0" encoding="UTF-8"?>
<svg width="494px" height="52px" viewBox="0 0 494 52" version="1.1" xmlns="http://www.w3.org/2000/svg" xmlns:xlink="http://www.w3.org/1999/xlink">
    <!-- Generator: Sketch 58 (84663) - https://sketch.com -->
    <title>style3</title>
    <desc>Created with Sketch.</desc>
    <defs>
        <path d="M10.0830179,1.85884256 C10.4789962,0.832232161 11.6898453,0 12.7916369,0 L77.2083631,0 C78.3083138,0 79.5232225,0.837984383 79.9169821,1.85884256 L90,28 L0,28 L10.0830179,1.85884256 Z" id="path-1"></path>
        <path d="M8.95146002,1.89157494 C9.30963876,0.846886947 10.4890593,0 11.5951321,0 L84.4048679,0 C85.5067489,0 86.6873089,0.837984383 87.04854,1.89157494 L96,28 L-5.68434189e-14,28 L8.95146002,1.89157494 Z" id="path-3"></path>
    </defs>
    <g id="页面-1" stroke="none" stroke-width="1" fill="none" fill-rule="evenodd">
        <g id="配置组件V10分页4" transform="translate(-224.000000, -623.000000)">
            <g id="编组-41" transform="translate(224.000000, 461.000000)">
                <g id="style3" transform="translate(0.000000, 162.000000)">
                    <rect id="矩形" fill-opacity="0.01" fill="#FAFAFA" x="0" y="0" width="494" height="52"></rect>
                    <g id="Group-3" transform="translate(221.000000, 15.000000)">
                        <mask id="mask-2" fill="white">
                            <use xlink:href="#path-1"></use>
                        </mask>
                        <use id="Mask" fill="#EEEEEE" xlink:href="#path-1"></use>
                        <g id="Group" mask="url(#mask-2)">
                            <g transform="translate(58.000000, 8.000000)">
                                <rect id="Rectangle-17" fill="none" x="0" y="0" width="12" height="12"></rect>
                                <path d="M9.87461575,2.12538425 C10.0417947,2.29256325 10.0417947,2.56361396 9.87461575,2.73079296 L6.605,6 L9.87461575,9.26920704 C10.0208974,9.41548866 10.0391826,9.64129707 9.92947136,9.80746039 L9.87461575,9.87461575 C9.70743675,10.0417947 9.43638604,10.0417947 9.26920704,9.87461575 L9.26920704,9.87461575 L6,6.605 L2.73079296,9.87461575 C2.56361396,10.0417947 2.29256325,10.0417947 2.12538425,9.87461575 C1.95820525,9.70743675 1.95820525,9.43638604 2.12538425,9.26920704 L5.395,6 L2.12538425,2.73079296 C1.97910263,2.58451134 1.96081742,2.35870293 2.07052864,2.19253961 L2.12538425,2.12538425 C2.29256325,1.95820525 2.56361396,1.95820525 2.73079296,2.12538425 L2.73079296,2.12538425 L6,5.395 L9.26920704,2.12538425 C9.43638604,1.95820525 9.70743675,1.95820525 9.87461575,2.12538425 Z" id="Combined-Shape" fill-opacity="0.45" fill="#000000" fill-rule="evenodd"></path>
                            </g>
                        </g>
                        <text id="Text" mask="url(#mask-2)" font-family="ArialMT, Arial" font-size="12" font-weight="normal" fill="#4C4C4C">
                            <tspan x="20" y="18">Tab3</tspan>
                        </text>
                    </g>
                    <g id="Group-3-Copy" transform="translate(52.000000, 15.000000)">
                        <mask id="mask-4" fill="white">
                            <use xlink:href="#path-3"></use>
                        </mask>
                        <use id="Mask" fill="#1E3255" xlink:href="#path-3"></use>
                        <text id="Text" mask="url(#mask-4)" font-family="ArialMT, Arial" font-size="12" font-weight="normal" fill="#FFFFFF">
                            <tspan x="44" y="18">Tab1</tspan>
                        </text>
                        <rect id="Rectangle" fill="#D8D8D8" opacity="0.01" x="21" y="9" width="12" height="12"></rect>
                        <g id="Group-44" transform="translate(24.000000, 8.000000)" fill="#EEEEEE" fill-rule="nonzero">
                            <path d="M10.5,11 C10.7761424,11 11,11.2238576 11,11.5 C11,11.7761424 10.7761424,12 10.5,12 L1.5,12 C1.22385763,12 1,11.7761424 1,11.5 C1,11.2238576 1.22385763,11 1.5,11 L10.5,11 Z M11,0 C11.5522847,0 12,0.44771525 12,1 L12,9 C12,9.55228475 11.5522847,10 11,10 L1,10 C0.44771525,10 0,9.55228475 0,9 L0,1 C0,0.44771525 0.44771525,0 1,0 L11,0 Z M11,1 L1,1 L1,9 L11,9 L11,1 Z M5,2 L5,8 L2,8 L2,2 L5,2 Z M10,6 L10,8 L6,8 L6,6 L10,6 Z M10,4 L10,5 L6,5 L6,4 L10,4 Z M10,2 L10,3 L6,3 L6,2 L10,2 Z" id="Rectangle"></path>
                        </g>
                    </g>
                    <g id="Group-2" transform="translate(140.000000, 8.000000)">
                        <path d="M0.672015325,35.5 L89.3279847,35.5 L79.2941165,2.05377268 C79.0409107,1.20975326 78.0877206,0.5 77.2083631,0.5 L12.7916369,0.5 C11.911431,0.5 10.9591363,1.2095968 10.7058835,2.05377268 L0.672015325,35.5 Z" id="Mask" stroke="#E5E5E5" fill="#FFFFFF"></path>
                        <polygon id="Rectangle-1676" fill="#FFFFFF" points="1.33379862 35 89.7230212 35 90.0529035 36 1.05290352 36"></polygon>
                        <text id="Text" font-family="ArialMT, Arial" font-size="12" font-weight="normal" fill="#1E3255">
                            <tspan x="20" y="24">Tab2</tspan>
                        </text>
                        <g id="Group-85-Copy" transform="translate(58.000000, 14.000000)">
                            <rect id="Rectangle-17" x="0" y="0" width="12" height="12"></rect>
                            <path d="M9.87461575,2.12538425 C10.0417947,2.29256325 10.0417947,2.56361396 9.87461575,2.73079296 L6.605,6 L9.87461575,9.26920704 C10.0208974,9.41548866 10.0391826,9.64129707 9.92947136,9.80746039 L9.87461575,9.87461575 C9.70743675,10.0417947 9.43638604,10.0417947 9.26920704,9.87461575 L9.26920704,9.87461575 L6,6.605 L2.73079296,9.87461575 C2.56361396,10.0417947 2.29256325,10.0417947 2.12538425,9.87461575 C1.95820525,9.70743675 1.95820525,9.43638604 2.12538425,9.26920704 L5.395,6 L2.12538425,2.73079296 C1.97910263,2.58451134 1.96081742,2.35870293 2.07052864,2.19253961 L2.12538425,2.12538425 C2.29256325,1.95820525 2.56361396,1.95820525 2.73079296,2.12538425 L2.73079296,2.12538425 L6,5.395 L9.26920704,2.12538425 C9.43638604,1.95820525 9.70743675,1.95820525 9.87461575,2.12538425 Z" id="Combined-Shape" fill="#8C8C8C"></path>
                        </g>
                    </g>
                    <g transform="translate(12.000000, 15.000000)" fill="#525A6E" font-family="ArialMT, Arial" font-size="12" font-weight="normal">
                        <text>
                            <tspan x="0.65234375" y="15">style3</tspan>
                        </text>
                    </g>
                </g>
            </g>
        </g>
    </g>
</svg>