<?xml version="1.0" encoding="UTF-8"?>
<svg width="494px" height="86px" viewBox="0 0 494 86" version="1.1" xmlns="http://www.w3.org/2000/svg" xmlns:xlink="http://www.w3.org/1999/xlink">
    <!-- Generator: Sketch 59 (86127) - https://sketch.com -->
    <title>3-Selection2-style6</title>
    <desc>Created with Sketch.</desc>
    <g id="页面-1" stroke="none" stroke-width="1" fill="none" fill-rule="evenodd">
        <g id="一诺合同-配置组件2" transform="translate(-730.000000, -2227.000000)">
            <rect fill="#F6F6F6" x="0" y="0" width="1440" height="9873"></rect>
            <path d="M210,145 L1430,145 C1431.10457,145 1432,145.895431 1432,147 L1432,9184.5007 L1432,9184.5007 L1432,9863 C1432,9864.10457 1431.10457,9865 1430,9865 L210,9865 C208.895431,9865 208,9864.10457 208,9863 L208,147 C208,145.895431 208.895431,145 210,145 Z" id="Rectangle" fill="#FFFFFF"></path>
            <g id="input-style1备份-17" transform="translate(730.000000, 2227.000000)">
                <rect id="矩形备份" fill="#FAFAFA" opacity="0.01" x="0" y="0" width="494" height="86"></rect>
                <g id="编组-10备份-25" transform="translate(12.000000, 40.000000)">
                    <rect id="矩形备份-4" stroke-opacity="0.15" stroke="#000000" fill="#FFFFFF" x="48.5" y="0.5" width="275" height="25" rx="2"></rect>
                    <g id="date备份-6" transform="translate(140.000000, 8.000000)" stroke="#333333">
                        <rect id="矩形" x="0.5" y="1.5" width="9" height="8" rx="1"></rect>
                        <rect id="矩形" fill="#D8D8D8" x="3.5" y="0.5" width="1" height="2" rx="0.5"></rect>
                        <rect id="矩形" fill="#D8D8D8" x="6.5" y="0.5" width="1" height="2" rx="0.5"></rect>
                        <rect id="矩形" fill="#D8D8D8" x="0.5" y="4.5" width="9" height="1"></rect>
                        <rect id="矩形" fill="#D8D8D8" x="2.5" y="6.5" width="1" height="1" rx="0.5"></rect>
                        <rect id="矩形" fill="#D8D8D8" x="6.5" y="7.5" width="1" height="1" rx="0.5"></rect>
                    </g>
                    <g id="date备份-7" transform="translate(308.000000, 8.000000)" stroke="#333333">
                        <rect id="矩形" x="0.5" y="1.5" width="9" height="8" rx="1"></rect>
                        <rect id="矩形" fill="#D8D8D8" x="3.5" y="0.5" width="1" height="2" rx="0.5"></rect>
                        <rect id="矩形" fill="#D8D8D8" x="6.5" y="0.5" width="1" height="2" rx="0.5"></rect>
                        <rect id="矩形" fill="#D8D8D8" x="0.5" y="4.5" width="9" height="1"></rect>
                        <rect id="矩形" fill="#D8D8D8" x="2.5" y="6.5" width="1" height="1" rx="0.5"></rect>
                        <rect id="矩形" fill="#D8D8D8" x="6.5" y="7.5" width="1" height="1" rx="0.5"></rect>
                    </g>
                    <text id="2019-03-11" font-family="PingFangSC-Medium, PingFang SC" font-size="12" font-weight="400" fill="#333333">
                        <tspan x="56" y="18">2019-03-11</tspan>
                    </text>
                    <text id="2019-03-11备份" font-family="PingFangSC-Medium, PingFang SC" font-size="12" font-weight="400" fill="#333333">
                        <tspan x="213" y="18">2019-03-11</tspan>
                    </text>
                    <text id="样式二：" font-family="PingFangSC-Regular, PingFang SC" font-size="12" font-weight="normal" fill="#525A6E">
                        <tspan x="0" y="18">样式二：</tspan>
                    </text>
                </g>
            </g>
        </g>
    </g>
</svg>