<?xml version="1.0" encoding="UTF-8"?>
<svg width="241px" height="92px" viewBox="0 0 241 92" version="1.1" xmlns="http://www.w3.org/2000/svg" xmlns:xlink="http://www.w3.org/1999/xlink">
    <!-- Generator: Sketch 58 (84663) - https://sketch.com -->
    <title>Btn-style3</title>
    <desc>Created with Sketch.</desc>
    <defs>
        <polygon id="path-1" points="4.30251387 15.5021376 2.99218577 0.502137574 15.9921858 9.03637537 8.49919044 9.03637537"></polygon>
        <filter x="-19.9%" y="-13.2%" width="148.2%" height="143.2%" filterUnits="objectBoundingBox" id="filter-2">
            <feMorphology radius="0.5" operator="dilate" in="SourceAlpha" result="shadowSpreadOuter1"></feMorphology>
            <feOffset dx="0" dy="1" in="shadowSpreadOuter1" result="shadowOffsetOuter1"></feOffset>
            <feGaussianBlur stdDeviation="0.5" in="shadowOffsetOuter1" result="shadowBlurOuter1"></feGaussianBlur>
            <feComposite in="shadowBlurOuter1" in2="SourceAlpha" operator="out" result="shadowBlurOuter1"></feComposite>
            <feColorMatrix values="0 0 0 0 0   0 0 0 0 0   0 0 0 0 0  0 0 0 0.5 0" type="matrix" in="shadowBlurOuter1"></feColorMatrix>
        </filter>
        <linearGradient x1="50%" y1="0%" x2="50%" y2="100%" id="linearGradient-3">
            <stop stop-color="#FFFFFF" offset="0%"></stop>
            <stop stop-color="#EEEEEE" offset="100%"></stop>
        </linearGradient>
        <path d="M14.4165577,11.6253645 C19.9394052,11.6253645 24.4165577,16.102517 24.4165577,21.6253645 C24.4165577,27.148212 19.9394052,31.6253645 14.4165577,31.6253645 C8.89371023,31.6253645 4.41655772,27.148212 4.41655772,21.6253645 C4.41655772,16.102517 8.89371023,11.6253645 14.4165577,11.6253645 Z M6.41655772,21.6253645 C6.41655772,25.704999 9.47027128,29.0714004 13.4166064,29.5634768 L13.4166064,13.6872522 C9.47027128,14.1793286 6.41655772,17.5457301 6.41655772,21.6253645 Z M15.4175128,13.6873774 L15.4175128,29.5633516 C19.363362,29.0708295 22.4165577,25.704653 22.4165577,21.6253645 C22.4165577,17.546076 19.363362,14.1798995 15.4175128,13.6873774 Z" id="path-4"></path>
        <filter x="-10.0%" y="-5.0%" width="120.0%" height="120.0%" filterUnits="objectBoundingBox" id="filter-5">
            <feOffset dx="0" dy="1" in="SourceAlpha" result="shadowOffsetOuter1"></feOffset>
            <feGaussianBlur stdDeviation="0.5" in="shadowOffsetOuter1" result="shadowBlurOuter1"></feGaussianBlur>
            <feColorMatrix values="0 0 0 0 0   0 0 0 0 0   0 0 0 0 0  0 0 0 0.5 0" type="matrix" in="shadowBlurOuter1"></feColorMatrix>
        </filter>
    </defs>
    <g id="页面-1" stroke="none" stroke-width="1" fill="none" fill-rule="evenodd">
        <g id="配置组件V10分页1" transform="translate(-730.000000, -250.000000)">
            <g id="编组-53备份" transform="translate(224.000000, 226.000000)">
                <g id="Btn-style3" transform="translate(506.000000, 24.000000)">
                    <rect id="矩形" fill="#B9B9B9" opacity="0.01" x="0" y="0" width="241" height="92"></rect>
                    <g id="Group备份-6" transform="translate(115.000000, 12.000000)">
                        <rect id="Rectangle" fill="#4F7DE7" x="0" y="0" width="56" height="28" rx="14"></rect>
                        <text id="search" font-family="ArialMT, Arial" font-size="12" font-weight="normal" fill="#FFFFFF">
                            <tspan x="10" y="18">search</tspan>
                        </text>
                    </g>
                    <g id="Group备份-7" transform="translate(55.000000, 12.000000)">
                        <rect id="Rectangle" fill="#4F7DE7" x="0" y="0" width="56" height="28" rx="14"></rect>
                        <text id="create" font-family="ArialMT, Arial" font-size="12" font-weight="normal" fill="#FFFFFF">
                            <tspan x="19" y="18">create</tspan>
                        </text>
                        <g id="编组-9" transform="translate(3.000000, 8.000000)">
                            <rect id="矩形" fill="#D8D8D8" opacity="0.01" x="0" y="0" width="12" height="12"></rect>
                            <path d="M6,1 C6.27614237,1 6.5,1.22385763 6.5,1.5 L6.5,5.5 L10.5,5.5 C10.7761424,5.5 11,5.72385763 11,6 C11,6.27614237 10.7761424,6.5 10.5,6.5 L6.499,6.5 L6.5,10.5 C6.5,10.7761424 6.27614237,11 6,11 C5.72385763,11 5.5,10.7761424 5.5,10.5 L5.499,6.5 L1.5,6.5 C1.22385763,6.5 1,6.27614237 1,6 C1,5.72385763 1.22385763,5.5 1.5,5.5 L5.5,5.5 L5.5,1.5 C5.5,1.22385763 5.72385763,1 6,1 Z" id="矩形-3" fill="#FFFFFF"></path>
                        </g>
                    </g>
                    <g id="Group-2备份-3" transform="translate(175.000000, 12.000000)">
                        <rect id="Rectangle" stroke="#D5DAE0" fill="#FFFFFF" x="0.5" y="0.5" width="55" height="27" rx="13.5"></rect>
                        <text id="reset" font-family="ArialMT, Arial" font-size="12" font-weight="normal" fill="#333333">
                            <tspan x="15" y="18">reset</tspan>
                        </text>
                    </g>
                    <g id="Group备份-6" transform="translate(115.000000, 48.000000)">
                        <rect id="Rectangle" fill="#99AFE1" x="0" y="0" width="56" height="28" rx="14"></rect>
                        <text id="search" font-family="ArialMT, Arial" font-size="12" font-weight="normal" fill="#FFFFFF">
                            <tspan x="10" y="18">search</tspan>
                        </text>
                    </g>
                    <g id="Group备份-7" transform="translate(55.000000, 48.000000)">
                        <rect id="Rectangle" fill="#99AFE1" x="0" y="0" width="56" height="28" rx="14"></rect>
                        <text id="create" font-family="ArialMT, Arial" font-size="12" font-weight="normal" fill="#FFFFFF">
                            <tspan x="19" y="18">create</tspan>
                        </text>
                        <g id="编组-9" transform="translate(3.000000, 8.000000)">
                            <rect id="矩形" fill="#D8D8D8" opacity="0.01" x="0" y="0" width="12" height="12"></rect>
                            <path d="M6,1 C6.27614237,1 6.5,1.22385763 6.5,1.5 L6.5,5.5 L10.5,5.5 C10.7761424,5.5 11,5.72385763 11,6 C11,6.27614237 10.7761424,6.5 10.5,6.5 L6.499,6.5 L6.5,10.5 C6.5,10.7761424 6.27614237,11 6,11 C5.72385763,11 5.5,10.7761424 5.5,10.5 L5.499,6.5 L1.5,6.5 C1.22385763,6.5 1,6.27614237 1,6 C1,5.72385763 1.22385763,5.5 1.5,5.5 L5.5,5.5 L5.5,1.5 C5.5,1.22385763 5.72385763,1 6,1 Z" id="矩形-3" fill="#FFFFFF"></path>
                        </g>
                    </g>
                    <g id="编组-51" transform="translate(93.583442, 52.374635)">
                        <g id="路径-5" transform="translate(9.492186, 8.002138) rotate(4.000000) translate(-9.492186, -8.002138) ">
                            <use fill="black" fill-opacity="1" filter="url(#filter-2)" xlink:href="#path-1"></use>
                            <use stroke="#FFFFFF" stroke-width="1" fill="#000000" fill-rule="evenodd" xlink:href="#path-1"></use>
                        </g>
                        <g id="椭圆形" fill-rule="nonzero" transform="translate(14.416558, 21.625365) rotate(-45.000000) translate(-14.416558, -21.625365) ">
                            <use fill="black" fill-opacity="1" filter="url(#filter-5)" xlink:href="#path-4"></use>
                            <use fill="url(#linearGradient-3)" xlink:href="#path-4"></use>
                        </g>
                    </g>
                    <g id="Group-2备份-3" transform="translate(175.000000, 48.000000)">
                        <rect id="Rectangle" stroke="#E7EAED" fill="#F8F8F8" x="0.5" y="0.5" width="55" height="27" rx="13.5"></rect>
                        <text id="reset" font-family="ArialMT, Arial" font-size="12" font-weight="normal" fill="#AAADBA">
                            <tspan x="15" y="18">reset</tspan>
                        </text>
                    </g>
                    <text id="style3" font-family="ArialMT, Arial" font-size="12" font-weight="normal" line-spacing="22" fill="#525A6E">
                        <tspan x="15" y="25">style3</tspan>
                    </text>
                </g>
            </g>
        </g>
    </g>
</svg>