<?xml version="1.0" encoding="UTF-8"?>
<svg width="241px" height="86px" viewBox="0 0 241 86" version="1.1" xmlns="http://www.w3.org/2000/svg" xmlns:xlink="http://www.w3.org/1999/xlink">
    <!-- Generator: Sketch 59 (86127) - https://sketch.com -->
    <title>3-Selection2-style3</title>
    <desc>Created with Sketch.</desc>
    <g id="页面-1" stroke="none" stroke-width="1" fill="none" fill-rule="evenodd">
        <g id="一诺合同-配置组件-英文" transform="translate(-479.000000, -1873.000000)">
            <rect fill="#F6F6F6" x="0" y="0" width="1440" height="9873"></rect>
            <path d="M210,149 L1430,149 C1431.10457,149 1432,149.895431 1432,151 L1432,9188.5007 L1432,9188.5007 L1432,9867 C1432,9868.10457 1431.10457,9869 1430,9869 L210,9869 C208.895431,9869 208,9868.10457 208,9867 L208,151 C208,149.895431 208.895431,149 210,149 Z" id="Rectangle" fill="#FFFFFF"></path>
            <g id="input-style1备份-15" transform="translate(479.000000, 1873.000000)">
                <rect id="矩形备份" fill="#FAFAFA" opacity="0.01" x="0" y="0" width="241" height="86"></rect>
                <g id="编组-10备份-25" transform="translate(7.000000, 40.000000)">
                    <rect id="矩形备份-4" stroke-opacity="0.15" stroke="#000000" fill="#FFFFFF" x="49.5" y="0.5" width="176" height="25" rx="2"></rect>
                    <g id="编组-2备份-7" transform="translate(210.000000, 8.000000)">
                        <rect id="矩形" fill="#D8D8D8" opacity="0.01" x="0" y="0" width="10" height="10"></rect>
                        <path d="M3.07437422,1.34394406 C3.3505166,1.34394406 3.57437422,1.56780169 3.57437422,1.84394406 L3.57437422,5.34394406 L7.07437422,5.34394406 C7.3505166,5.34394406 7.57437422,5.56780169 7.57437422,5.84394406 C7.57437422,6.12008644 7.3505166,6.34394406 7.07437422,6.34394406 L3.07437422,6.34394406 L3.07437422,6.34394406 C2.79823185,6.34394406 2.57437422,6.12008644 2.57437422,5.84394406 L2.57437422,1.84394406 C2.57437422,1.56780169 2.79823185,1.34394406 3.07437422,1.34394406 Z" id="矩形-2" fill="#666666" transform="translate(5.074374, 3.843944) rotate(-45.000000) translate(-5.074374, -3.843944) "></path>
                    </g>
                    <g id="编组-21" transform="translate(55.000000, 4.000000)">
                        <rect id="矩形" fill="#E8F0FD" x="0" y="0" width="62" height="18" rx="2"></rect>
                        <g id="-delete备份" transform="translate(48.000000, 4.000000)">
                            <rect id="Rectangle" fill="#D8D8D8" opacity="0.01" x="0" y="0" width="10" height="10"></rect>
                            <path d="M5.70710678,5 L8.53553391,7.82842712 C8.73079605,8.02368927 8.73079605,8.34027176 8.53553391,8.53553391 C8.34027176,8.73079605 8.02368927,8.73079605 7.82842712,8.53553391 L5,5.70710678 L2.17157288,8.53553391 C1.97631073,8.73079605 1.65972824,8.73079605 1.46446609,8.53553391 C1.26920395,8.34027176 1.26920395,8.02368927 1.46446609,7.82842712 L4.29289322,5 L1.46446609,2.17157288 C1.26920395,1.97631073 1.26920395,1.65972824 1.46446609,1.46446609 C1.65972824,1.26920395 1.97631073,1.26920395 2.17157288,1.46446609 L5,4.29289322 L7.82842712,1.46446609 C8.02368927,1.26920395 8.34027176,1.26920395 8.53553391,1.46446609 C8.73079605,1.65972824 8.73079605,1.97631073 8.53553391,2.17157288 L5.70710678,5 Z" id="Path" fill="#8B8B8B"></path>
                        </g>
                        <text id="Select1" font-family="PingFangSC-Regular, PingFang SC" font-size="12" font-weight="normal" fill="#525A6E">
                            <tspan x="4" y="14">Select1</tspan>
                        </text>
                    </g>
                    <g id="编组-26" transform="translate(121.000000, 4.000000)">
                        <rect id="矩形备份-24" fill="#E8F0FD" x="0" y="0" width="62" height="18" rx="2"></rect>
                        <g id="Group-46备份" transform="translate(48.000000, 4.000000)">
                            <rect id="Rectangle" fill="#D8D8D8" opacity="0.01" x="0" y="0" width="10" height="10"></rect>
                            <path d="M5.70710678,5 L8.53553391,7.82842712 C8.73079605,8.02368927 8.73079605,8.34027176 8.53553391,8.53553391 C8.34027176,8.73079605 8.02368927,8.73079605 7.82842712,8.53553391 L5,5.70710678 L2.17157288,8.53553391 C1.97631073,8.73079605 1.65972824,8.73079605 1.46446609,8.53553391 C1.26920395,8.34027176 1.26920395,8.02368927 1.46446609,7.82842712 L4.29289322,5 L1.46446609,2.17157288 C1.26920395,1.97631073 1.26920395,1.65972824 1.46446609,1.46446609 C1.65972824,1.26920395 1.97631073,1.26920395 2.17157288,1.46446609 L5,4.29289322 L7.82842712,1.46446609 C8.02368927,1.26920395 8.34027176,1.26920395 8.53553391,1.46446609 C8.73079605,1.65972824 8.73079605,1.97631073 8.53553391,2.17157288 L5.70710678,5 Z" id="Path" fill="#8B8B8B"></path>
                        </g>
                        <text id="Select2" font-family="PingFangSC-Regular, PingFang SC" font-size="12" font-weight="normal" fill="#525A6E">
                            <tspan x="4" y="14">Select2</tspan>
                        </text>
                    </g>
                    <text id="style-2：" font-family="PingFangSC-Regular, PingFang SC" font-size="12" font-weight="normal" fill="#4A5C90">
                        <tspan x="0.052" y="18">style 2：</tspan>
                    </text>
                </g>
            </g>
        </g>
    </g>
</svg>