<?xml version="1.0" encoding="UTF-8"?>
<svg width="246px" height="88px" viewBox="0 0 246 88" version="1.1" xmlns="http://www.w3.org/2000/svg" xmlns:xlink="http://www.w3.org/1999/xlink">
    <!-- Generator: Sketch 59 (86127) - https://sketch.com -->
    <title>1-Button</title>
    <desc>Created with Sketch.</desc>
    <g id="页面-1" stroke="none" stroke-width="1" fill="none" fill-rule="evenodd">
        <g id="一诺合同-配置组件备份-2" transform="translate(-224.000000, -250.000000)">
            <rect fill="#F6F6F6" x="0" y="0" width="1440" height="9290"></rect>
            <path d="M210,149 L1430,149 C1431.10457,149 1432,149.895431 1432,151 L1432,8635.15678 L1432,8635.15678 L1432,9272 C1432,9273.10457 1431.10457,9274 1430,9274 L210,9274 C208.895431,9274 208,9273.10457 208,9272 L208,151 C208,149.895431 208.895431,149 210,149 Z" id="Rectangle" fill="#FFFFFF"></path>
            <g id="编组-4" transform="translate(224.000000, 250.000000)">
                <rect id="矩形" fill="#FAFAFA" opacity="0.01" x="0" y="0" width="241" height="88"></rect>
                <g id="编组-2" transform="translate(52.000000, 12.000000)">
                    <rect id="Rectangle" fill="#3889FF" x="0" y="0" width="74" height="26" rx="13"></rect>
                    <text id="新建" font-family="PingFangSC-Regular, PingFang SC" font-size="12" font-weight="normal" fill="#FFFFFF">
                        <tspan x="34" y="18">新建</tspan>
                    </text>
                    <g id="编组-9" transform="translate(16.000000, 7.000000)">
                        <rect id="矩形" fill="#D8D8D8" opacity="0.01" x="0" y="0" width="12" height="12"></rect>
                        <path d="M6,1 C6.27614237,1 6.5,1.22385763 6.5,1.5 L6.5,5.5 L10.5,5.5 C10.7761424,5.5 11,5.72385763 11,6 C11,6.27614237 10.7761424,6.5 10.5,6.5 L6.499,6.5 L6.5,10.5 C6.5,10.7761424 6.27614237,11 6,11 C5.72385763,11 5.5,10.7761424 5.5,10.5 L5.499,6.5 L1.5,6.5 C1.22385763,6.5 1,6.27614237 1,6 C1,5.72385763 1.22385763,5.5 1.5,5.5 L5.5,5.5 L5.5,1.5 C5.5,1.22385763 5.72385763,1 6,1 Z" id="矩形-3" fill="#FFFFFF"></path>
                    </g>
                </g>
                <g id="Group备份-2" transform="translate(130.000000, 12.000000)">
                    <rect id="Rectangle" fill="#357BE1" x="0" y="0" width="56" height="26" rx="13"></rect>
                    <text id="查询" font-family="PingFangSC-Regular, PingFang SC" font-size="12" font-weight="normal" fill="#FFFFFF">
                        <tspan x="16" y="18">查询</tspan>
                    </text>
                    <g id="编组-9" transform="translate(8.000000, 8.000000)" fill="#D8D8D8" opacity="0.01">
                        <rect id="矩形" x="0" y="0" width="12" height="12"></rect>
                    </g>
                </g>
                <g id="Group备份-3" transform="translate(190.000000, 12.000000)">
                    <g id="Group-2">
                        <rect id="Rectangle" stroke="#D5DAE0" fill="#FFFFFF" x="0.5" y="0.5" width="55" height="25" rx="12.5"></rect>
                        <text id="重置" font-family="PingFangSC-Regular, PingFang SC" font-size="12" font-weight="normal" fill="#576679">
                            <tspan x="16" y="18">重置</tspan>
                        </text>
                    </g>
                </g>
                <g id="编组-2备份" transform="translate(52.000000, 46.000000)">
                    <rect id="Rectangle" fill-opacity="0.5" fill="#3889FF" x="0" y="0" width="74" height="26" rx="13"></rect>
                    <text id="新建" font-family="PingFangSC-Regular, PingFang SC" font-size="12" font-weight="normal" fill="#FFFFFF">
                        <tspan x="34" y="18">新建</tspan>
                    </text>
                    <g id="编组-9" transform="translate(16.000000, 7.000000)">
                        <rect id="矩形" fill="#D8D8D8" opacity="0.01" x="0" y="0" width="12" height="12"></rect>
                        <path d="M6,1 C6.27614237,1 6.5,1.22385763 6.5,1.5 L6.5,5.5 L10.5,5.5 C10.7761424,5.5 11,5.72385763 11,6 C11,6.27614237 10.7761424,6.5 10.5,6.5 L6.499,6.5 L6.5,10.5 C6.5,10.7761424 6.27614237,11 6,11 C5.72385763,11 5.5,10.7761424 5.5,10.5 L5.499,6.5 L1.5,6.5 C1.22385763,6.5 1,6.27614237 1,6 C1,5.72385763 1.22385763,5.5 1.5,5.5 L5.5,5.5 L5.5,1.5 C5.5,1.22385763 5.72385763,1 6,1 Z" id="矩形-3" fill="#FFFFFF"></path>
                    </g>
                </g>
                <g id="Group备份-5" transform="translate(130.000000, 46.000000)">
                    <rect id="Rectangle" fill-opacity="0.5" fill="#3889FF" x="0" y="0" width="56" height="26" rx="13"></rect>
                    <text id="查询" font-family="PingFangSC-Regular, PingFang SC" font-size="12" font-weight="normal" fill="#FFFFFF">
                        <tspan x="16" y="18">查询</tspan>
                    </text>
                    <g id="编组-9" transform="translate(8.000000, 8.000000)" fill="#D8D8D8" opacity="0.01">
                        <rect id="矩形" x="0" y="0" width="12" height="12"></rect>
                    </g>
                </g>
                <g id="Group备份-4" transform="translate(190.000000, 46.000000)">
                    <g id="Group-2">
                        <rect id="Rectangle" stroke="#D5DAE0" fill="#F8F8F8" x="0.5" y="0.5" width="55" height="25" rx="12.5"></rect>
                        <text id="重置" font-family="PingFangSC-Regular, PingFang SC" font-size="12" font-weight="normal" fill="#576679" fill-opacity="0.5">
                            <tspan x="16" y="18">重置</tspan>
                        </text>
                    </g>
                </g>
                <text id="样式" font-family="MicrosoftYaHei, Microsoft YaHei" font-size="12" font-weight="normal" line-spacing="22" fill="#525A6E">
                    <tspan x="8" y="27">样式</tspan>
                </text>
                <g id="点击数-copy" transform="translate(147.000000, 26.000000)">
                    <path d="M15.7642312,6.00637625 C15.3623769,6.00637625 15.0075481,6.15390129 14.6933323,6.35622132 C14.3833914,5.65231618 13.6737339,5.15705358 12.84865,5.15705358 C12.4703085,5.15705358 12.1347174,5.28982611 11.8311891,5.46896364 C11.5875115,4.64282348 10.8436536,4.02532584 9.92879378,4.02532584 C9.59747773,4.02532584 9.29822453,4.12227086 9.02248408,4.26347339 L9.02248408,1.98526542 C9.02248408,0.891472705 8.1183119,0 7.00893752,0 C5.89956313,0 4.99539098,0.891472684 4.99539098,1.98526542 L4.99539098,10.3836547 L3.43499926,8.84517933 C2.67404112,8.09490918 1.34450188,8.09701668 0.589956315,8.84517933 C0.209477234,9.22031442 0,9.71768451 0,10.2487746 C0,10.7798648 0.209477234,11.2772348 0.589956315,11.6523699 L6.21591654,17.2056336 C6.99824992,17.9980537 8.31068897,19.3236715 10.8799915,19.3236715 C15.1999252,19.3236715 17.7777778,17.1950961 17.7777778,13.6292053 L17.7777778,7.99164165 C17.7777778,6.89784894 16.8757431,6.00637625 15.7642312,6.00637625 Z" id="Shape" stroke="#4C4C4C" fill="#FFFFFF" fill-rule="nonzero"></path>
                    <rect id="Rectangle" fill="#4C4C4C" x="8.67360423" y="10.1424885" width="1.11111111" height="5.55555556" rx="0.555555556"></rect>
                    <rect id="Rectangle-Copy" fill="#4C4C4C" x="11.6244931" y="10.9330883" width="1.11111111" height="5.55555556" rx="0.555555556"></rect>
                    <rect id="Rectangle-Copy-2" fill="#4C4C4C" x="14.3960548" y="11.0005061" width="1.11111111" height="4.44444444" rx="0.555555556"></rect>
                </g>
            </g>
        </g>
    </g>
</svg>