<?xml version="1.0" encoding="UTF-8"?>
<svg width="241px" height="68px" viewBox="0 0 241 68" version="1.1" xmlns="http://www.w3.org/2000/svg" xmlns:xlink="http://www.w3.org/1999/xlink">
    <!-- Generator: Sketch 58 (84663) - https://sketch.com -->
    <title>number-input/style1</title>
    <desc>Created with Sketch.</desc>
    <g id="页面-1" stroke="none" stroke-width="1" fill="none" fill-rule="evenodd">
        <g id="number-input/style1">
            <rect id="矩形备份-11" fill-opacity="0.01" fill="#FAFAFA" x="0" y="0" width="241" height="68"></rect>
            <text id="样式一备份" font-family="MicrosoftYaHei, Microsoft YaHei" font-size="12" font-weight="normal" line-spacing="22" fill="#525A6E">
                <tspan x="8" y="35">样式一</tspan>
            </text>
            <rect id="矩形备份-2" stroke="#D9D9D9" fill="#FFFFFF" x="52.5" y="20.5" width="176" height="27" rx="2"></rect>
            <g id="down" transform="translate(211.000000, 34.000000)">
                <rect id="矩形" fill="#D8D8D8" opacity="0.01" x="0" y="0" width="10" height="10"></rect>
                <path d="M3.07437422,1.34394406 C3.3505166,1.34394406 3.57437422,1.56780169 3.57437422,1.84394406 L3.57437422,5.34394406 L7.07437422,5.34394406 C7.3505166,5.34394406 7.57437422,5.56780169 7.57437422,5.84394406 C7.57437422,6.12008644 7.3505166,6.34394406 7.07437422,6.34394406 L3.07437422,6.34394406 L3.07437422,6.34394406 C2.79823185,6.34394406 2.57437422,6.12008644 2.57437422,5.84394406 L2.57437422,1.84394406 C2.57437422,1.56780169 2.79823185,1.34394406 3.07437422,1.34394406 Z" id="矩形-2" fill="#5A6677" transform="translate(5.074374, 3.843944) rotate(-45.000000) translate(-5.074374, -3.843944) "></path>
            </g>
            <g id="up" transform="translate(216.000000, 29.000000) scale(1, -1) translate(-216.000000, -29.000000) translate(211.000000, 24.000000)">
                <rect id="矩形" fill="#D8D8D8" opacity="0.01" x="0" y="0" width="10" height="10"></rect>
                <path d="M3.07437422,1.34394406 C3.3505166,1.34394406 3.57437422,1.56780169 3.57437422,1.84394406 L3.57437422,5.34394406 L7.07437422,5.34394406 C7.3505166,5.34394406 7.57437422,5.56780169 7.57437422,5.84394406 C7.57437422,6.12008644 7.3505166,6.34394406 7.07437422,6.34394406 L3.07437422,6.34394406 L3.07437422,6.34394406 C2.79823185,6.34394406 2.57437422,6.12008644 2.57437422,5.84394406 L2.57437422,1.84394406 C2.57437422,1.56780169 2.79823185,1.34394406 3.07437422,1.34394406 Z" id="矩形-2" fill="#5A6677" transform="translate(5.074374, 3.843944) rotate(-45.000000) translate(-5.074374, -3.843944) "></path>
            </g>
            <path d="M143.9375,39.6074219 L143.251953,39.6074219 L143.251953,38.2832031 C142.361324,38.2832031 141.62305,38.0996112 141.037109,37.7324219 L141.037109,36.5546875 C141.62305,37.0351587 142.361324,37.2929686 143.251953,37.328125 L143.251953,34.1933594 C142.310542,33.7519509 141.69922,33.3398457 141.417969,32.9570312 C141.136717,32.5742168 140.996094,32.1210964 140.996094,31.5976562 C140.996094,30.9882782 141.206053,30.4580101 141.625977,30.0068359 C142.045901,29.5556618 142.587887,29.2851567 143.251953,29.1953125 L143.251953,28.0527344 L143.9375,28.0527344 L143.9375,29.171875 C144.792973,29.2031252 145.374998,29.3242177 145.683594,29.5351562 L145.683594,30.6835938 C145.234373,30.339842 144.652347,30.154297 143.9375,30.1269531 L143.9375,33.3613281 C144.820317,33.7636739 145.427733,34.1650371 145.759766,34.5654297 C146.091799,34.9658223 146.257812,35.4160131 146.257812,35.9160156 C146.257812,36.544925 146.04883,37.0615214 145.630859,37.4658203 C145.212889,37.8701192 144.648441,38.1249995 143.9375,38.2304688 L143.9375,39.6074219 Z M143.251953,30.1621094 C142.501949,30.3261727 142.126953,30.7617152 142.126953,31.46875 C142.126953,31.8085954 142.20703,32.0898426 142.367188,32.3125 C142.527345,32.5351574 142.822263,32.7656238 143.251953,33.0039062 L143.251953,30.1621094 Z M143.9375,37.28125 C144.730473,37.1093741 145.126953,36.6855503 145.126953,36.0097656 C145.126953,35.4433565 144.730473,34.9492209 143.9375,34.5273438 L143.9375,37.28125 Z M153.347656,38.2832031 L148.144531,38.2832031 L148.144531,37.2929688 L150.177734,37.2929688 L150.177734,30.4023438 L148.091797,31.0058594 L148.091797,29.9511719 L151.320312,29.0136719 L151.320312,37.2929688 L153.347656,37.2929688 L153.347656,38.2832031 Z M160.214844,38.2832031 L154.695312,38.2832031 L154.695312,37.2871094 L157.332031,34.65625 L157.739142,34.2384754 C158.243518,33.7056624 158.59414,33.2697283 158.791016,32.9306641 C159.037111,32.5068338 159.160156,32.0683616 159.160156,31.6152344 C159.160156,31.0996068 159.015626,30.7041029 158.726562,30.4287109 C158.437499,30.1533189 158.019534,30.015625 157.472656,30.015625 C156.664058,30.015625 155.892582,30.3593716 155.158203,31.046875 L155.158203,29.8808594 C155.87305,29.3300754 156.705073,29.0546875 157.654297,29.0546875 C158.470707,29.0546875 159.115232,29.2753884 159.587891,29.7167969 C160.060549,30.1582053 160.296875,30.7519494 160.296875,31.4980469 C160.296875,32.0605497 160.145509,32.612302 159.842773,33.1533203 C159.540038,33.6943386 158.966801,34.3828083 158.123047,35.21875 L156.054688,37.2402344 L156.054688,37.2636719 L160.214844,37.2636719 L160.214844,38.2832031 Z M163.191406,36.8242188 L162.189453,39.9472656 L161.357422,39.9472656 L162.083984,36.8242188 L163.191406,36.8242188 Z M164.533203,33.9238281 C164.533203,32.3222576 164.798825,31.1103557 165.330078,30.2880859 C165.861331,29.4658162 166.630854,29.0546875 167.638672,29.0546875 C169.560556,29.0546875 170.521484,30.6054532 170.521484,33.7070312 C170.521484,35.2382889 170.250979,36.4091756 169.709961,37.2197266 C169.168943,38.0302775 168.410161,38.4355469 167.433594,38.4355469 C166.511714,38.4355469 165.797854,38.0507851 165.291992,37.28125 C164.78613,36.5117149 164.533203,35.3925855 164.533203,33.9238281 Z M165.705078,33.8710938 C165.705078,36.2812621 166.3164,37.4863281 167.539062,37.4863281 C168.742194,37.4863281 169.34375,36.261731 169.34375,33.8125 C169.34375,31.2773311 168.753912,30.0097656 167.574219,30.0097656 C166.328119,30.0097656 165.705078,31.2968621 165.705078,33.8710938 Z M171.570312,33.9238281 C171.570312,32.3222576 171.835935,31.1103557 172.367188,30.2880859 C172.89844,29.4658162 173.667964,29.0546875 174.675781,29.0546875 C176.597666,29.0546875 177.558594,30.6054532 177.558594,33.7070312 C177.558594,35.2382889 177.288089,36.4091756 176.74707,37.2197266 C176.206052,38.0302775 175.447271,38.4355469 174.470703,38.4355469 C173.548824,38.4355469 172.834963,38.0507851 172.329102,37.28125 C171.82324,36.5117149 171.570312,35.3925855 171.570312,33.9238281 Z M172.742188,33.8710938 C172.742188,36.2812621 173.35351,37.4863281 174.576172,37.4863281 C175.779303,37.4863281 176.380859,36.261731 176.380859,33.8125 C176.380859,31.2773311 175.791022,30.0097656 174.611328,30.0097656 C173.365228,30.0097656 172.742188,31.2968621 172.742188,33.8710938 Z M178.607422,33.9238281 C178.607422,32.3222576 178.873044,31.1103557 179.404297,30.2880859 C179.93555,29.4658162 180.705073,29.0546875 181.712891,29.0546875 C183.634775,29.0546875 184.595703,30.6054532 184.595703,33.7070312 C184.595703,35.2382889 184.325198,36.4091756 183.78418,37.2197266 C183.243161,38.0302775 182.48438,38.4355469 181.507812,38.4355469 C180.585933,38.4355469 179.872073,38.0507851 179.366211,37.28125 C178.860349,36.5117149 178.607422,35.3925855 178.607422,33.9238281 Z M179.779297,33.8710938 C179.779297,36.2812621 180.390619,37.4863281 181.613281,37.4863281 C182.816412,37.4863281 183.417969,36.261731 183.417969,33.8125 C183.417969,31.2773311 182.828131,30.0097656 181.648438,30.0097656 C180.402338,30.0097656 179.779297,31.2968621 179.779297,33.8710938 Z M185.808594,37.6796875 C185.808594,37.4687489 185.880859,37.2910163 186.025391,37.1464844 C186.169923,37.0019524 186.349608,36.9296875 186.564453,36.9296875 C186.783204,36.9296875 186.964843,37.002929 187.109375,37.1494141 C187.253907,37.2958992 187.326172,37.4726552 187.326172,37.6796875 C187.326172,37.8828135 187.253907,38.0576165 187.109375,38.2041016 C186.964843,38.3505867 186.781251,38.4238281 186.558594,38.4238281 C186.343749,38.4238281 186.16504,38.3505867 186.022461,38.2041016 C185.879882,38.0576165 185.808594,37.8828135 185.808594,37.6796875 Z M188.533203,33.9238281 C188.533203,32.3222576 188.798825,31.1103557 189.330078,30.2880859 C189.861331,29.4658162 190.630854,29.0546875 191.638672,29.0546875 C193.560556,29.0546875 194.521484,30.6054532 194.521484,33.7070312 C194.521484,35.2382889 194.250979,36.4091756 193.709961,37.2197266 C193.168943,38.0302775 192.410161,38.4355469 191.433594,38.4355469 C190.511714,38.4355469 189.797854,38.0507851 189.291992,37.28125 C188.78613,36.5117149 188.533203,35.3925855 188.533203,33.9238281 Z M189.705078,33.8710938 C189.705078,36.2812621 190.3164,37.4863281 191.539062,37.4863281 C192.742194,37.4863281 193.34375,36.261731 193.34375,33.8125 C193.34375,31.2773311 192.753912,30.0097656 191.574219,30.0097656 C190.328119,30.0097656 189.705078,31.2968621 189.705078,33.8710938 Z M198.675781,29.0546875 C200.597666,29.0546875 201.558594,30.6054532 201.558594,33.7070312 C201.558594,35.2382889 201.288089,36.4091756 200.74707,37.2197266 C200.206052,38.0302775 199.447271,38.4355469 198.470703,38.4355469 C197.548824,38.4355469 196.834963,38.0507851 196.329102,37.28125 C195.82324,36.5117149 195.570312,35.3925855 195.570312,33.9238281 C195.570312,32.3222576 195.835935,31.1103557 196.367188,30.2880859 C196.89844,29.4658162 197.667964,29.0546875 198.675781,29.0546875 Z M198.611328,30.0097656 C197.365228,30.0097656 196.742188,31.2968621 196.742188,33.8710938 C196.742188,36.2812621 197.35351,37.4863281 198.576172,37.4863281 C199.779303,37.4863281 200.380859,36.261731 200.380859,33.8125 C200.380859,31.2773311 199.791022,30.0097656 198.611328,30.0097656 Z" id="$12,000.00" fill="#333333" fill-rule="nonzero"></path>
        </g>
    </g>
</svg>