<?xml version="1.0" encoding="UTF-8"?>
<svg width="241px" height="108px" viewBox="0 0 241 108" version="1.1" xmlns="http://www.w3.org/2000/svg" xmlns:xlink="http://www.w3.org/1999/xlink">
    <!-- Generator: Sketch 59 (86127) - https://sketch.com -->
    <title>3-Selection1-style2</title>
    <desc>Created with Sketch.</desc>
    <g id="页面-1" stroke="none" stroke-width="1" fill="none" fill-rule="evenodd">
        <g id="一诺合同-配置组件2" transform="translate(-224.000000, -1733.000000)">
            <rect fill="#F6F6F6" x="0" y="0" width="1440" height="9873"></rect>
            <path d="M210,145 L1430,145 C1431.10457,145 1432,145.895431 1432,147 L1432,9184.5007 L1432,9184.5007 L1432,9863 C1432,9864.10457 1431.10457,9865 1430,9865 L210,9865 C208.895431,9865 208,9864.10457 208,9863 L208,147 C208,145.895431 208.895431,145 210,145 Z" id="Rectangle" fill="#FFFFFF"></path>
            <g id="input-style1备份-6" transform="translate(224.000000, 1733.000000)">
                <g id="编组-32">
                    <rect id="矩形备份" fill="#FAFAFA" opacity="0.01" x="0" y="0" width="241" height="108"></rect>
                    <g id="编组-4" transform="translate(32.000000, 19.000000)">
                        <g id="编组-10备份-24">
                            <rect id="矩形备份-4" stroke="#B8D7FF" fill="#EFF6FF" x="0.5" y="21.5" width="176" height="25" rx="2"></rect>
                            <g id="arrow-down备份-7" transform="translate(161.000000, 29.000000)">
                                <rect id="矩形" fill="#D8D8D8" opacity="0.01" x="0" y="0" width="10" height="10"></rect>
                                <path d="M3.07437422,1.34394406 C3.3505166,1.34394406 3.57437422,1.56780169 3.57437422,1.84394406 L3.57437422,5.34394406 L7.07437422,5.34394406 C7.3505166,5.34394406 7.57437422,5.56780169 7.57437422,5.84394406 C7.57437422,6.12008644 7.3505166,6.34394406 7.07437422,6.34394406 L3.07437422,6.34394406 L3.07437422,6.34394406 C2.79823185,6.34394406 2.57437422,6.12008644 2.57437422,5.84394406 L2.57437422,1.84394406 C2.57437422,1.56780169 2.79823185,1.34394406 3.07437422,1.34394406 Z" id="矩形-2" fill="#666666" transform="translate(5.074374, 3.843944) rotate(-45.000000) translate(-5.074374, -3.843944) "></path>
                            </g>
                            <text id="请选择" font-family="PingFangSC-Regular, PingFang SC" font-size="12" font-weight="normal" fill="#BFC3D0">
                                <tspan x="8" y="39">请选择</tspan>
                            </text>
                            <text id="样式一" font-family="PingFangSC-Regular, PingFang SC" font-size="12" font-weight="normal" fill="#4A5C90">
                                <tspan x="0" y="13">样式一</tspan>
                            </text>
                        </g>
                    </g>
                    <g id="编组-6" transform="translate(66.000000, 70.000000)">
                        <rect id="矩形" stroke="#D3D3D3" fill="#FFFFFF" x="0" y="0" width="42" height="18" rx="2"></rect>
                        <text id="人民币" font-family="PingFangSC-Regular, PingFang SC" font-size="10" font-weight="normal" fill="#717171">
                            <tspan x="6" y="13">人民币</tspan>
                        </text>
                    </g>
                    <g id="编组-6备份-3" transform="translate(110.000000, 70.000000)">
                        <rect id="矩形" stroke="#D3D3D3" fill="#FFFFFF" x="0" y="0" width="32" height="18" rx="2"></rect>
                        <text id="美元" font-family="PingFangSC-Regular, PingFang SC" font-size="10" font-weight="normal" fill="#717171">
                            <tspan x="6" y="13">美元</tspan>
                        </text>
                    </g>
                    <g id="编组-6备份-4" transform="translate(144.000000, 70.000000)">
                        <rect id="矩形" stroke="#D3D3D3" fill="#FFFFFF" x="0" y="0" width="32" height="18" rx="2"></rect>
                        <text id="日元" font-family="PingFangSC-Regular, PingFang SC" font-size="10" font-weight="normal" fill="#717171">
                            <tspan x="6" y="13">日元</tspan>
                        </text>
                    </g>
                    <text id="常用项" font-family="PingFangSC-Regular, PingFang SC" font-size="10" font-weight="normal" line-spacing="12" fill="#717171">
                        <tspan x="32" y="84">常用项</tspan>
                    </text>
                </g>
            </g>
        </g>
    </g>
</svg>