<?xml version="1.0" encoding="UTF-8"?>
<svg width="241px" height="197px" viewBox="0 0 241 197" version="1.1" xmlns="http://www.w3.org/2000/svg" xmlns:xlink="http://www.w3.org/1999/xlink">
    <!-- Generator: Sketch 58 (84663) - https://sketch.com -->
    <title>tree-radio/style2</title>
    <desc>Created with Sketch.</desc>
    <defs>
        <linearGradient x1="3.99108215%" y1="18%" x2="100%" y2="82%" id="linearGradient-1">
            <stop stop-color="#87B4F5" offset="0%"></stop>
            <stop stop-color="#4F7DE7" offset="100%"></stop>
        </linearGradient>
        <linearGradient x1="0%" y1="18%" x2="100%" y2="82%" id="linearGradient-2">
            <stop stop-color="#87B4F5" offset="0%"></stop>
            <stop stop-color="#4F7DE7" offset="100%"></stop>
        </linearGradient>
    </defs>
    <g id="页面-1" stroke="none" stroke-width="1" fill="none" fill-rule="evenodd">
        <g id="配置组件V10分页2" transform="translate(-477.000000, -1709.000000)">
            <g id="编组" transform="translate(224.000000, 1631.000000)">
                <g id="tree-radio/style2" transform="translate(253.000000, 78.000000)">
                    <g id="编组-20">
                        <rect id="矩形备份" fill-opacity="0.01" fill="#FAFAFA" x="0" y="0" width="241" height="197"></rect>
                        <text id="parent1" font-family="ArialMT, Arial" font-size="12" font-weight="normal" fill="#333333">
                            <tspan x="96" y="30">parent1</tspan>
                        </text>
                        <text id="parent2" font-family="ArialMT, Arial" font-size="12" font-weight="normal" fill="#333333">
                            <tspan x="96" y="132">parent2</tspan>
                        </text>
                        <text id="parent3" font-family="ArialMT, Arial" font-size="12" font-weight="normal" fill="#333333">
                            <tspan x="96" y="166">parent3</tspan>
                        </text>
                        <rect id="矩形" fill="#F1F1F1" x="60" y="48" width="114" height="24"></rect>
                        <g id="点击数-copy" transform="translate(162.000000, 66.000000)" stroke="#4C4C4C">
                            <path d="M15.7642312,6.00637625 C15.3623769,6.00637625 15.0075481,6.15390129 14.6933323,6.35622132 C14.3833914,5.65231618 13.6737339,5.15705358 12.84865,5.15705358 C12.4703085,5.15705358 12.1347174,5.28982611 11.8311891,5.46896364 C11.5875115,4.64282348 10.8436536,4.02532584 9.92879378,4.02532584 C9.59747773,4.02532584 9.29822453,4.12227086 9.02248408,4.26347339 L9.02248408,1.98526542 C9.02248408,0.891472705 8.1183119,0 7.00893752,0 C5.89956313,0 4.99539098,0.891472684 4.99539098,1.98526542 L4.99539098,10.3836547 L3.43499926,8.84517933 C2.67404112,8.09490918 1.34450188,8.09701668 0.589956315,8.84517933 C0.209477234,9.22031442 0,9.71768451 0,10.2487746 C0,10.7798648 0.209477234,11.2772348 0.589956315,11.6523699 L6.21591654,17.2056336 C6.99824992,17.9980537 8.31068897,19.3236715 10.8799915,19.3236715 C15.1999252,19.3236715 17.7777778,17.1950961 17.7777778,13.6292053 L17.7777778,7.99164165 C17.7777778,6.89784894 16.8757431,6.00637625 15.7642312,6.00637625 Z" id="Shape" fill="#FFFFFF" fill-rule="nonzero"></path>
                            <rect id="Rectangle" fill="#D8D8D8" x="9.17360423" y="10.6424885" width="1" height="4.55555556" rx="0.5"></rect>
                            <rect id="Rectangle-Copy" fill="#D8D8D8" x="12.1244931" y="11.4330883" width="1" height="4.55555556" rx="0.5"></rect>
                            <rect id="Rectangle-Copy-2" fill="#D8D8D8" x="14.8960548" y="11.5005061" width="1" height="3.44444444" rx="0.5"></rect>
                        </g>
                        <text id="leaf1-1" font-family="ArialMT, Arial" font-size="12" font-weight="normal" fill="#5A6677">
                            <tspan x="106" y="64">leaf1-1</tspan>
                        </text>
                        <g id="file-normal" transform="translate(78.000000, 123.000000)">
                            <rect id="矩形" fill="#D8D8D8" opacity="0.01" x="0" y="0" width="10" height="10"></rect>
                            <path d="M4.63962039,1 C4.85483559,1 5.04590502,1.13771505 5.11396204,1.34188612 L5.333,2 L9,2 C9.55228475,2 10,2.44771525 10,3 L10,8 C10,8.55228475 9.55228475,9 9,9 L1,9 C0.44771525,9 6.76353751e-17,8.55228475 0,8 L0,3 L0,2 C-6.76353751e-17,1.44771525 0.44771525,1 1,1 L4.63962039,1 Z" id="矩形-2" fill="url(#linearGradient-1)"></path>
                        </g>
                        <text id="leaf1-2" font-family="ArialMT, Arial" font-size="12" font-weight="normal" fill="#5A6677">
                            <tspan x="106" y="98">leaf1-2</tspan>
                        </text>
                        <g id="编组-4" transform="translate(64.000000, 21.000000)">
                            <rect id="矩形" fill="#D8D8D8" opacity="0.01" x="0" y="0" width="10" height="10"></rect>
                            <polygon id="矩形" fill="#333333" points="2 3 8 3 5.00776171 7"></polygon>
                        </g>
                        <g id="编组-4" transform="translate(69.000000, 128.000000) rotate(-90.000000) translate(-69.000000, -128.000000) translate(64.000000, 123.000000)">
                            <rect id="矩形" fill="#D8D8D8" opacity="0.01" x="0" y="0" width="10" height="10"></rect>
                            <polygon id="矩形" fill="#333333" points="2 3 8 3 5.00776171 7"></polygon>
                        </g>
                        <g id="编组-10" transform="translate(78.000000, 157.000000)">
                            <rect id="矩形" fill="#D8D8D8" opacity="0.01" x="0" y="0" width="10" height="10"></rect>
                            <path d="M4.63962039,1 C4.85483559,1 5.04590502,1.13771505 5.11396204,1.34188612 L5.333,2 L9,2 C9.55228475,2 10,2.44771525 10,3 L10,8 C10,8.55228475 9.55228475,9 9,9 L1,9 C0.44771525,9 6.76353751e-17,8.55228475 0,8 L0,3 L0,2 C-6.76353751e-17,1.44771525 0.44771525,1 1,1 L4.63962039,1 Z" id="矩形-2" fill="url(#linearGradient-1)"></path>
                        </g>
                        <g id="编组-4" transform="translate(69.000000, 162.000000) rotate(-90.000000) translate(-69.000000, -162.000000) translate(64.000000, 157.000000)">
                            <rect id="矩形" fill="#D8D8D8" opacity="0.01" x="0" y="0" width="10" height="10"></rect>
                            <polygon id="矩形" fill="#333333" points="2 3 8 3 5.00776171 7"></polygon>
                        </g>
                        <g id="file-open" transform="translate(78.000000, 21.000000)">
                            <rect id="矩形" fill="#D8D8D8" opacity="0.01" x="0" y="0" width="10" height="10"></rect>
                            <path d="M4.63962039,1.5 L1,1.5 C0.723857625,1.5 0.5,1.72385763 0.5,2 L0.5,8 C0.5,8.27614237 0.723857625,8.5 1,8.5 L9,8.5 C9.27614237,8.5 9.5,8.27614237 9.5,8 L9.5,3 C9.5,2.72385763 9.27614237,2.5 9,2.5 L4.97244717,2.5 L4.85858631,2.15789761 L4.63962039,1.5 Z" id="矩形-2" stroke="url(#linearGradient-2)"></path>
                        </g>
                        <g id="menu" transform="translate(88.000000, 55.000000)">
                            <rect id="矩形" fill="#D8D8D8" opacity="0.01" x="0" y="0" width="10" height="10"></rect>
                            <g id="编组-11" transform="translate(1.000000, 0.000000)">
                                <path d="M3.00355964,0 L7.5,0 C7.77614237,-5.07265313e-17 8,0.223857625 8,0.5 L8,9.5 C8,9.77614237 7.77614237,10 7.5,10 L0.5,10 C0.223857625,10 3.38176876e-17,9.77614237 0,9.5 L0,3.01279239 L0,3.01279239 L3.00355964,0 Z" id="矩形" fill="#5A6677"></path>
                                <polygon id="矩形" fill="#DCDFE3" points="3.5 0.5 3.5 3.5 0.5 3.5"></polygon>
                            </g>
                        </g>
                        <g id="编组-12" transform="translate(88.000000, 89.000000)">
                            <rect id="矩形" fill="#D8D8D8" opacity="0.01" x="0" y="0" width="10" height="10"></rect>
                            <g id="编组-11" transform="translate(1.000000, 0.000000)">
                                <path d="M3.00355964,0 L7.5,0 C7.77614237,-5.07265313e-17 8,0.223857625 8,0.5 L8,9.5 C8,9.77614237 7.77614237,10 7.5,10 L0.5,10 C0.223857625,10 3.38176876e-17,9.77614237 0,9.5 L0,3.01279239 L0,3.01279239 L3.00355964,0 Z" id="矩形" fill="#5A6677"></path>
                                <polygon id="矩形" fill="#DCDFE3" points="3.5 0.5 3.5 3.5 0.5 3.5"></polygon>
                            </g>
                        </g>
                        <g id="style2" transform="translate(12.000000, 14.000000)" fill="#525A6E" font-family="ArialMT, Arial" font-size="12" font-weight="normal">
                            <text>
                                <tspan x="0.65234375" y="15">style2</tspan>
                            </text>
                        </g>
                    </g>
                </g>
            </g>
        </g>
    </g>
</svg>