<?xml version="1.0" encoding="UTF-8"?>
<svg width="494px" height="155px" viewBox="0 0 494 155" version="1.1" xmlns="http://www.w3.org/2000/svg" xmlns:xlink="http://www.w3.org/1999/xlink">
    <!-- Generator: Sketch 58 (84663) - https://sketch.com -->
    <title>warning-hints/style2</title>
    <desc>Created with Sketch.</desc>
    <g id="页面-1" stroke="none" stroke-width="1" fill="none" fill-rule="evenodd">
        <g id="配置组件V10分页3" transform="translate(-730.000000, -2313.000000)">
            <g id="编组-35" transform="translate(224.000000, 2235.000000)">
                <g id="warning-hints/style2" transform="translate(506.000000, 78.000000)">
                    <rect id="矩形" fill-opacity="0.01" fill="#FAFAFA" x="0" y="0" width="494" height="155"></rect>
                    <rect id="矩形" stroke="#4F7DE7" fill="#FFFFFF" x="52.5" y="15.5" width="409" height="35" rx="2"></rect>
                    <text id="An-info-prompt" font-family="ArialMT, Arial" font-size="12" font-weight="normal" fill="#5A6677">
                        <tspan x="78" y="37">An info prompt</tspan>
                    </text>
                    <circle id="椭圆形" fill="#4F7DE7" cx="67" cy="33" r="3"></circle>
                    <rect id="矩形" stroke="#F8B303" fill="#FFFFFF" x="52.5" y="59.5" width="409" height="35" rx="2"></rect>
                    <circle id="椭圆形" fill="#F8B303" cx="67" cy="77" r="3"></circle>
                    <text id="A-warning-prompt" font-family="ArialMT, Arial" font-size="12" font-weight="normal" fill="#5A6677">
                        <tspan x="78" y="81">A warning prompt</tspan>
                    </text>
                    <rect id="矩形" stroke="#FD6868" fill="#FFFFFF" x="52.5" y="103.5" width="409" height="35" rx="2"></rect>
                    <g id="编组-13" transform="translate(440.000000, 26.000000)">
                        <rect id="矩形" fill="#D8D8D8" opacity="0.01" x="0" y="0" width="14" height="14"></rect>
                        <path d="M7.70710678,7 L11.9497475,11.2426407 C12.1450096,11.4379028 12.1450096,11.7544853 11.9497475,11.9497475 C11.7544853,12.1450096 11.4379028,12.1450096 11.2426407,11.9497475 L7,7.70710678 L2.75735931,11.9497475 C2.56209717,12.1450096 2.24551468,12.1450096 2.05025253,11.9497475 C1.85499039,11.7544853 1.85499039,11.4379028 2.05025253,11.2426407 L6.29289322,7 L2.05025253,2.75735931 C1.85499039,2.56209717 1.85499039,2.24551468 2.05025253,2.05025253 C2.24551468,1.85499039 2.56209717,1.85499039 2.75735931,2.05025253 L7,6.29289322 L11.2426407,2.05025253 C11.4379028,1.85499039 11.7544853,1.85499039 11.9497475,2.05025253 C12.1450096,2.24551468 12.1450096,2.56209717 11.9497475,2.75735931 L7.70710678,7 Z" id="路径" fill="#AAADBA"></path>
                    </g>
                    <g id="编组-13" transform="translate(440.000000, 70.000000)">
                        <rect id="矩形" fill="#D8D8D8" opacity="0.01" x="0" y="0" width="14" height="14"></rect>
                        <path d="M7.70710678,7 L11.9497475,11.2426407 C12.1450096,11.4379028 12.1450096,11.7544853 11.9497475,11.9497475 C11.7544853,12.1450096 11.4379028,12.1450096 11.2426407,11.9497475 L7,7.70710678 L2.75735931,11.9497475 C2.56209717,12.1450096 2.24551468,12.1450096 2.05025253,11.9497475 C1.85499039,11.7544853 1.85499039,11.4379028 2.05025253,11.2426407 L6.29289322,7 L2.05025253,2.75735931 C1.85499039,2.56209717 1.85499039,2.24551468 2.05025253,2.05025253 C2.24551468,1.85499039 2.56209717,1.85499039 2.75735931,2.05025253 L7,6.29289322 L11.2426407,2.05025253 C11.4379028,1.85499039 11.7544853,1.85499039 11.9497475,2.05025253 C12.1450096,2.24551468 12.1450096,2.56209717 11.9497475,2.75735931 L7.70710678,7 Z" id="路径" fill="#AAADBA"></path>
                    </g>
                    <g id="编组-13" transform="translate(440.000000, 114.000000)">
                        <rect id="矩形" fill="#D8D8D8" opacity="0.01" x="0" y="0" width="14" height="14"></rect>
                        <path d="M7.70710678,7 L11.9497475,11.2426407 C12.1450096,11.4379028 12.1450096,11.7544853 11.9497475,11.9497475 C11.7544853,12.1450096 11.4379028,12.1450096 11.2426407,11.9497475 L7,7.70710678 L2.75735931,11.9497475 C2.56209717,12.1450096 2.24551468,12.1450096 2.05025253,11.9497475 C1.85499039,11.7544853 1.85499039,11.4379028 2.05025253,11.2426407 L6.29289322,7 L2.05025253,2.75735931 C1.85499039,2.56209717 1.85499039,2.24551468 2.05025253,2.05025253 C2.24551468,1.85499039 2.56209717,1.85499039 2.75735931,2.05025253 L7,6.29289322 L11.2426407,2.05025253 C11.4379028,1.85499039 11.7544853,1.85499039 11.9497475,2.05025253 C12.1450096,2.24551468 12.1450096,2.56209717 11.9497475,2.75735931 L7.70710678,7 Z" id="路径" fill="#AAADBA"></path>
                    </g>
                    <circle id="椭圆形" fill="#FD6868" cx="67" cy="121" r="3"></circle>
                    <text id="An-error-prompt" font-family="ArialMT, Arial" font-size="12" font-weight="normal" fill="#5A6677">
                        <tspan x="78" y="125">An error prompt</tspan>
                    </text>
                    <g id="style2" transform="translate(12.000000, 14.000000)" fill="#525A6E" font-family="ArialMT, Arial" font-size="12" font-weight="normal">
                        <text>
                            <tspan x="0.65234375" y="15">style2</tspan>
                        </text>
                    </g>
                </g>
            </g>
        </g>
    </g>
</svg>