<?xml version="1.0" encoding="UTF-8"?>
<svg width="241px" height="197px" viewBox="0 0 241 197" version="1.1" xmlns="http://www.w3.org/2000/svg" xmlns:xlink="http://www.w3.org/1999/xlink">
    <!-- Generator: Sketch 58 (84663) - https://sketch.com -->
    <title>tree-radio/style1</title>
    <desc>Created with Sketch.</desc>
    <defs>
        <polygon id="path-1" points="5 7.68048012 0.123236337 2.89238489 0.908910539 2.12099568 5.00284025 6.13491308 9.05160734 2.15975994 9.83728155 2.93114915"></polygon>
        <polygon id="path-3" points="5 7.68048012 0.123236337 2.89238489 0.908910539 2.12099568 5.00284025 6.13491308 9.05160734 2.15975994 9.83728155 2.93114915"></polygon>
        <polygon id="path-5" points="5 7.68048012 0.123236337 2.89238489 0.908910539 2.12099568 5.00284025 6.13491308 9.05160734 2.15975994 9.83728155 2.93114915"></polygon>
    </defs>
    <g id="页面-1" stroke="none" stroke-width="1" fill="none" fill-rule="evenodd">
        <g id="配置组件V10分页2" transform="translate(-224.000000, -1709.000000)">
            <g id="编组" transform="translate(224.000000, 1631.000000)">
                <g id="tree-radio/style1" transform="translate(0.000000, 78.000000)">
                    <g id="编组-20">
                        <rect id="矩形备份" fill-opacity="0.01" fill="#FAFAFA" x="0" y="0" width="241" height="197"></rect>
                        <text id="parent1" font-family="ArialMT, Arial" font-size="12" font-weight="normal" fill="#333333">
                            <tspan x="78" y="29">parent1</tspan>
                        </text>
                        <text id="parent2" font-family="ArialMT, Arial" font-size="12" font-weight="normal" fill="#333333">
                            <tspan x="78" y="131">parent2</tspan>
                        </text>
                        <g id="arrow-down" transform="translate(65.000000, 161.000000) rotate(-90.000000) translate(-65.000000, -161.000000) translate(60.000000, 156.000000)">
                            <rect id="Rectangle" fill="#D8D8D8" opacity="0.01" x="0" y="0" width="10" height="10"></rect>
                            <mask id="mask-2" fill="white">
                                <use xlink:href="#path-1"></use>
                            </mask>
                            <use id="Path-2" fill="#333333" fill-rule="nonzero" xlink:href="#path-1"></use>
                        </g>
                        <rect id="矩形" fill="#F1F1F1" opacity="0.300000012" x="60" y="45" width="112" height="28"></rect>
                        <g id="点击数-copy" transform="translate(154.000000, 63.000000)" stroke="#4C4C4C">
                            <path d="M15.7642312,6.00637625 C15.3623769,6.00637625 15.0075481,6.15390129 14.6933323,6.35622132 C14.3833914,5.65231618 13.6737339,5.15705358 12.84865,5.15705358 C12.4703085,5.15705358 12.1347174,5.28982611 11.8311891,5.46896364 C11.5875115,4.64282348 10.8436536,4.02532584 9.92879378,4.02532584 C9.59747773,4.02532584 9.29822453,4.12227086 9.02248408,4.26347339 L9.02248408,1.98526542 C9.02248408,0.891472705 8.1183119,0 7.00893752,0 C5.89956313,0 4.99539098,0.891472684 4.99539098,1.98526542 L4.99539098,10.3836547 L3.43499926,8.84517933 C2.67404112,8.09490918 1.34450188,8.09701668 0.589956315,8.84517933 C0.209477234,9.22031442 0,9.71768451 0,10.2487746 C0,10.7798648 0.209477234,11.2772348 0.589956315,11.6523699 L6.21591654,17.2056336 C6.99824992,17.9980537 8.31068897,19.3236715 10.8799915,19.3236715 C15.1999252,19.3236715 17.7777778,17.1950961 17.7777778,13.6292053 L17.7777778,7.99164165 C17.7777778,6.89784894 16.8757431,6.00637625 15.7642312,6.00637625 Z" id="Shape" fill="#FFFFFF" fill-rule="nonzero"></path>
                            <rect id="Rectangle" fill="#D8D8D8" x="9.17360423" y="10.6424885" width="1" height="4.55555556" rx="0.5"></rect>
                            <rect id="Rectangle-Copy" fill="#D8D8D8" x="12.1244931" y="11.4330883" width="1" height="4.55555556" rx="0.5"></rect>
                            <rect id="Rectangle-Copy-2" fill="#D8D8D8" x="14.8960548" y="11.5005061" width="1" height="3.44444444" rx="0.5"></rect>
                        </g>
                        <text id="parent3" font-family="ArialMT, Arial" font-size="12" font-weight="normal" fill="#333333">
                            <tspan x="78" y="165">parent3</tspan>
                        </text>
                        <text id="leaf1-1" font-family="ArialMT, Arial" font-size="12" font-weight="normal" fill="#5A6677">
                            <tspan x="88" y="63">leaf1-1</tspan>
                        </text>
                        <text id="leaf1-2" font-family="ArialMT, Arial" font-size="12" font-weight="normal" fill="#5A6677">
                            <tspan x="88" y="97">leaf1-2</tspan>
                        </text>
                        <g id="arrow-down" transform="translate(60.000000, 20.000000)">
                            <rect id="Rectangle" fill="#D8D8D8" opacity="0.01" x="0" y="0" width="10" height="10"></rect>
                            <mask id="mask-4" fill="white">
                                <use xlink:href="#path-3"></use>
                            </mask>
                            <use id="Path-2" fill="#333333" fill-rule="nonzero" xlink:href="#path-3"></use>
                        </g>
                        <g id="arrow-down" transform="translate(65.000000, 127.000000) rotate(-90.000000) translate(-65.000000, -127.000000) translate(60.000000, 122.000000)">
                            <rect id="Rectangle" fill="#D8D8D8" opacity="0.01" x="0" y="0" width="10" height="10"></rect>
                            <mask id="mask-6" fill="white">
                                <use xlink:href="#path-5"></use>
                            </mask>
                            <use id="Path-2" fill="#333333" fill-rule="nonzero" xlink:href="#path-5"></use>
                        </g>
                        <g id="style1" transform="translate(12.000000, 14.000000)" fill="#525A6E" font-family="ArialMT, Arial" font-size="12" font-weight="normal">
                            <text>
                                <tspan x="0.65234375" y="15">style1</tspan>
                            </text>
                        </g>
                    </g>
                </g>
            </g>
        </g>
    </g>
</svg>