<?xml version="1.0" encoding="UTF-8"?>
<svg width="241px" height="192px" viewBox="0 0 241 192" version="1.1" xmlns="http://www.w3.org/2000/svg" xmlns:xlink="http://www.w3.org/1999/xlink">
    <!-- Generator: Sketch 58 (84663) - https://sketch.com -->
    <title>selection/style1</title>
    <desc>Created with Sketch.</desc>
    <g id="页面-1" stroke="none" stroke-width="1" fill="none" fill-rule="evenodd">
        <g id="配置组件V10分页1" transform="translate(-224.000000, -1917.000000)">
            <g id="编组-46备份" transform="translate(224.000000, 1841.000000)">
                <g id="selection/style1" transform="translate(0.000000, 76.000000)">
                    <rect id="矩形备份-3" fill-opacity="0.01" fill="#FAFAFA" x="0" y="0" width="241" height="192"></rect>
                    <path d="M52.5,21.9912443 L52.5,46.0087557 C52.5,46.8265218 53.1754932,47.5 54.0030127,47.5 L226.996987,47.5 C227.832296,47.5 228.5,46.8345206 228.5,46.0087557 L228.5,21.9912443 C228.5,21.1734782 227.824507,20.5 226.996987,20.5 L54.0030127,20.5 C53.1677039,20.5 52.5,21.1654794 52.5,21.9912443 Z" id="Rectangle-26-Copy-23备份" stroke="#D9D9D9" fill="#FFFFFF"></path>
                    <text id="Select" font-family="ArialMT, Arial" font-size="12" font-weight="normal" fill="#333333">
                        <tspan x="60" y="38">Select</tspan>
                    </text>
                    <path d="M52.5,53.9912443 L52.5,78.0087557 C52.5,78.8265218 53.1754932,79.5 54.0030127,79.5 L226.996987,79.5 C227.832296,79.5 228.5,78.8345206 228.5,78.0087557 L228.5,53.9912443 C228.5,53.1734782 227.824507,52.5 226.996987,52.5 L54.0030127,52.5 C53.1677039,52.5 52.5,53.1654794 52.5,53.9912443 Z" id="Rectangle-26-Copy-23备份-3" stroke="#B8D7FF" fill="#EFF6FF"></path>
                    <text id="Select" font-family="ArialMT, Arial" font-size="12" font-weight="normal" fill="#333333">
                        <tspan x="60" y="70">Select</tspan>
                    </text>
                    <path d="M52.5,85.9912443 L52.5,110.008756 C52.5,110.826522 53.1754932,111.5 54.0030127,111.5 L226.996987,111.5 C227.832296,111.5 228.5,110.834521 228.5,110.008756 L228.5,85.9912443 C228.5,85.1734782 227.824507,84.5 226.996987,84.5 L54.0030127,84.5 C53.1677039,84.5 52.5,85.1654794 52.5,85.9912443 Z" id="Rectangle-26-Copy-23备份-4" stroke="#E7EAED" fill="#F8F8F8"></path>
                    <text id="Select" opacity="0.5" font-family="ArialMT, Arial" font-size="12" font-weight="normal" fill="#AAADBA">
                        <tspan x="60" y="102">Select</tspan>
                    </text>
                    <rect id="矩形备份-4" stroke="#FD6868" fill="#FFFFFF" x="52.5" y="116.5" width="176" height="27" rx="2"></rect>
                    <text id="Select" font-family="ArialMT, Arial" font-size="12" font-weight="normal" fill="#333333">
                        <tspan x="60" y="134">Select</tspan>
                    </text>
                    <g id="编组-2备份" transform="translate(213.000000, 125.000000)">
                        <rect id="矩形" fill="#D8D8D8" opacity="0.01" x="0" y="0" width="10" height="10"></rect>
                        <path d="M3.07437422,1.34394406 C3.3505166,1.34394406 3.57437422,1.56780169 3.57437422,1.84394406 L3.57437422,5.34394406 L7.07437422,5.34394406 C7.3505166,5.34394406 7.57437422,5.56780169 7.57437422,5.84394406 C7.57437422,6.12008644 7.3505166,6.34394406 7.07437422,6.34394406 L3.07437422,6.34394406 L3.07437422,6.34394406 C2.79823185,6.34394406 2.57437422,6.12008644 2.57437422,5.84394406 L2.57437422,1.84394406 C2.57437422,1.56780169 2.79823185,1.34394406 3.07437422,1.34394406 Z" id="矩形-2" fill="#666666" transform="translate(5.074374, 3.843944) rotate(-45.000000) translate(-5.074374, -3.843944) "></path>
                    </g>
                    <text id="Error-waring-text" font-family="ArialMT, Arial" font-size="10" font-weight="normal" line-spacing="18" fill="#FD6868">
                        <tspan x="52" y="155">Error waring text</tspan>
                    </text>
                    <g id="arrow-down" transform="translate(213.000000, 29.000000)">
                        <rect id="矩形" fill="#D8D8D8" opacity="0.01" x="0" y="0" width="10" height="10"></rect>
                        <path d="M3.07437422,1.34394406 C3.3505166,1.34394406 3.57437422,1.56780169 3.57437422,1.84394406 L3.57437422,5.34394406 L7.07437422,5.34394406 C7.3505166,5.34394406 7.57437422,5.56780169 7.57437422,5.84394406 C7.57437422,6.12008644 7.3505166,6.34394406 7.07437422,6.34394406 L3.07437422,6.34394406 L3.07437422,6.34394406 C2.79823185,6.34394406 2.57437422,6.12008644 2.57437422,5.84394406 L2.57437422,1.84394406 C2.57437422,1.56780169 2.79823185,1.34394406 3.07437422,1.34394406 Z" id="矩形-2" fill="#666666" transform="translate(5.074374, 3.843944) rotate(-45.000000) translate(-5.074374, -3.843944) "></path>
                    </g>
                    <g id="编组-2备份" transform="translate(213.000000, 61.000000)">
                        <rect id="矩形" fill="#D8D8D8" opacity="0.01" x="0" y="0" width="10" height="10"></rect>
                        <path d="M3.07437422,1.34394406 C3.3505166,1.34394406 3.57437422,1.56780169 3.57437422,1.84394406 L3.57437422,5.34394406 L7.07437422,5.34394406 C7.3505166,5.34394406 7.57437422,5.56780169 7.57437422,5.84394406 C7.57437422,6.12008644 7.3505166,6.34394406 7.07437422,6.34394406 L3.07437422,6.34394406 L3.07437422,6.34394406 C2.79823185,6.34394406 2.57437422,6.12008644 2.57437422,5.84394406 L2.57437422,1.84394406 C2.57437422,1.56780169 2.79823185,1.34394406 3.07437422,1.34394406 Z" id="矩形-2" fill="#666666" transform="translate(5.074374, 3.843944) rotate(-45.000000) translate(-5.074374, -3.843944) "></path>
                    </g>
                    <g id="编组-2备份-2" opacity="0.5" transform="translate(213.000000, 93.000000)">
                        <rect id="矩形" fill="#D8D8D8" opacity="0.01" x="0" y="0" width="10" height="10"></rect>
                        <path d="M3.07437422,1.34394406 C3.3505166,1.34394406 3.57437422,1.56780169 3.57437422,1.84394406 L3.57437422,5.34394406 L7.07437422,5.34394406 C7.3505166,5.34394406 7.57437422,5.56780169 7.57437422,5.84394406 C7.57437422,6.12008644 7.3505166,6.34394406 7.07437422,6.34394406 L3.07437422,6.34394406 L3.07437422,6.34394406 C2.79823185,6.34394406 2.57437422,6.12008644 2.57437422,5.84394406 L2.57437422,1.84394406 C2.57437422,1.56780169 2.79823185,1.34394406 3.07437422,1.34394406 Z" id="矩形-2" fill="#666666" transform="translate(5.074374, 3.843944) rotate(-45.000000) translate(-5.074374, -3.843944) "></path>
                    </g>
                    <g id="style1" transform="translate(12.000000, 22.000000)" fill="#525A6E" font-family="ArialMT, Arial" font-size="12" font-weight="normal">
                        <text>
                            <tspan x="0.65234375" y="15">style1</tspan>
                        </text>
                    </g>
                </g>
            </g>
        </g>
    </g>
</svg>