<?xml version="1.0" encoding="UTF-8"?>
<svg width="494px" height="76px" viewBox="0 0 494 76" version="1.1" xmlns="http://www.w3.org/2000/svg" xmlns:xlink="http://www.w3.org/1999/xlink">
    <!-- Generator: Sketch 59 (86127) - https://sketch.com -->
    <title>6-Radio-style2</title>
    <desc>Created with Sketch.</desc>
    <g id="页面-1" stroke="none" stroke-width="1" fill="none" fill-rule="evenodd">
        <g id="一诺合同-配置组件备份-2" transform="translate(-224.000000, -2872.000000)">
            <rect fill="#F6F6F6" x="0" y="0" width="1440" height="9290"></rect>
            <path d="M210,149 L1430,149 C1431.10457,149 1432,149.895431 1432,151 L1432,8635.15678 L1432,8635.15678 L1432,9272 C1432,9273.10457 1431.10457,9274 1430,9274 L210,9274 C208.895431,9274 208,9273.10457 208,9272 L208,151 C208,149.895431 208.895431,149 210,149 Z" id="Rectangle" fill="#FFFFFF"></path>
            <g id="radiobutton/style2" transform="translate(224.000000, 2872.000000)">
                <rect id="矩形备份" fill-opacity="0.01" fill="#FAFAFA" x="0" y="0" width="494" height="76"></rect>
                <g id="编组-20" transform="translate(8.000000, 15.000000)">
                    <g id="编组-5" transform="translate(44.000000, 24.000000)">
                        <rect id="矩形" stroke="#3889FF" fill="#3889FF" x="0.5" y="0.5" width="55" height="19" rx="9.5"></rect>
                        <text id="option1" font-family="PingFangSC-Regular, PingFang SC" font-size="12" font-weight="normal" fill="#FFFFFF">
                            <tspan x="8" y="14">option1</tspan>
                        </text>
                    </g>
                    <text id="标题文本" font-family="PingFangSC-Regular, PingFang SC" font-size="12" font-weight="normal" fill="#525A6E">
                        <tspan x="44" y="13">标题文本</tspan>
                    </text>
                    <g id="编组-5" transform="translate(116.000000, 24.000000)">
                        <rect id="矩形" stroke="#D5DAE0" x="0.5" y="0.5" width="58" height="19" rx="9.5"></rect>
                        <text id="option2" font-family="PingFangSC-Regular, PingFang SC" font-size="12" font-weight="normal" fill="#5A6677">
                            <tspan x="8" y="14">option2</tspan>
                        </text>
                    </g>
                    <g id="编组-5" transform="translate(191.000000, 24.000000)">
                        <rect id="矩形" stroke="#E7EAED" fill="#F8F8F8" x="0.5" y="0.5" width="58" height="19" rx="9.5"></rect>
                        <text id="option3" font-family="PingFangSC-Regular, PingFang SC" font-size="12" font-weight="normal" fill="#AAADBA">
                            <tspan x="8" y="14">option3</tspan>
                        </text>
                    </g>
                    <text id="样式" font-family="MicrosoftYaHei, Microsoft YaHei" font-size="12" font-weight="normal" line-spacing="22" fill="#525A6E">
                        <tspan x="0" y="36">样式</tspan>
                    </text>
                </g>
            </g>
        </g>
    </g>
</svg>