<?xml version="1.0" encoding="UTF-8"?>
<svg width="241px" height="86px" viewBox="0 0 241 86" version="1.1" xmlns="http://www.w3.org/2000/svg" xmlns:xlink="http://www.w3.org/1999/xlink">
    <!-- Generator: Sketch 59 (86127) - https://sketch.com -->
    <title>2-input2-style4</title>
    <desc>Created with Sketch.</desc>
    <g id="页面-1" stroke="none" stroke-width="1" fill="none" fill-rule="evenodd">
        <g id="一诺合同-配置组件-英文" transform="translate(-477.000000, -1034.000000)">
            <rect fill="#F6F6F6" x="0" y="0" width="1440" height="9873"></rect>
            <path d="M210,149 L1430,149 C1431.10457,149 1432,149.895431 1432,151 L1432,9188.5007 L1432,9188.5007 L1432,9867 C1432,9868.10457 1431.10457,9869 1430,9869 L210,9869 C208.895431,9869 208,9868.10457 208,9867 L208,151 C208,149.895431 208.895431,149 210,149 Z" id="Rectangle" fill="#FFFFFF"></path>
            <g id="编组-53" transform="translate(477.000000, 1034.000000)">
                <rect id="矩形" fill="#FAFAFA" opacity="0.01" x="0" y="0" width="241" height="86"></rect>
                <g id="编组-10备份-30" transform="translate(7.000000, 40.000000)">
                    <rect id="矩形备份-4" stroke-opacity="0.15" stroke="#000000" fill="#FFFFFF" x="49.5" y="0.5" width="176" height="25" rx="2"></rect>
                    <g id="search" transform="translate(208.000000, 7.000000)">
                        <rect id="矩形" fill="#D8D8D8" opacity="0.01" x="0" y="0" width="12" height="12"></rect>
                        <g id="编组-13" stroke="#333333">
                            <circle id="椭圆形" cx="5" cy="5" r="4.5"></circle>
                            <rect id="矩形" fill="#D8D8D8" transform="translate(9.596194, 9.596194) rotate(-45.000000) translate(-9.596194, -9.596194) " x="9.59619408" y="7.59619408" width="1" height="4" rx="0.5"></rect>
                        </g>
                    </g>
                    <text id="Enter-something" font-family="PingFangSC-Regular, PingFang SC" font-size="12" font-weight="normal" fill="#BFC3D0">
                        <tspan x="57" y="18">Enter something</tspan>
                    </text>
                    <text id="style-2：" font-family="PingFangSC-Regular, PingFang SC" font-size="12" font-weight="normal" fill="#4A5C90">
                        <tspan x="0.052" y="18">style 2：</tspan>
                    </text>
                </g>
            </g>
        </g>
    </g>
</svg>