<?xml version="1.0" encoding="UTF-8"?>
<svg width="241px" height="108px" viewBox="0 0 241 108" version="1.1" xmlns="http://www.w3.org/2000/svg" xmlns:xlink="http://www.w3.org/1999/xlink">
    <!-- Generator: Sketch 58 (84663) - https://sketch.com -->
    <title>text-input/style2</title>
    <desc>Created with Sketch.</desc>
    <g id="页面-1" stroke="none" stroke-width="1" fill="none" fill-rule="evenodd">
        <g id="text-input/style2">
            <g id="编组-20">
                <rect id="矩形备份" fill-opacity="0.01" fill="#F6F6F6" x="0" y="0" width="241" height="108"></rect>
                <rect id="矩形备份-4" stroke-opacity="0.15" stroke="#000000" fill="#FFFFFF" x="8.5" y="32.5" width="224" height="59" rx="2"></rect>
                <path d="M21.2265625,51.4824219 L20.3125,51.4824219 L20.3125,45.5410156 L26.828125,45.5410156 L26.828125,50.0996094 C26.828125,50.9433636 26.3945356,51.3691406 25.5273438,51.3769531 L24.6108905,51.3865195 C24.3502086,51.3879544 24.0658498,51.3886719 23.7578125,51.3886719 C23.7187498,51.1386706 23.6601566,50.8378924 23.5820312,50.4863281 L24.1340094,50.520767 C24.5684798,50.5446828 24.9391726,50.5566406 25.2460938,50.5566406 C25.6914085,50.5566406 25.9140625,50.3535177 25.9140625,49.9472656 L25.9140625,49.3613281 L21.2265625,49.3613281 L21.2265625,51.4824219 Z M19.28125,44.0878906 L23.0664062,44.0878906 L23.0664062,43.2792969 L20.0664062,43.2792969 L20.0664062,42.5410156 L23.0664062,42.5410156 L23.0664062,41.7558594 L19.65625,41.7558594 L19.65625,41.0175781 L23.0664062,41.0175781 L23.0664062,39.9628906 L24.015625,39.9628906 L24.015625,41.0175781 L27.5898438,41.0175781 L27.5898438,41.7558594 L24.015625,41.7558594 L24.015625,42.5410156 L27.2851562,42.5410156 L27.2851562,43.2792969 L24.015625,43.2792969 L24.015625,44.0878906 L27.8242188,44.0878906 L27.8242188,44.8261719 L19.28125,44.8261719 L19.28125,44.0878906 Z M19.8554688,48.5878906 C19.8789064,48.9785176 19.9062498,49.3183579 19.9375,49.6074219 C19.0937458,50.1699247 18.3789092,50.6777321 17.7929688,51.1308594 L17.2539062,50.3574219 C17.5195326,50.1074206 17.6523438,49.7675803 17.6523438,49.3378906 L17.6523438,44.9082031 L16.2226562,44.9082031 L16.2226562,44.0527344 L18.5429688,44.0527344 L18.5429688,49.5136719 C18.9804709,49.2167954 19.4179666,48.9082047 19.8554688,48.5878906 Z M25.9140625,46.2910156 L21.2265625,46.2910156 L21.2265625,47.0996094 L25.9140625,47.0996094 L25.9140625,46.2910156 Z M21.2265625,48.6347656 L25.9140625,48.6347656 L25.9140625,47.8261719 L21.2265625,47.8261719 L21.2265625,48.6347656 Z M17.546875,40.3613281 C18.1875032,40.9941438 18.7539038,41.5839816 19.2460938,42.1308594 L18.4257812,42.8105469 C17.8867161,42.1152309 17.3593776,41.4980496 16.84375,40.9589844 L17.546875,40.3613281 Z M29.171875,45.8457031 L30.2265625,45.8457031 L30.2265625,43.7128906 L31,43.7128906 L31,45.8457031 L32.125,45.8457031 L32.125,46.6191406 L31,46.6191406 L31,48.2246094 C31.4140646,48.1699216 31.8359354,48.1074222 32.265625,48.0371094 C32.2265623,48.3339859 32.1992188,48.6035144 32.1835938,48.8457031 L31,49.0097656 L31,49.0097656 L31,51.6230469 L30.2265625,51.6230469 L30.2265625,49.1269531 C29.5937468,49.2207036 28.9570345,49.3183589 28.3164062,49.4199219 L28.1875,48.5644531 C28.8593784,48.4941403 29.5390591,48.4160161 30.2265625,48.3300781 L30.2265625,46.6191406 L28.3515625,46.6191406 L28.3515625,45.8105469 C28.648439,44.9746052 28.9570296,43.9121158 29.2773438,42.6230469 L28.2460938,42.6230469 L28.2460938,41.8730469 L29.4648438,41.8730469 C29.5976569,41.3105441 29.7343743,40.7089876 29.875,40.0683594 L30.71875,40.2558594 L30.296875,41.8730469 L30.296875,41.8730469 L32.4179688,41.8730469 L32.4179688,42.6230469 L30.0976562,42.6230469 L29.846435,43.536379 C29.6018062,44.4138203 29.3769542,45.1835904 29.171875,45.8457031 Z M33.2734375,51.5996094 L32.5234375,51.5996094 L32.5234375,44.6972656 L35.640625,44.6972656 L35.640625,50.4628906 C35.640625,51.1503941 35.3242219,51.4941406 34.6914062,51.4941406 L33.7773438,51.4824219 L33.7773438,51.4824219 L33.6132812,50.7558594 L33.6132812,50.7558594 C33.9257828,50.779297 34.2109362,50.7910156 34.46875,50.7910156 C34.7500014,50.7910156 34.890625,50.6347672 34.890625,50.3222656 L34.890625,48.9628906 L33.2734375,48.9628906 L33.2734375,51.5996094 Z M36.6601562,40.1503906 L36.4609375,40.4082031 C37.3750046,41.78321 38.5195244,42.7675752 39.8945312,43.3613281 C39.6289049,43.6738297 39.425782,43.9433582 39.2851562,44.1699219 C38.7539036,43.8730454 38.261721,43.5371113 37.8085938,43.1621094 L37.8085938,43.7480469 L33.7421875,43.7480469 L33.7421875,43.2324219 C33.2812477,43.6152363 32.8007838,43.9667953 32.3007812,44.2871094 C32.0664051,43.9824204 31.8593759,43.7441415 31.6796875,43.5722656 C33.2343828,42.6660111 34.4882765,41.5253975 35.4414062,40.1503906 L36.6601562,40.1503906 Z M38.40625,44.4863281 L39.203125,44.4863281 L39.203125,50.1933594 C39.203125,51.0605512 38.8359412,51.4980468 38.1015625,51.5058594 C37.703123,51.5136719 37.2460963,51.5058595 36.7304688,51.4824219 C36.6914061,51.1933579 36.6367191,50.9003921 36.5664062,50.6035156 C37.0585962,50.6660159 37.480467,50.6972656 37.8320312,50.6972656 C38.2148457,50.6972656 38.40625,50.4941427 38.40625,50.0878906 L38.40625,44.4863281 Z M35.8867188,41.0175781 C35.3007783,41.7519568 34.6679721,42.4160127 33.9882812,43.0097656 L37.6210938,43.0097656 C36.9570279,42.4316377 36.3789087,41.7675819 35.8867188,41.0175781 Z M36.6132812,45.0488281 L37.3632812,45.0488281 L37.3632812,49.3144531 L36.6132812,49.3144531 L36.6132812,45.0488281 Z M33.2734375,48.3066406 L34.890625,48.3066406 L34.890625,47.1816406 L33.2734375,47.1816406 L33.2734375,48.3066406 Z M34.890625,45.4121094 L33.2734375,45.4121094 L33.2734375,46.5253906 L34.890625,46.5253906 L34.890625,45.4121094 Z M43.4335938,40.7246094 L44.2070312,40.1738281 C45.0820356,40.7128933 46.0429635,42.095692 47.0898438,44.3222656 C48.5507886,47.5175941 50.1367102,49.4667934 51.8476562,50.1699219 L51.0273438,51.2011719 C49.3876871,50.2278597 47.8664407,48.2213688 46.4635628,45.1816425 L46.0494794,44.2714846 C46.011285,44.1894535 45.9733075,44.1087244 45.9355469,44.0292969 C45.0292923,47.1347812 43.3437623,49.5488195 40.8789062,51.2714844 C40.6679677,50.9589828 40.4296888,50.666017 40.1640625,50.3925781 C42.6992314,48.7949139 44.4062456,46.2675954 45.2851562,42.8105469 C44.6718719,41.7871043 44.0546906,41.0917987 43.4335938,40.7246094 Z" id="请输入" fill="#AAADBA" fill-rule="nonzero"></path>
                <text id="样式二" font-family="MicrosoftYaHei, Microsoft YaHei" font-size="12" font-weight="normal" line-spacing="22" fill="#525A6E">
                    <tspan x="8" y="19">样式二</tspan>
                </text>
            </g>
        </g>
    </g>
</svg>