<?xml version="1.0" encoding="UTF-8"?>
<svg width="14px" height="14px" viewBox="0 0 14 14" version="1.1" xmlns="http://www.w3.org/2000/svg" xmlns:xlink="http://www.w3.org/1999/xlink">
    <!-- Generator: Sketch 58 (84663) - https://sketch.com -->
    <title>gongzuotai</title>
    <desc>Created with Sketch.</desc>
    <g id="页面-1" stroke="none" stroke-width="1" fill="none" fill-rule="evenodd">
        <g id="页面组合上下结构" transform="translate(-228.000000, -61.000000)" fill="#FFFFFF" fill-rule="nonzero">
            <g id="编组-3" transform="translate(200.000000, 0.000000)">
                <g id="页签-工作台" transform="translate(16.000000, 50.000000)">
                    <g id="gongzuotai" transform="translate(12.000000, 11.000000)">
                        <path d="M11.0321986,1.91379175 L7.47274562,1.09237951 C7.3320896,1.05992043 7.18607349,1.05829815 7.04473102,1.08762414 L3.01757414,1.92318591 C2.90942059,1.9456258 2.83993595,2.0514927 2.86237584,2.15964624 C2.87797217,2.23481587 2.93521965,2.29442413 3.00969803,2.31304373 L5.46880878,2.92782141 C5.91397578,3.03911316 6.22627315,3.43909627 6.22627315,3.89796391 L6.22627315,12.6125741 C6.22627315,13.1648589 5.7785579,13.6125741 5.22627315,13.6125741 C5.11879106,13.6125741 5.01201186,13.5952462 4.91004539,13.5612574 L0.687823166,12.15385 C0.279481026,12.017736 0.00405093099,11.6355971 0.00405093099,11.2051667 L0.00405093099,2.36995316 C0.00405093099,1.89845828 0.33339246,1.49101936 0.794409993,1.39217473 L7.04163209,0.0527368222 C7.18496322,0.02200586 7.33329794,0.023162236 7.47613253,0.0561240662 L13.2248595,1.38275337 C13.6785906,1.48746054 14,1.89148858 14,2.35714456 L14,11.2051667 C14,11.6355971 13.7245699,12.017736 13.3162278,12.15385 L9.09400554,13.5612574 C8.57006223,13.7359052 8.00374225,13.4527452 7.82909448,12.9288019 C7.79510566,12.8268354 7.77777778,12.7200562 7.77777778,12.6125741 L7.77777778,3.89796391 C7.77777778,3.43909627 8.09007515,3.03911316 8.53524215,2.92782141 L11.0357339,2.30269849 C11.1428928,2.27590874 11.208045,2.16732184 11.1812552,2.06016286 C11.1630241,1.9872382 11.1054427,1.93069421 11.0321986,1.91379175 Z M11.9525346,3.79967597 L9.82524319,4.5087731 C9.5314794,4.60669437 9.33333333,4.88160735 9.33333333,5.19126158 C9.33333333,5.3976653 9.50065661,5.56498858 9.70706034,5.56498858 C9.7472293,5.56498858 9.78713557,5.55851268 9.82524319,5.54581014 L11.9525346,4.83671301 C12.2462984,4.73879175 12.4444444,4.46387876 12.4444444,4.15422453 C12.4444444,3.94782081 12.2771212,3.78049753 12.0707174,3.78049753 C12.0305485,3.78049753 11.9906422,3.78697343 11.9525346,3.79967597 Z" id="形状"></path>
                    </g>
                </g>
            </g>
        </g>
    </g>
</svg>